<svg width="54" height="44" viewBox="0 0 54 44" fill="none" xmlns="http://www.w3.org/2000/svg">
<path fill-rule="evenodd" clip-rule="evenodd" d="M23.8148 40.4286C22.9223 38.9702 20.3506 39.2555 19.6063 37.2264L17.831 32.3668C17.7405 32.164 17.7562 32.1786 17.6541 32.0168C17.4601 31.7083 17.6319 31.9165 17.4046 31.7034C17.4582 32.4553 17.4518 32.0961 17.728 32.8695C16.3828 32.4634 15.0657 31.7255 13.8531 31.1608L8.16406 28.5719C7.11495 28.1944 1.83475 27.7305 0.762084 27.7569C0.489528 28.3443 0.00677999 28.8847 0.0451226 29.7488L5.82424 32.5734C7.6924 33.4175 9.73473 34.5086 11.638 35.3052C14.2638 36.4045 21.9928 40.2824 23.8148 40.4286Z" fill="#B5B9C1"/>
<path fill-rule="evenodd" clip-rule="evenodd" d="M17.3139 26.7963C17.1725 26.0908 16.8048 25.2235 16.5646 24.572C16.4458 24.2521 16.3322 23.9641 16.2019 23.607L15.6832 22.6777C15.6956 23.9975 13.694 24.2554 11.5708 24.305C10.2708 24.3357 9.43515 24.4118 8.23913 24.5083C7.25932 24.5876 5.90115 24.71 5.01974 24.8147C3.79739 24.9603 3.06149 25.0703 1.8798 25.1863C1.57074 25.6367 1.14343 26.2569 1.08984 26.9133C1.75553 27.2758 7.31752 27.9564 8.23729 27.8658C10.0195 27.6894 15.6665 26.1852 16.9545 26.3664C16.9572 27.2563 16.8833 26.4236 17.3139 26.7963Z" fill="#DCDDE4"/>
<path fill-rule="evenodd" clip-rule="evenodd" d="M41.3801 32.8589C42.274 32.7182 42.8122 32.4474 43.6178 32.2894C44.3098 32.1534 45.2573 32.1739 45.7128 31.6799C45.2167 31.6788 44.9787 31.7764 44.4955 31.5839L33.4589 26.529L30.7652 25.4282L25.8028 23.4434L24.9727 24.2157C25.7192 24.2443 39.9499 32.051 41.8254 32.4587C40.7994 32.7176 41.7824 32.38 41.3801 32.8589Z" fill="#C8CBD2"/>
<path fill-rule="evenodd" clip-rule="evenodd" d="M39.7499 11.7394L40.9782 9.38677L20.2348 10.1208L15.8411 6.88361L15.9497 6.69753L17.841 3.74023L14.0898 9.62247L18.6457 12.6386L39.7499 11.7394Z" fill="#003A63"/>
<path fill-rule="evenodd" clip-rule="evenodd" d="M49.5942 37.942L50.8849 35.4852L32.3917 40.9268L28.1001 38.3168L29.5206 34.3574L27.4182 37.4188L25.9062 40.7229L30.6242 43.2369L49.5942 37.942Z" fill="#003A63"/>
<path fill-rule="evenodd" clip-rule="evenodd" d="M40.2324 11.0259L42.3967 6.6123L41.5176 9.82849L48.9768 29.6445L52.2988 31.6126L51.1873 32.8844L46.9923 32.1816L39.418 12.2853L40.2324 11.0259Z" fill="#2C82B9"/>
<path fill-rule="evenodd" clip-rule="evenodd" d="M15.7969 6.89336L20.2885 10.2228L40.9543 9.40677L42.1697 6.43005L38.5114 3.50781L17.8591 3.58872L15.7969 6.89336Z" fill="black"/>
<path fill-rule="evenodd" clip-rule="evenodd" d="M42.3372 6.61621L41.0391 9.4295L48.9723 29.6737L52.2776 31.6359L53.5545 28.5993L46.4976 9.92841L42.3372 6.61621Z" fill="black"/>
<path fill-rule="evenodd" clip-rule="evenodd" d="M11.2109 14.6159L12.8236 11.3555L21.8499 35.5634L26.9804 38.1551L24.653 40.7774L19.8648 38.1006L11.2109 14.6159Z" fill="#2C82B9"/>
<path fill-rule="evenodd" clip-rule="evenodd" d="M15.3054 8.00391L12.832 11.3371L21.8472 35.5392L26.9772 38.1486L29.051 34.104L20.2409 10.9952L15.3054 8.00391Z" fill="black"/>
<path fill-rule="evenodd" clip-rule="evenodd" d="M27.5505 38.4219L32.4062 40.9347L30.6216 43.2297L25.9609 40.7201L27.5505 38.4219Z" fill="#2C82B9"/>
<path fill-rule="evenodd" clip-rule="evenodd" d="M27.5273 38.4368L32.3913 40.9491L50.8826 35.4913L52.3383 32.0804L48.7687 30.0039L29.45 34.4288L27.5273 38.4368Z" fill="black"/>
</svg>
