<?xml version="1.0" encoding="utf-8"?>
<!-- Generator: Adobe Illustrator 24.2.1, SVG Export Plug-In . SVG Version: 6.00 Build 0)  -->
<svg version="1.1" id="Layer_1" xmlns="http://www.w3.org/2000/svg" xmlns:xlink="http://www.w3.org/1999/xlink" x="0px" y="0px"
	 viewBox="0 0 208.14 136.7" style="enable-background:new 0 0 208.14 136.7;" xml:space="preserve" width="120" height="77">
<style type="text/css">
	.st0{fill-rule:evenodd;clip-rule:evenodd;fill:#10B158;}
	.st1{fill-rule:evenodd;clip-rule:evenodd;fill:#046EB6;}
	.st2{fill:none;stroke:#046EB6;stroke-width:1.2559;stroke-miterlimit:10;}
	.st3{fill:#046EB6;}
	.st4{fill:#26B258;}
	.st5{font-family:'Montserrat-Bold';}
	.st6{font-size:8.1689px;}
</style>
<g>
	<g>
		<g>
			<polygon class="st0" points="95.92,24.88 128.62,24.88 128.62,13.81 95.92,13.81 95.92,24.88 			"/>
			<polygon class="st0" points="107.4,44.23 128.62,44.23 128.62,33.12 107.4,33.12 107.4,44.23 			"/>
			<path class="st1" d="M118.7,63.79l-10.58-18.12c3.59-3.34,5.92-8.13,5.92-13.46c0-10.13-8.25-18.39-18.37-18.39H78.64v11.07
				c7.22,0,10.15,0,17.23,0c3.99,0,7.19,3.19,7.19,7.19c0,4-3.2,7.13-7.19,7.13h-6.19v11.32h6.19l7.72,13.27H118.7L118.7,63.79z"/>
		</g>
		<rect x="70.75" y="5.92" class="st2" width="65.76" height="65.76"/>
	</g>
	<g>
		<path class="st3" d="M21.83,110.25l-4.28-6.18H17.3h-4.47v6.18H7.7V88.08h9.6c1.96,0,3.67,0.33,5.12,0.98
			c1.45,0.65,2.56,1.58,3.34,2.79c0.78,1.2,1.17,2.63,1.17,4.28c0,1.65-0.4,3.07-1.19,4.26c-0.79,1.19-1.92,2.11-3.37,2.74
			l4.97,7.13H21.83z M20.53,93.26c-0.8-0.67-1.98-1-3.52-1h-4.18v7.73h4.18c1.54,0,2.71-0.34,3.52-1.01c0.8-0.67,1.2-1.63,1.2-2.85
			C21.74,94.88,21.34,93.92,20.53,93.26z"/>
		<path class="st3" d="M45.59,105.5H35.3l-1.96,4.75h-5.26l9.88-22.17h5.07l9.92,22.17h-5.39L45.59,105.5z M43.98,101.6l-3.52-8.49
			l-3.52,8.49H43.98z"/>
		<path class="st3" d="M58.74,92.26h-7.1v-4.18h19.32v4.18h-7.1v17.99h-5.13V92.26z"/>
		<path class="st3" d="M94.06,88.08v22.17h-4.21L78.79,96.79v13.46h-5.07V88.08h4.25l11.02,13.46V88.08H94.06z"/>
		<path class="st3" d="M113.92,105.5h-10.3l-1.96,4.75H96.4l9.88-22.17h5.07l9.92,22.17h-5.39L113.92,105.5z M112.31,101.6
			l-3.52-8.49l-3.52,8.49H112.31z"/>
		<path class="st3" d="M138.92,105.5h-10.3l-1.96,4.75h-5.26l9.88-22.17h5.07l9.92,22.17h-5.39L138.92,105.5z M137.3,101.6
			l-3.52-8.49l-3.52,8.49H137.3z"/>
		<path class="st3" d="M153.71,92.2v5.86h10.26v4.12h-10.26v8.08h-5.13V88.08h16.76v4.12H153.71z"/>
		<path class="st3" d="M168.82,88.08h5.13v22.17h-5.13V88.08z"/>
		<path class="st3" d="M199.55,88.08v22.17h-4.21l-11.06-13.46v13.46h-5.07V88.08h4.25l11.02,13.46V88.08H199.55z"/>
	</g>
	<g>
		<text transform="matrix(1 0 0 1 6.586 128.9443)" class="st4 st5 st6">Advising</text>
		<text transform="matrix(1 0 0 1 57.8643 128.9614)" class="st4 st5 st6">Insurance Broking</text>
		<text transform="matrix(1 0 0 1 161.3975 128.9438)" class="st4 st5 st6">Lending</text>
		<circle class="st4" cx="53.17" cy="126.33" r="1.09"/>
		<circle class="st4" cx="157.07" cy="126.33" r="1.09"/>
	</g>
</g>
</svg>
