<svg xmlnsDc="http://purl.org/dc/elements/1.1/" xmlnsCc="http://creativecommons.org/ns#" xmlnsRdf="http://www.w3.org/1999/02/22-rdf-syntax-ns#" xmlnsSvg="http://www.w3.org/2000/svg" xmlns="http://www.w3.org/2000/svg" version="1.1" viewBox="0 0 100 125" xmlSpace="preserve" x="0px" y="0px">
    <path d="M 7.03125,7.65625 C 5.9491743,7.6545365 5,9.0437473 5,10.25 l 0,63.65625 c 0,1.378563 1.2349224,1.952176 2.5,2.5 C 19.699269,81.688904 44.09375,92.25 44.09375,92.25 c 1.265077,0.547823 2.46875,-1.12142 2.46875,-2.5 l 0,-13.25 10.5,0 c 4.599207,0 8.375,-3.775776 8.375,-8.375 l 0,-16.96875 -5.46875,0 0,16.96875 c 0,1.665797 -1.240385,2.90625 -2.90625,2.90625 l -10.5,0 0,-44.9375 c 0,-1.378563 -1.203673,-1.952159 -2.46875,-2.5 l -24.125,-10.4375 37.09375,0 c 1.665865,0 2.90625,1.271703 2.90625,2.9375 l 0,15.25 c 1.822137,0.0027 3.646271,0.01625 5.46875,0.03125 l 0,-15.28125 c 0,-4.599225 -3.775793,-8.40625 -8.375,-8.40625 -3.953904,0 -33.352718,-0.016856 -50.03125,-0.03125 z" style="text-indent:0;text-transform:none;direction:ltr;block-progression:tb;baseline-shift:baseline;color:#000000;enable-background:accumulate;" fill="#000000" fillOpacity="1" stroke="none" marker="none" visibility="visible" display="inline" overflow="visible">
    </path>
    <path d="M 75.625,22.0625 C 75.372087,22.0661 75.15625,22.278303 75.15625,22.53125 l 0,11.25 -24.34375,0 c -0.562542,0 -1,0.643785 -1,1.46875 l 0,12.03125 c 0,0.824982 0.437458,1.46875 1,1.46875 l 24.34375,0 0,11.25 c 0.0017,0.189787 0.10613,0.364659 0.28125,0.4375 0.175291,0.07282 0.395541,0.03888 0.53125,-0.09375 L 94.875,41.625 c 0.181974,-0.180705 0.181974,-0.538061 0,-0.71875 L 75.96875,22.1875 C 75.87793,22.09641 75.753684,22.061797 75.625,22.0625 z" style="text-indent:0;text-transform:none;direction:ltr;block-progression:tb;baseline-shift:baseline;color:#000000;enable-background:accumulate;" fill="#000000" fillOpacity="1" stroke="none" marker="none" visibility="visible" display="inline" overflow="visible">
        <animateTransform attributeName="transform" type="translate" values="0,0;5,0;0,0;-2,0;0,0" dur="1.75s" repeatCount="indefinite"/>
    </path>
</svg>
