<svg width="40" height="40" viewBox="0 0 40 40" fill="none" xmlns="http://www.w3.org/2000/svg">
<g id="Group 1171276136">
<rect id="Rectangle 34624221" width="40" height="40" fill="white">
                                    </rect>
<g id="Group 1171276134">
<g id="Group 1171276132">
<g id="Group 1171276131">
<path id="Vector 687" d="M6 6V34H32V13.375L23.3333 4H8C6.89543 4 6 4.89543 6 6Z" fill="white" stroke="#2253BD"/>
<path id="Vector 688" d="M31.5357 13.375L23.1786 4.46875V11.375C23.1786 12.4796 24.074 13.375 25.1786 13.375H31.5357Z" fill="url(#paint0_linear_54_256)"/>
</g>
<path id="Vector 689" d="M9.71423 8.21875L18.5357 8.21875M9.71423 11.0312L18.5357 11.0312M9.71423 16.1875L28.2857 16.1875M9.71423 20.4062L28.2857 20.4062" stroke="#FFAF65" stroke-width="0.45">
                                    <animate attributeName="d" values="M9.71423 8.21875L18.5357 8.21875M9.71423 11.0312L18.5357 11.0312M9.71423 16.1875L28.2857 16.1875M9.71423 20.4062L28.2857 20.4062;M9.71423 8.21875L15.5357 8.21875M9.71423 11.0312L21.5357 11.0312M16.7142 16.1875L28.2857 16.1875M9.71423 20.4062L23.2857 20.4062;M9.71423 8.21875L18.5357 8.21875M9.71423 11.0312L18.5357 11.0312M9.71423 16.1875L28.2857 16.1875M9.71423 20.4062L28.2857 20.4062" begin="0s" dur="3s" repeatCount="indefinite" fill="freeze" calcMode="linear" keyTimes="0;0.5;1"/>
                                    <animate attributeName="stroke" values="#FFAF65;#CECECE;#FFAF65" begin="0s" dur="3s" repeatCount="indefinite" fill="freeze" calcMode="linear" keyTimes="0;0.5;1"/></path>
</g>
<g id="Group 1171276133">
<g id="Vector 690">
<path d="M4.98857 25.322L5.33345 25.3181C5.34159 24.7728 5.78614 24.3333 6.33333 24.3333L20.6667 24.3333C21.219 24.3333 21.6667 24.781 21.6667 25.3333L21.6667 33C21.6667 33.5523 21.219 34 20.6667 34C20.6667 34.5523 20.219 35 19.6667 35L5 35C4.44771 35 4 34.5523 4 34L4 26.322C4 25.7741 4.44078 25.3283 4.98857 25.322Z" fill="url(#paint1_linear_54_256)">
                                    <animate attributeName="d" values="M4.98857 25.322L5.33345 25.3181C5.34159 24.7728 5.78614 24.3333 6.33333 24.3333L20.6667 24.3333C21.219 24.3333 21.6667 24.781 21.6667 25.3333L21.6667 33C21.6667 33.5523 21.219 34 20.6667 34C20.6667 34.5523 20.219 35 19.6667 35L5 35C4.44771 35 4 34.5523 4 34L4 26.322C4 25.7741 4.44078 25.3283 4.98857 25.322Z;M4.98857 26.322L5.33345 26.3181C5.34159 25.7728 5.78614 25.3333 6.33333 25.3333L20.6667 25.3333C21.219 25.3333 21.6667 25.781 21.6667 26.3333L21.6667 34C21.6667 34.5523 21.219 35 20.6667 35C20.6667 35.5523 20.219 36 19.6667 36L5 36C4.44771 36 4 35.5523 4 35L4 27.322C4 26.7741 4.44078 26.3283 4.98857 26.322Z;M4.98857 25.322L5.33345 25.3181C5.34159 24.7728 5.78614 24.3333 6.33333 24.3333L20.6667 24.3333C21.219 24.3333 21.6667 24.781 21.6667 25.3333L21.6667 33C21.6667 33.5523 21.219 34 20.6667 34C20.6667 34.5523 20.219 35 19.6667 35L5 35C4.44771 35 4 34.5523 4 34L4 26.322C4 25.7741 4.44078 25.3283 4.98857 25.322Z" begin="0s" dur="3s" repeatCount="indefinite" fill="freeze" calcMode="linear" keyTimes="0;0.5;1"/></path>
<path d="M20.6973 24.2888L6 24.3333C6 23.597 6.59695 23 7.33333 23L22 23C22.5523 23 23 23.4477 23 24L23 32C23 32.7364 22.403 33.3333 21.6667 33.3333L21.7003 25.293C21.7027 24.7378 21.2524 24.2871 20.6973 24.2888Z" fill="url(#paint2_linear_54_256)">
                                    <animate attributeName="d" values="M20.6973 24.2888L6 24.3333C6 23.597 6.59695 23 7.33333 23L22 23C22.5523 23 23 23.4477 23 24L23 32C23 32.7364 22.403 33.3333 21.6667 33.3333L21.7003 25.293C21.7027 24.7378 21.2524 24.2871 20.6973 24.2888Z;M20.6973 25.2888L6 25.3333C6 24.597 6.59695 24 7.33333 24L22 24C22.5523 24 23 24.4477 23 25L23 33C23 33.7364 22.403 34.3333 21.6667 34.3333L21.7003 26.293C21.7027 25.7378 21.2524 25.2871 20.6973 25.2888Z;M20.6973 24.2888L6 24.3333C6 23.597 6.59695 23 7.33333 23L22 23C22.5523 23 23 23.4477 23 24L23 32C23 32.7364 22.403 33.3333 21.6667 33.3333L21.7003 25.293C21.7027 24.7378 21.2524 24.2871 20.6973 24.2888Z" begin="0s" dur="3s" repeatCount="indefinite" fill="freeze" calcMode="linear" keyTimes="0;0.5;1"/></path>
<path d="M6.33333 27L18 27C18.0283 27.8301 18.3127 28.1267 19.3333 28.3333L19.3333 32.6667C18.461 32.6336 18.1545 32.8348 18 33.6667L6.33333 33.6667C6.36662 32.8799 6.09766 32.7072 5.33333 32.6667L5.33333 28.3333C6.22465 28.0817 6.40269 27.7664 6.33333 27ZM7.33333 28.3333L17.3333 28.3333C17.4606 28.8541 17.6268 28.9594 18 29L18 31.6667C17.4039 31.9074 17.258 32.1315 17.3333 32.6667L7.33333 32.6667C7.15845 32.2093 7.00021 32.0076 6.33333 32L6.33333 29C6.83649 28.9959 7.05057 28.8483 7.33333 28.3333ZM5.33333 25.3333L19.6667 25.3333C20.219 25.3333 20.6667 25.781 20.6667 26.3333L20.6667 34L20.6667 34C21.219 34 21.6667 33.5523 21.6667 33L21.6667 25.3333C21.6667 24.781 21.219 24.3333 20.6667 24.3333L6.33333 24.3333C5.78105 24.3333 5.33333 24.781 5.33333 25.3333L5.33333 25.3333ZM6 24.3333L20.6973 24.2888C21.2524 24.2871 21.7027 24.7378 21.7003 25.293L21.6667 33.3333L21.6667 33.3333C22.403 33.3333 23 32.7364 23 32L23 24C23 23.4477 22.5523 23 22 23L7.33333 23C6.59695 23 6 23.597 6 24.3333L6 24.3333ZM20.6667 34L20.6667 26.1544C20.6667 25.5976 20.212 25.1481 19.6552 25.1544L4.98857 25.322C4.44078 25.3283 4 25.7741 4 26.322L4 34C4 34.5523 4.44771 35 5 35L19.6667 35C20.219 35 20.6667 34.5523 20.6667 34Z" stroke="white" stroke-width="0.25">
                                    <animate attributeName="d" values="M6.33333 27L18 27C18.0283 27.8301 18.3127 28.1267 19.3333 28.3333L19.3333 32.6667C18.461 32.6336 18.1545 32.8348 18 33.6667L6.33333 33.6667C6.36662 32.8799 6.09766 32.7072 5.33333 32.6667L5.33333 28.3333C6.22465 28.0817 6.40269 27.7664 6.33333 27ZM7.33333 28.3333L17.3333 28.3333C17.4606 28.8541 17.6268 28.9594 18 29L18 31.6667C17.4039 31.9074 17.258 32.1315 17.3333 32.6667L7.33333 32.6667C7.15845 32.2093 7.00021 32.0076 6.33333 32L6.33333 29C6.83649 28.9959 7.05057 28.8483 7.33333 28.3333ZM5.33333 25.3333L19.6667 25.3333C20.219 25.3333 20.6667 25.781 20.6667 26.3333L20.6667 34L20.6667 34C21.219 34 21.6667 33.5523 21.6667 33L21.6667 25.3333C21.6667 24.781 21.219 24.3333 20.6667 24.3333L6.33333 24.3333C5.78105 24.3333 5.33333 24.781 5.33333 25.3333L5.33333 25.3333ZM6 24.3333L20.6973 24.2888C21.2524 24.2871 21.7027 24.7378 21.7003 25.293L21.6667 33.3333L21.6667 33.3333C22.403 33.3333 23 32.7364 23 32L23 24C23 23.4477 22.5523 23 22 23L7.33333 23C6.59695 23 6 23.597 6 24.3333L6 24.3333ZM20.6667 34L20.6667 26.1544C20.6667 25.5976 20.212 25.1481 19.6552 25.1544L4.98857 25.322C4.44078 25.3283 4 25.7741 4 26.322L4 34C4 34.5523 4.44771 35 5 35L19.6667 35C20.219 35 20.6667 34.5523 20.6667 34Z;M6.33333 28L18 28C18.0283 28.8301 18.3127 29.1267 19.3333 29.3333L19.3333 33.6667C18.461 33.6336 18.1545 33.8348 18 34.6667L6.33333 34.6667C6.36662 33.8799 6.09766 33.7072 5.33333 33.6667L5.33333 29.3333C6.22465 29.0817 6.40269 28.7664 6.33333 28ZM7.33333 29.3333L17.3333 29.3333C17.4606 29.8541 17.6268 29.9594 18 30L18 32.6667C17.4039 32.9074 17.258 33.1315 17.3333 33.6667L7.33333 33.6667C7.15845 33.2093 7.00021 33.0076 6.33333 33L6.33333 30C6.83649 29.9959 7.05057 29.8483 7.33333 29.3333ZM5.33333 26.3333L19.6667 26.3333C20.219 26.3333 20.6667 26.781 20.6667 27.3333L20.6667 35L20.6667 35C21.219 35 21.6667 34.5523 21.6667 34L21.6667 26.3333C21.6667 25.781 21.219 25.3333 20.6667 25.3333L6.33333 25.3333C5.78105 25.3333 5.33333 25.781 5.33333 26.3333L5.33333 26.3333ZM6 25.3333L20.6973 25.2888C21.2524 25.2871 21.7027 25.7378 21.7003 26.293L21.6667 34.3333L21.6667 34.3333C22.403 34.3333 23 33.7364 23 33L23 25C23 24.4477 22.5523 24 22 24L7.33333 24C6.59695 24 6 24.597 6 25.3333L6 25.3333ZM20.6667 35L20.6667 27.1544C20.6667 26.5976 20.212 26.1481 19.6552 26.1544L4.98857 26.322C4.44078 26.3283 4 26.7741 4 27.322L4 35C4 35.5523 4.44771 36 5 36L19.6667 36C20.219 36 20.6667 35.5523 20.6667 35Z;M6.33333 27L18 27C18.0283 27.8301 18.3127 28.1267 19.3333 28.3333L19.3333 32.6667C18.461 32.6336 18.1545 32.8348 18 33.6667L6.33333 33.6667C6.36662 32.8799 6.09766 32.7072 5.33333 32.6667L5.33333 28.3333C6.22465 28.0817 6.40269 27.7664 6.33333 27ZM7.33333 28.3333L17.3333 28.3333C17.4606 28.8541 17.6268 28.9594 18 29L18 31.6667C17.4039 31.9074 17.258 32.1315 17.3333 32.6667L7.33333 32.6667C7.15845 32.2093 7.00021 32.0076 6.33333 32L6.33333 29C6.83649 28.9959 7.05057 28.8483 7.33333 28.3333ZM5.33333 25.3333L19.6667 25.3333C20.219 25.3333 20.6667 25.781 20.6667 26.3333L20.6667 34L20.6667 34C21.219 34 21.6667 33.5523 21.6667 33L21.6667 25.3333C21.6667 24.781 21.219 24.3333 20.6667 24.3333L6.33333 24.3333C5.78105 24.3333 5.33333 24.781 5.33333 25.3333L5.33333 25.3333ZM6 24.3333L20.6973 24.2888C21.2524 24.2871 21.7027 24.7378 21.7003 25.293L21.6667 33.3333L21.6667 33.3333C22.403 33.3333 23 32.7364 23 32L23 24C23 23.4477 22.5523 23 22 23L7.33333 23C6.59695 23 6 23.597 6 24.3333L6 24.3333ZM20.6667 34L20.6667 26.1544C20.6667 25.5976 20.212 25.1481 19.6552 25.1544L4.98857 25.322C4.44078 25.3283 4 25.7741 4 26.322L4 34C4 34.5523 4.44771 35 5 35L19.6667 35C20.219 35 20.6667 34.5523 20.6667 34Z" begin="0s" dur="3s" repeatCount="indefinite" fill="freeze" calcMode="linear" keyTimes="0;0.5;1"/></path>
</g>
<g id="Group 1171276124">
<path id="Vector" d="M12.0011 28.4769C11.6055 28.478 11.2192 28.5974 10.8909 28.8199C10.5626 29.0424 10.3071 29.3582 10.1567 29.7272C10.0063 30.0962 9.96782 30.5019 10.046 30.8929C10.1243 31.284 10.3157 31.6429 10.5962 31.9243C10.8767 32.2056 11.2335 32.3968 11.6217 32.4736C12.0099 32.5503 12.4119 32.5093 12.777 32.3556C13.142 32.202 13.4536 31.9426 13.6725 31.6103C13.8914 31.278 14.0076 30.8876 14.0065 30.4887C14.0046 29.9539 13.7923 29.4417 13.4163 29.0645C13.0403 28.6873 12.5314 28.476 12.0011 28.4769Z" fill="url(#paint3_radial_54_256)">
                                    <animate attributeName="d" values="M12.0011 28.4769C11.6055 28.478 11.2192 28.5974 10.8909 28.8199C10.5626 29.0424 10.3071 29.3582 10.1567 29.7272C10.0063 30.0962 9.96782 30.5019 10.046 30.8929C10.1243 31.284 10.3157 31.6429 10.5962 31.9243C10.8767 32.2056 11.2335 32.3968 11.6217 32.4736C12.0099 32.5503 12.4119 32.5093 12.777 32.3556C13.142 32.202 13.4536 31.9426 13.6725 31.6103C13.8914 31.278 14.0076 30.8876 14.0065 30.4887C14.0046 29.9539 13.7923 29.4417 13.4163 29.0645C13.0403 28.6873 12.5314 28.476 12.0011 28.4769Z;M12.0011 29.4769C11.6055 29.478 11.2192 29.5974 10.8909 29.8199C10.5626 30.0424 10.3071 30.3582 10.1567 30.7272C10.0063 31.0962 9.96782 31.5019 10.046 31.8929C10.1243 32.284 10.3157 32.6429 10.5962 32.9243C10.8767 33.2056 11.2335 33.3968 11.6217 33.4736C12.0099 33.5503 12.4119 33.5093 12.777 33.3556C13.142 33.202 13.4536 32.9426 13.6725 32.6103C13.8914 32.278 14.0076 31.8876 14.0065 31.4887C14.0046 30.9539 13.7923 30.4417 13.4163 30.0645C13.0403 29.6873 12.5314 29.476 12.0011 29.4769Z;M12.0011 28.4769C11.6055 28.478 11.2192 28.5974 10.8909 28.8199C10.5626 29.0424 10.3071 29.3582 10.1567 29.7272C10.0063 30.0962 9.96782 30.5019 10.046 30.8929C10.1243 31.284 10.3157 31.6429 10.5962 31.9243C10.8767 32.2056 11.2335 32.3968 11.6217 32.4736C12.0099 32.5503 12.4119 32.5093 12.777 32.3556C13.142 32.202 13.4536 31.9426 13.6725 31.6103C13.8914 31.278 14.0076 30.8876 14.0065 30.4887C14.0046 29.9539 13.7923 29.4417 13.4163 29.0645C13.0403 28.6873 12.5314 28.476 12.0011 28.4769Z" begin="0s" dur="3s" repeatCount="indefinite" fill="freeze" calcMode="linear" keyTimes="0;0.5;1"/></path>
<g id="$" filter="url(#filter0_d_54_256)">
<path d="M11.9909 31.749L11.9838 29.1293L12.1502 29.1289L12.1573 31.7486L11.9909 31.749ZM12.5065 29.9405C12.4954 29.8436 12.4506 29.7687 12.372 29.7157C12.2934 29.662 12.1945 29.6353 12.0755 29.6356C11.9903 29.6359 11.9166 29.6497 11.8544 29.6772C11.7923 29.7039 11.744 29.7409 11.7096 29.7881C11.6759 29.8346 11.6592 29.8875 11.6593 29.9468C11.6595 29.9966 11.6711 30.0396 11.6942 30.0757C11.7179 30.1118 11.7488 30.142 11.7868 30.1665C11.8254 30.1903 11.8667 30.2103 11.9107 30.2265C11.9547 30.2421 11.997 30.255 12.0376 30.2651L12.2407 30.3178C12.307 30.3339 12.3751 30.3559 12.4448 30.3837C12.5146 30.4115 12.5792 30.4482 12.6389 30.4937C12.6985 30.5393 12.7467 30.5958 12.7834 30.6632C12.8208 30.7306 12.8396 30.8114 12.8399 30.9056C12.8402 31.0243 12.8101 31.1298 12.7494 31.222C12.6895 31.3143 12.6021 31.3872 12.4872 31.4407C12.3731 31.4942 12.2348 31.5212 12.0725 31.5216C11.9169 31.5221 11.7822 31.4975 11.6685 31.448C11.5547 31.3985 11.4656 31.3282 11.401 31.2369C11.3365 31.145 11.3007 31.0359 11.2936 30.9097L11.6082 30.9089C11.6144 30.9846 11.639 31.0476 11.6817 31.098C11.7251 31.1477 11.7804 31.1847 11.8474 31.2091C11.9151 31.2328 11.9892 31.2445 12.0697 31.2443C12.1583 31.2441 12.2371 31.2299 12.306 31.2017C12.3756 31.1729 12.4303 31.1332 12.47 31.0826C12.5098 31.0313 12.5296 30.9716 12.5294 30.9033C12.5292 30.8413 12.5115 30.7905 12.4762 30.751C12.4416 30.7115 12.3945 30.6789 12.3349 30.6531C12.276 30.6274 12.2093 30.6047 12.1349 30.5851L11.8892 30.5183C11.7226 30.473 11.5906 30.4062 11.4929 30.3177C11.396 30.2293 11.3473 30.1121 11.3469 29.9661C11.3466 29.8453 11.3787 29.7399 11.4434 29.6496C11.5081 29.5594 11.5959 29.4892 11.7067 29.4391C11.8175 29.3884 11.9425 29.3628 12.0819 29.3624C12.2225 29.362 12.3467 29.3866 12.4544 29.4361C12.5628 29.4856 12.6482 29.5539 12.7107 29.6411C12.7731 29.7276 12.8059 29.8271 12.8089 29.9396L12.5065 29.9405Z" fill="white">
                                    <animate attributeName="d" values="M11.9909 31.749L11.9838 29.1293L12.1502 29.1289L12.1573 31.7486L11.9909 31.749ZM12.5065 29.9405C12.4954 29.8436 12.4506 29.7687 12.372 29.7157C12.2934 29.662 12.1945 29.6353 12.0755 29.6356C11.9903 29.6359 11.9166 29.6497 11.8544 29.6772C11.7923 29.7039 11.744 29.7409 11.7096 29.7881C11.6759 29.8346 11.6592 29.8875 11.6593 29.9468C11.6595 29.9966 11.6711 30.0396 11.6942 30.0757C11.7179 30.1118 11.7488 30.142 11.7868 30.1665C11.8254 30.1903 11.8667 30.2103 11.9107 30.2265C11.9547 30.2421 11.997 30.255 12.0376 30.2651L12.2407 30.3178C12.307 30.3339 12.3751 30.3559 12.4448 30.3837C12.5146 30.4115 12.5792 30.4482 12.6389 30.4937C12.6985 30.5393 12.7467 30.5958 12.7834 30.6632C12.8208 30.7306 12.8396 30.8114 12.8399 30.9056C12.8402 31.0243 12.8101 31.1298 12.7494 31.222C12.6895 31.3143 12.6021 31.3872 12.4872 31.4407C12.3731 31.4942 12.2348 31.5212 12.0725 31.5216C11.9169 31.5221 11.7822 31.4975 11.6685 31.448C11.5547 31.3985 11.4656 31.3282 11.401 31.2369C11.3365 31.145 11.3007 31.0359 11.2936 30.9097L11.6082 30.9089C11.6144 30.9846 11.639 31.0476 11.6817 31.098C11.7251 31.1477 11.7804 31.1847 11.8474 31.2091C11.9151 31.2328 11.9892 31.2445 12.0697 31.2443C12.1583 31.2441 12.2371 31.2299 12.306 31.2017C12.3756 31.1729 12.4303 31.1332 12.47 31.0826C12.5098 31.0313 12.5296 30.9716 12.5294 30.9033C12.5292 30.8413 12.5115 30.7905 12.4762 30.751C12.4416 30.7115 12.3945 30.6789 12.3349 30.6531C12.276 30.6274 12.2093 30.6047 12.1349 30.5851L11.8892 30.5183C11.7226 30.473 11.5906 30.4062 11.4929 30.3177C11.396 30.2293 11.3473 30.1121 11.3469 29.9661C11.3466 29.8453 11.3787 29.7399 11.4434 29.6496C11.5081 29.5594 11.5959 29.4892 11.7067 29.4391C11.8175 29.3884 11.9425 29.3628 12.0819 29.3624C12.2225 29.362 12.3467 29.3866 12.4544 29.4361C12.5628 29.4856 12.6482 29.5539 12.7107 29.6411C12.7731 29.7276 12.8059 29.8271 12.8089 29.9396L12.5065 29.9405Z;M11.9194 32.9736L11.9114 29.9982L12.1214 29.9977L12.1294 32.973L11.9194 32.9736ZM12.5707 30.9193C12.5567 30.8093 12.5002 30.7242 12.401 30.664C12.3018 30.6031 12.1771 30.5728 12.0269 30.5732C11.9194 30.5735 11.8264 30.5893 11.7479 30.6205C11.6695 30.6509 11.6086 30.6929 11.5652 30.7465C11.5227 30.7993 11.5015 30.8594 11.5017 30.9268C11.5018 30.9834 11.5165 31.0322 11.5456 31.0731C11.5756 31.1141 11.6145 31.1485 11.6624 31.1763C11.7111 31.2033 11.7632 31.226 11.8188 31.2444C11.8743 31.2621 11.9277 31.2767 11.9789 31.2881L12.2351 31.3479C12.3188 31.3663 12.4047 31.3912 12.4927 31.4227C12.5807 31.4543 12.6623 31.4959 12.7375 31.5476C12.8128 31.5993 12.8735 31.6635 12.9198 31.74C12.967 31.8166 12.9907 31.9084 12.991 32.0153C12.9914 32.1501 12.9533 32.2699 12.8767 32.3747C12.8011 32.4796 12.6908 32.5624 12.5458 32.6232C12.4018 32.684 12.2273 32.7147 12.0225 32.7153C11.8261 32.7158 11.6562 32.688 11.5127 32.6318C11.3691 32.5756 11.2567 32.4957 11.1753 32.3921C11.094 32.2877 11.0488 32.1639 11.0399 32.0206L11.4368 32.0195C11.4447 32.1055 11.4756 32.1771 11.5295 32.2343C11.5843 32.2907 11.654 32.3327 11.7386 32.3604C11.824 32.3873 11.9175 32.4006 12.019 32.4003C12.1308 32.4 12.2302 32.3839 12.3172 32.3519C12.405 32.3191 12.474 32.2739 12.5242 32.2165C12.5744 32.1582 12.5994 32.0904 12.5992 32.0129C12.599 31.9424 12.5767 31.8847 12.5322 31.8399C12.4885 31.7951 12.4291 31.758 12.3539 31.7288C12.2796 31.6995 12.1955 31.6738 12.1015 31.6516L11.7915 31.5757C11.5814 31.5244 11.4147 31.4485 11.2916 31.3481C11.1692 31.2477 11.1079 31.1146 11.1074 30.9488C11.107 30.8117 11.1477 30.6918 11.2293 30.5893C11.311 30.4868 11.4217 30.4071 11.5616 30.3502C11.7014 30.2925 11.8592 30.2634 12.035 30.2629C12.2126 30.2624 12.3692 30.2903 12.5051 30.3465C12.6418 30.4027 12.7496 30.4802 12.8284 30.5792C12.9072 30.6774 12.9484 30.7904 12.9522 30.9182L12.5707 30.9193Z;M11.9909 31.749L11.9838 29.1293L12.1502 29.1289L12.1573 31.7486L11.9909 31.749ZM12.5065 29.9405C12.4954 29.8436 12.4506 29.7687 12.372 29.7157C12.2934 29.662 12.1945 29.6353 12.0755 29.6356C11.9903 29.6359 11.9166 29.6497 11.8544 29.6772C11.7923 29.7039 11.744 29.7409 11.7096 29.7881C11.6759 29.8346 11.6592 29.8875 11.6593 29.9468C11.6595 29.9966 11.6711 30.0396 11.6942 30.0757C11.7179 30.1118 11.7488 30.142 11.7868 30.1665C11.8254 30.1903 11.8667 30.2103 11.9107 30.2265C11.9547 30.2421 11.997 30.255 12.0376 30.2651L12.2407 30.3178C12.307 30.3339 12.3751 30.3559 12.4448 30.3837C12.5146 30.4115 12.5792 30.4482 12.6389 30.4937C12.6985 30.5393 12.7467 30.5958 12.7834 30.6632C12.8208 30.7306 12.8396 30.8114 12.8399 30.9056C12.8402 31.0243 12.8101 31.1298 12.7494 31.222C12.6895 31.3143 12.6021 31.3872 12.4872 31.4407C12.3731 31.4942 12.2348 31.5212 12.0725 31.5216C11.9169 31.5221 11.7822 31.4975 11.6685 31.448C11.5547 31.3985 11.4656 31.3282 11.401 31.2369C11.3365 31.145 11.3007 31.0359 11.2936 30.9097L11.6082 30.9089C11.6144 30.9846 11.639 31.0476 11.6817 31.098C11.7251 31.1477 11.7804 31.1847 11.8474 31.2091C11.9151 31.2328 11.9892 31.2445 12.0697 31.2443C12.1583 31.2441 12.2371 31.2299 12.306 31.2017C12.3756 31.1729 12.4303 31.1332 12.47 31.0826C12.5098 31.0313 12.5296 30.9716 12.5294 30.9033C12.5292 30.8413 12.5115 30.7905 12.4762 30.751C12.4416 30.7115 12.3945 30.6789 12.3349 30.6531C12.276 30.6274 12.2093 30.6047 12.1349 30.5851L11.8892 30.5183C11.7226 30.473 11.5906 30.4062 11.4929 30.3177C11.396 30.2293 11.3473 30.1121 11.3469 29.9661C11.3466 29.8453 11.3787 29.7399 11.4434 29.6496C11.5081 29.5594 11.5959 29.4892 11.7067 29.4391C11.8175 29.3884 11.9425 29.3628 12.0819 29.3624C12.2225 29.362 12.3467 29.3866 12.4544 29.4361C12.5628 29.4856 12.6482 29.5539 12.7107 29.6411C12.7731 29.7276 12.8059 29.8271 12.8089 29.9396L12.5065 29.9405Z" begin="0s" dur="3s" repeatCount="indefinite" fill="freeze" calcMode="linear" keyTimes="0;0.5;1"/></path>
</g>
</g>
</g>
<path id="Vector 691" d="M29.9445 30.8665L30.2703 24.7889C30.2939 24.3468 30.6759 24 31.139 24L31.3262 24C31.7893 24 32.1712 24.3468 32.1949 24.7889L32.5206 30.8665L33.7559 29.6661C34.2839 29.1529 35.1547 29.1699 35.6604 29.7031C36.0686 30.1334 36.1136 30.7754 35.7693 31.254L32.8731 35.2794C32.1755 36.2489 30.6741 36.2382 29.9918 35.2589L27.211 31.2677C26.8755 30.7862 26.9462 30.1446 27.3794 29.7405C27.9458 29.212 28.876 29.3089 29.3101 29.9417L29.9445 30.8665Z" fill="url(#paint4_linear_54_256)">
                                    <animate attributeName="d" values="M29.9445 30.8665L30.2703 24.7889C30.2939 24.3468 30.6759 24 31.139 24L31.3262 24C31.7893 24 32.1712 24.3468 32.1949 24.7889L32.5206 30.8665L33.7559 29.6661C34.2839 29.1529 35.1547 29.1699 35.6604 29.7031C36.0686 30.1334 36.1136 30.7754 35.7693 31.254L32.8731 35.2794C32.1755 36.2489 30.6741 36.2382 29.9918 35.2589L27.211 31.2677C26.8755 30.7862 26.9462 30.1446 27.3794 29.7405C27.9458 29.212 28.876 29.3089 29.3101 29.9417L29.9445 30.8665Z;M29.9445 28.8665L30.2703 22.7889C30.2939 22.3468 30.6759 22 31.139 22L31.3262 22C31.7893 22 32.1712 22.3468 32.1949 22.7889L32.5206 28.8665L33.7559 27.6661C34.2839 27.1529 35.1547 27.1699 35.6604 27.7031C36.0686 28.1334 36.1136 28.7754 35.7693 29.254L32.8813 34.0205C32.1838 34.9901 30.6824 34.9794 30 34L27.211 29.2677C26.8755 28.7862 26.9462 28.1446 27.3794 27.7405C27.9458 27.212 28.876 27.3089 29.3101 27.9417L29.9445 28.8665Z;M29.9445 30.8665L30.2703 24.7889C30.2939 24.3468 30.6759 24 31.139 24L31.3262 24C31.7893 24 32.1712 24.3468 32.1949 24.7889L32.5206 30.8665L33.7559 29.6661C34.2839 29.1529 35.1547 29.1699 35.6604 29.7031C36.0686 30.1334 36.1136 30.7754 35.7693 31.254L32.8731 35.2794C32.1755 36.2489 30.6741 36.2382 29.9918 35.2589L27.211 31.2677C26.8755 30.7862 26.9462 30.1446 27.3794 29.7405C27.9458 29.212 28.876 29.3089 29.3101 29.9417L29.9445 30.8665Z" begin="0s" dur="3s" repeatCount="indefinite" fill="freeze" calcMode="linear" keyTimes="0;0.5;1"/></path>

                                    </g>

                                    </g>
<defs>
<filter id="filter0_d_54_256" x="7.29358" y="25.1289" width="9.54626" height="10.6201" filterUnits="userSpaceOnUse" color-interpolation-filters="sRGB">
<feFlood flood-opacity="0" result="BackgroundImageFix"/>
<feColorMatrix in="SourceAlpha" type="matrix" values="0 0 0 0 0 0 0 0 0 0 0 0 0 0 0 0 0 0 127 0" result="hardAlpha"/>
<feOffset/>
<feGaussianBlur stdDeviation="2"/>
<feComposite in2="hardAlpha" operator="out"/>
<feColorMatrix type="matrix" values="0 0 0 0 0 0 0 0 0 0 0 0 0 0 0 0 0 0 0.25 0"/>
<feBlend mode="normal" in2="BackgroundImageFix" result="effect1_dropShadow_54_256">
                                    </feBlend>
<feBlend mode="normal" in="SourceGraphic" in2="effect1_dropShadow_54_256" result="shape">
                                    </feBlend>

                                    
                                    <animate attributeName="x" values="7.29358;7.03992;7.29358" begin="0s" dur="3s" repeatCount="indefinite" fill="freeze" calcMode="linear" keyTimes="0;0.5;1"/>
                                    <animate attributeName="y" values="25.1289;25.9977;25.1289" begin="0s" dur="3s" repeatCount="indefinite" fill="freeze" calcMode="linear" keyTimes="0;0.5;1"/>
                                    <animate attributeName="width" values="9.54626;9.95105;9.54626" begin="0s" dur="3s" repeatCount="indefinite" fill="freeze" calcMode="linear" keyTimes="0;0.5;1"/>
                                    <animate attributeName="height" values="10.6201;10.9759;10.6201" begin="0s" dur="3s" repeatCount="indefinite" fill="freeze" calcMode="linear" keyTimes="0;0.5;1"/></filter>
<linearGradient id="paint0_linear_54_256" x1="25.9643" y1="7.28125" x2="18.4693" y2="14.2409" gradientUnits="userSpaceOnUse">
<stop stop-color="#2253BD"/>
<stop offset="1" stop-color="#0995FB"/>

                                    </linearGradient>
<linearGradient id="paint1_linear_54_256" x1="12.1667" y1="25.6667" x2="12.1667" y2="35" gradientUnits="userSpaceOnUse">
<stop stop-color="#7ED63F"/>
<stop offset="1" stop-color="#409801"/>

                                    
                                    <animate attributeName="y1" values="25.6667;26.6667;25.6667" begin="0s" dur="3s" repeatCount="indefinite" fill="freeze" calcMode="linear" keyTimes="0;0.5;1"/>
                                    <animate attributeName="y2" values="35;36;35" begin="0s" dur="3s" repeatCount="indefinite" fill="freeze" calcMode="linear" keyTimes="0;0.5;1"/></linearGradient>
<linearGradient id="paint2_linear_54_256" x1="12.1667" y1="25.6667" x2="12.1667" y2="35" gradientUnits="userSpaceOnUse">
<stop stop-color="#7ED63F"/>
<stop offset="1" stop-color="#409801"/>

                                    
                                    <animate attributeName="y1" values="25.6667;26.6667;25.6667" begin="0s" dur="3s" repeatCount="indefinite" fill="freeze" calcMode="linear" keyTimes="0;0.5;1"/>
                                    <animate attributeName="y2" values="35;36;35" begin="0s" dur="3s" repeatCount="indefinite" fill="freeze" calcMode="linear" keyTimes="0;0.5;1"/></linearGradient>
<radialGradient id="paint3_radial_54_256" cx="0" cy="0" r="1" gradientUnits="userSpaceOnUse" gradientTransform="translate(9.69216 30.4611) rotate(28.1213) scale(3.40648 3.42265)">
<stop stop-color="#FFD6B0"/>
<stop offset="0.517762" stop-color="#FFA24C"/>
<stop offset="1" stop-color="#EE780B"/>

                                    </radialGradient>
<linearGradient id="paint4_linear_54_256" x1="31.4166" y1="25.2875" x2="31.4166" y2="35.5872" gradientUnits="userSpaceOnUse">
<stop stop-color="#0B4AA4"/>
<stop offset="0.426574" stop-color="#2679D7"/>
<stop offset="1" stop-color="#3FAAEB"/>

                                    
                                    <animate attributeName="y1" values="25.2875;23.2875;25.2875" begin="0s" dur="3s" repeatCount="indefinite" fill="freeze" calcMode="linear" keyTimes="0;0.5;1"/>
                                    <animate attributeName="y2" values="35.5872;33.5872;35.5872" begin="0s" dur="3s" repeatCount="indefinite" fill="freeze" calcMode="linear" keyTimes="0;0.5;1"/></linearGradient>
</defs>
</svg>