<svg width="40" height="40" viewBox="0 0 40 40" fill="none" xmlns="http://www.w3.org/2000/svg">
<g id="Group 1171276160">
<rect id="Rectangle 34624221" width="40" height="40" fill="white">
                                    </rect>
<g id="Group 1171276158">
<g id="Group 1171276124">
<path id="Vector" d="M20 3.99997C18.4178 3.99997 16.871 4.46916 15.5554 5.34821C14.2398 6.22727 13.2145 7.47669 12.609 8.9385C12.0035 10.4003 11.845 12.0088 12.1537 13.5607C12.4624 15.1125 13.2243 16.538 14.3431 17.6568C15.462 18.7756 16.8874 19.5376 18.4393 19.8463C19.9911 20.1549 21.5997 19.9965 23.0615 19.391C24.5233 18.7855 25.7727 17.7601 26.6518 16.4445C27.5308 15.1289 28 13.5822 28 12C27.9979 9.87887 27.1544 7.84524 25.6546 6.3454C24.1547 4.84556 22.1211 4.00204 20 3.99997Z" fill="url(#paint0_radial_80_282)">
                                    <animate attributeName="d" values="M20 3.99997C18.4178 3.99997 16.871 4.46916 15.5554 5.34821C14.2398 6.22727 13.2145 7.47669 12.609 8.9385C12.0035 10.4003 11.845 12.0088 12.1537 13.5607C12.4624 15.1125 13.2243 16.538 14.3431 17.6568C15.462 18.7756 16.8874 19.5376 18.4393 19.8463C19.9911 20.1549 21.5997 19.9965 23.0615 19.391C24.5233 18.7855 25.7727 17.7601 26.6518 16.4445C27.5308 15.1289 28 13.5822 28 12C27.9979 9.87887 27.1544 7.84524 25.6546 6.3454C24.1547 4.84556 22.1211 4.00204 20 3.99997Z;M20 3.99998C18.6155 3.99998 17.2622 4.41052 16.111 5.17969C14.9599 5.94886 14.0627 7.04211 13.5328 8.32119C13.003 9.60027 12.8644 11.0077 13.1345 12.3656C13.4046 13.7235 14.0713 14.9708 15.0503 15.9497C16.0292 16.9287 17.2765 17.5954 18.6344 17.8655C19.9922 18.1356 21.3997 17.9969 22.6788 17.4671C23.9579 16.9373 25.0511 16.0401 25.8203 14.889C26.5895 13.7378 27 12.3844 27 11C26.9982 9.14401 26.2601 7.36459 24.9478 6.05222C23.6354 4.73986 21.856 4.00178 20 3.99998Z;M20 3.99997C18.4178 3.99997 16.871 4.46916 15.5554 5.34821C14.2398 6.22727 13.2145 7.47669 12.609 8.9385C12.0035 10.4003 11.845 12.0088 12.1537 13.5607C12.4624 15.1125 13.2243 16.538 14.3431 17.6568C15.462 18.7756 16.8874 19.5376 18.4393 19.8463C19.9911 20.1549 21.5997 19.9965 23.0615 19.391C24.5233 18.7855 25.7727 17.7601 26.6518 16.4445C27.5308 15.1289 28 13.5822 28 12C27.9979 9.87887 27.1544 7.84524 25.6546 6.3454C24.1547 4.84556 22.1211 4.00204 20 3.99997Z" begin="0s" dur="3s" repeatCount="indefinite" fill="freeze" calcMode="linear" keyTimes="0;0.5;1"/></path>
<g id="$" filter="url(#filter0_d_80_282)">
<path d="M19.9231 16.977L19.9231 6.58734L20.5887 6.58734L20.5887 16.977L19.9231 16.977ZM22.0051 9.80974C21.9618 9.42555 21.7832 9.12793 21.4694 8.91689C21.1555 8.70314 20.7605 8.59627 20.2843 8.59627C19.9434 8.59627 19.6485 8.65038 19.3996 8.75861C19.1506 8.86413 18.9572 9.01023 18.8192 9.19692C18.6839 9.3809 18.6163 9.59059 18.6163 9.82598C18.6163 10.0235 18.6623 10.1939 18.7543 10.3373C18.849 10.4807 18.9721 10.6011 19.1236 10.6985C19.2778 10.7932 19.4428 10.8731 19.6187 10.938C19.7946 11.0002 19.9637 11.0516 20.126 11.0922L20.9377 11.3033C21.2029 11.3682 21.4748 11.4561 21.7535 11.567C22.0321 11.678 22.2905 11.8241 22.5286 12.0054C22.7667 12.1866 22.9588 12.4112 23.1049 12.6791C23.2537 12.9469 23.3281 13.2675 23.3281 13.6409C23.3281 14.1117 23.2064 14.5297 22.9629 14.895C22.7221 15.2602 22.3717 15.5484 21.9117 15.7594C21.4545 15.9705 20.9012 16.076 20.2518 16.076C19.6295 16.076 19.0911 15.9772 18.6366 15.7797C18.182 15.5822 17.8262 15.3022 17.5692 14.9396C17.3122 14.5744 17.1701 14.1415 17.1431 13.6409L18.4012 13.6409C18.4255 13.9412 18.5229 14.1915 18.6934 14.3917C18.8666 14.5892 19.0871 14.7367 19.3549 14.8341C19.6255 14.9288 19.9217 14.9761 20.2437 14.9761C20.5982 14.9761 20.9134 14.9207 21.1893 14.8097C21.468 14.6961 21.6872 14.5392 21.8468 14.339C22.0064 14.136 22.0862 13.8993 22.0862 13.6287C22.0862 13.3825 22.0159 13.181 21.8752 13.024C21.7372 12.8671 21.5492 12.7372 21.3111 12.6344C21.0757 12.5316 20.8092 12.441 20.5116 12.3625L19.5294 12.0946C18.8638 11.9134 18.3362 11.6469 17.9466 11.2951C17.5597 10.9434 17.3663 10.478 17.3663 9.89903C17.3663 9.42013 17.4962 9.00211 17.7559 8.64497C18.0156 8.28783 18.3674 8.0105 18.8111 7.81299C19.2548 7.61277 19.7553 7.51267 20.3127 7.51267C20.8755 7.51267 21.372 7.61142 21.8022 7.80893C22.2351 8.00644 22.576 8.27836 22.8249 8.62468C23.0738 8.96829 23.2037 9.36332 23.2145 9.80974L22.0051 9.80974Z" fill="white">
                                    <animate attributeName="d" values="M19.9231 16.977L19.9231 6.58734L20.5887 6.58734L20.5887 16.977L19.9231 16.977ZM22.0051 9.80974C21.9618 9.42555 21.7832 9.12793 21.4694 8.91689C21.1555 8.70314 20.7605 8.59627 20.2843 8.59627C19.9434 8.59627 19.6485 8.65038 19.3996 8.75861C19.1506 8.86413 18.9572 9.01023 18.8192 9.19692C18.6839 9.3809 18.6163 9.59059 18.6163 9.82598C18.6163 10.0235 18.6623 10.1939 18.7543 10.3373C18.849 10.4807 18.9721 10.6011 19.1236 10.6985C19.2778 10.7932 19.4428 10.8731 19.6187 10.938C19.7946 11.0002 19.9637 11.0516 20.126 11.0922L20.9377 11.3033C21.2029 11.3682 21.4748 11.4561 21.7535 11.567C22.0321 11.678 22.2905 11.8241 22.5286 12.0054C22.7667 12.1866 22.9588 12.4112 23.1049 12.6791C23.2537 12.9469 23.3281 13.2675 23.3281 13.6409C23.3281 14.1117 23.2064 14.5297 22.9629 14.895C22.7221 15.2602 22.3717 15.5484 21.9117 15.7594C21.4545 15.9705 20.9012 16.076 20.2518 16.076C19.6295 16.076 19.0911 15.9772 18.6366 15.7797C18.182 15.5822 17.8262 15.3022 17.5692 14.9396C17.3122 14.5744 17.1701 14.1415 17.1431 13.6409L18.4012 13.6409C18.4255 13.9412 18.5229 14.1915 18.6934 14.3917C18.8666 14.5892 19.0871 14.7367 19.3549 14.8341C19.6255 14.9288 19.9217 14.9761 20.2437 14.9761C20.5982 14.9761 20.9134 14.9207 21.1893 14.8097C21.468 14.6961 21.6872 14.5392 21.8468 14.339C22.0064 14.136 22.0862 13.8993 22.0862 13.6287C22.0862 13.3825 22.0159 13.181 21.8752 13.024C21.7372 12.8671 21.5492 12.7372 21.3111 12.6344C21.0757 12.5316 20.8092 12.441 20.5116 12.3625L19.5294 12.0946C18.8638 11.9134 18.3362 11.6469 17.9466 11.2951C17.5597 10.9434 17.3663 10.478 17.3663 9.89903C17.3663 9.42013 17.4962 9.00211 17.7559 8.64497C18.0156 8.28783 18.3674 8.0105 18.8111 7.81299C19.2548 7.61277 19.7553 7.51267 20.3127 7.51267C20.8755 7.51267 21.372 7.61142 21.8022 7.80893C22.2351 8.00644 22.576 8.27836 22.8249 8.62468C23.0738 8.96829 23.2037 9.36332 23.2145 9.80974L22.0051 9.80974Z;M21.5291 14.1572L18.0613 8.07653L18.4976 7.82775L21.9654 13.9084L21.5291 14.1572ZM20.5014 9.18428C20.3448 8.9756 20.1285 8.86816 19.8523 8.86196C19.5753 8.85418 19.2807 8.93928 18.9686 9.11727C18.7452 9.2447 18.5699 9.3866 18.4429 9.54298C18.315 9.69778 18.237 9.8556 18.2088 10.0164C18.1816 10.1747 18.2072 10.3227 18.2858 10.4605C18.3517 10.576 18.4388 10.6586 18.5469 10.7082C18.6568 10.7567 18.7777 10.7811 18.9095 10.7815C19.0422 10.7793 19.177 10.7643 19.314 10.7366C19.45 10.7073 19.578 10.6741 19.6979 10.6372L20.3004 10.4573C20.4958 10.3962 20.7034 10.3461 20.9231 10.3068C21.1427 10.2676 21.3609 10.2565 21.5774 10.2736C21.794 10.2907 21.9948 10.3503 22.18 10.4525C22.3669 10.5536 22.5227 10.7135 22.6473 10.932C22.8045 11.2075 22.8642 11.4977 22.8265 11.8025C22.7906 12.1062 22.6571 12.4059 22.4261 12.7013C22.1969 12.9957 21.8695 13.2643 21.4439 13.507C21.036 13.7396 20.6502 13.8831 20.2863 13.9374C19.9225 13.9917 19.5958 13.9608 19.3063 13.8447C19.016 13.727 18.7784 13.5267 18.5936 13.2439L19.4182 12.7736C19.5344 12.9403 19.6817 13.0503 19.8603 13.1038C20.0397 13.1547 20.2334 13.1585 20.4415 13.1154C20.6504 13.0697 20.8604 12.9867 21.0714 12.8663C21.3037 12.7339 21.4918 12.5836 21.6357 12.4155C21.7804 12.2448 21.8717 12.0711 21.9095 11.8942C21.9463 11.7158 21.9196 11.5474 21.8293 11.389C21.7472 11.245 21.6338 11.1533 21.4892 11.114C21.3464 11.0738 21.1798 11.068 20.9894 11.0969C20.8008 11.1247 20.5959 11.1712 20.3746 11.2366L19.6415 11.4469C19.1448 11.5896 18.71 11.6308 18.3373 11.5706C17.9663 11.5094 17.6842 11.3093 17.4909 10.9704C17.3311 10.6902 17.2767 10.397 17.3277 10.0909C17.3787 9.78474 17.5167 9.49096 17.7416 9.20951C17.9656 8.92648 18.2602 8.68079 18.6255 8.47246C18.9944 8.26211 19.3527 8.13433 19.7006 8.08912C20.0503 8.04291 20.3645 8.07462 20.6432 8.18427C20.921 8.29234 21.138 8.47498 21.2941 8.73222L20.5014 9.18428Z;M19.9231 16.977L19.9231 6.58734L20.5887 6.58734L20.5887 16.977L19.9231 16.977ZM22.0051 9.80974C21.9618 9.42555 21.7832 9.12793 21.4694 8.91689C21.1555 8.70314 20.7605 8.59627 20.2843 8.59627C19.9434 8.59627 19.6485 8.65038 19.3996 8.75861C19.1506 8.86413 18.9572 9.01023 18.8192 9.19692C18.6839 9.3809 18.6163 9.59059 18.6163 9.82598C18.6163 10.0235 18.6623 10.1939 18.7543 10.3373C18.849 10.4807 18.9721 10.6011 19.1236 10.6985C19.2778 10.7932 19.4428 10.8731 19.6187 10.938C19.7946 11.0002 19.9637 11.0516 20.126 11.0922L20.9377 11.3033C21.2029 11.3682 21.4748 11.4561 21.7535 11.567C22.0321 11.678 22.2905 11.8241 22.5286 12.0054C22.7667 12.1866 22.9588 12.4112 23.1049 12.6791C23.2537 12.9469 23.3281 13.2675 23.3281 13.6409C23.3281 14.1117 23.2064 14.5297 22.9629 14.895C22.7221 15.2602 22.3717 15.5484 21.9117 15.7594C21.4545 15.9705 20.9012 16.076 20.2518 16.076C19.6295 16.076 19.0911 15.9772 18.6366 15.7797C18.182 15.5822 17.8262 15.3022 17.5692 14.9396C17.3122 14.5744 17.1701 14.1415 17.1431 13.6409L18.4012 13.6409C18.4255 13.9412 18.5229 14.1915 18.6934 14.3917C18.8666 14.5892 19.0871 14.7367 19.3549 14.8341C19.6255 14.9288 19.9217 14.9761 20.2437 14.9761C20.5982 14.9761 20.9134 14.9207 21.1893 14.8097C21.468 14.6961 21.6872 14.5392 21.8468 14.339C22.0064 14.136 22.0862 13.8993 22.0862 13.6287C22.0862 13.3825 22.0159 13.181 21.8752 13.024C21.7372 12.8671 21.5492 12.7372 21.3111 12.6344C21.0757 12.5316 20.8092 12.441 20.5116 12.3625L19.5294 12.0946C18.8638 11.9134 18.3362 11.6469 17.9466 11.2951C17.5597 10.9434 17.3663 10.478 17.3663 9.89903C17.3663 9.42013 17.4962 9.00211 17.7559 8.64497C18.0156 8.28783 18.3674 8.0105 18.8111 7.81299C19.2548 7.61277 19.7553 7.51267 20.3127 7.51267C20.8755 7.51267 21.372 7.61142 21.8022 7.80893C22.2351 8.00644 22.576 8.27836 22.8249 8.62468C23.0738 8.96829 23.2037 9.36332 23.2145 9.80974L22.0051 9.80974Z" begin="0s" dur="3s" repeatCount="indefinite" fill="freeze" calcMode="linear" keyTimes="0;0.5;1"/></path>
</g>
</g>
<g id="Group 1171275229">
<g id="Group 1171275227">
<rect id="Rectangle 34624340" x="8" y="21" width="24" height="15" rx="2" fill="url(#paint1_linear_80_282)"/>
<rect id="Rectangle 34624341" x="8" y="22.5517" width="24" height="2.58621" fill="url(#paint2_linear_80_282)"/>
<rect id="Rectangle 34624342" x="8.54553" y="25.6552" width="13.6364" height="1.03448" rx="0.517241" fill="white"/>
<rect id="Rectangle 34624343" x="8.54553" y="27.2068" width="6" height="0.517241" rx="0.258621" fill="white"/>
<rect id="Rectangle 34624344" x="8.54553" y="33.2945" width="22.9091" height="0.288462" rx="0.144231" fill="white"/>
<g id="Debit Card">
<path id="Vector_2" d="M9.0907 24.8922H20.1676V24.962H9.0907V24.8922Z" fill="#000080"/>
<g id="Hold Charge">
<path id="Vector_3" d="M17.216 24.2597C17.2547 24.2597 17.2887 24.253 17.318 24.2397C17.3473 24.225 17.376 24.201 17.404 24.1677L17.428 24.1857C17.3973 24.2297 17.358 24.2643 17.31 24.2897C17.2633 24.3137 17.212 24.3257 17.156 24.3257C17.0947 24.3257 17.0393 24.311 16.99 24.2817C16.942 24.2523 16.904 24.2123 16.876 24.1617C16.848 24.1097 16.834 24.051 16.834 23.9857C16.834 23.8817 16.8653 23.799 16.928 23.7377C16.992 23.675 17.0767 23.6437 17.182 23.6437C17.2567 23.6437 17.3173 23.6617 17.364 23.6977C17.412 23.7323 17.436 23.7777 17.436 23.8337C17.436 23.8977 17.4087 23.949 17.354 23.9877C17.3007 24.025 17.2273 24.0437 17.134 24.0437C17.0967 24.0437 17.0627 24.041 17.032 24.0357C17.0387 24.105 17.0587 24.1597 17.092 24.1997C17.1253 24.2397 17.1667 24.2597 17.216 24.2597ZM17.16 23.6917C17.1187 23.6917 17.086 23.717 17.062 23.7677C17.0393 23.817 17.028 23.8863 17.028 23.9757L17.028 24.0077C17.0427 24.0077 17.0607 24.0063 17.082 24.0037C17.138 23.997 17.1807 23.979 17.21 23.9497C17.2407 23.919 17.256 23.879 17.256 23.8297C17.256 23.7897 17.2467 23.757 17.228 23.7317C17.2107 23.705 17.188 23.6917 17.16 23.6917Z" fill="#00005B">
                                    <animate attributeName="d" values="M17.216 24.2597C17.2547 24.2597 17.2887 24.253 17.318 24.2397C17.3473 24.225 17.376 24.201 17.404 24.1677L17.428 24.1857C17.3973 24.2297 17.358 24.2643 17.31 24.2897C17.2633 24.3137 17.212 24.3257 17.156 24.3257C17.0947 24.3257 17.0393 24.311 16.99 24.2817C16.942 24.2523 16.904 24.2123 16.876 24.1617C16.848 24.1097 16.834 24.051 16.834 23.9857C16.834 23.8817 16.8653 23.799 16.928 23.7377C16.992 23.675 17.0767 23.6437 17.182 23.6437C17.2567 23.6437 17.3173 23.6617 17.364 23.6977C17.412 23.7323 17.436 23.7777 17.436 23.8337C17.436 23.8977 17.4087 23.949 17.354 23.9877C17.3007 24.025 17.2273 24.0437 17.134 24.0437C17.0967 24.0437 17.0627 24.041 17.032 24.0357C17.0387 24.105 17.0587 24.1597 17.092 24.1997C17.1253 24.2397 17.1667 24.2597 17.216 24.2597ZM17.16 23.6917C17.1187 23.6917 17.086 23.717 17.062 23.7677C17.0393 23.817 17.028 23.8863 17.028 23.9757L17.028 24.0077C17.0427 24.0077 17.0607 24.0063 17.082 24.0037C17.138 23.997 17.1807 23.979 17.21 23.9497C17.2407 23.919 17.256 23.879 17.256 23.8297C17.256 23.7897 17.2467 23.757 17.228 23.7317C17.2107 23.705 17.188 23.6917 17.16 23.6917Z;M22.216 23.2597C22.2547 23.2597 22.2887 23.253 22.318 23.2397C22.3473 23.225 22.376 23.201 22.404 23.1677L22.428 23.1857C22.3973 23.2297 22.358 23.2643 22.31 23.2897C22.2633 23.3137 22.212 23.3257 22.156 23.3257C22.0947 23.3257 22.0393 23.311 21.99 23.2817C21.942 23.2523 21.904 23.2123 21.876 23.1617C21.848 23.1097 21.834 23.051 21.834 22.9857C21.834 22.8817 21.8653 22.799 21.928 22.7377C21.992 22.675 22.0767 22.6437 22.182 22.6437C22.2567 22.6437 22.3173 22.6617 22.364 22.6977C22.412 22.7323 22.436 22.7777 22.436 22.8337C22.436 22.8977 22.4087 22.949 22.354 22.9877C22.3007 23.025 22.2273 23.0437 22.134 23.0437C22.0967 23.0437 22.0627 23.041 22.032 23.0357C22.0387 23.105 22.0587 23.1597 22.092 23.1997C22.1253 23.2397 22.1667 23.2597 22.216 23.2597ZM22.16 22.6917C22.1187 22.6917 22.086 22.717 22.062 22.7677C22.0393 22.817 22.028 22.8863 22.028 22.9757L22.028 23.0077C22.0427 23.0077 22.0607 23.0063 22.082 23.0037C22.138 22.997 22.1807 22.979 22.21 22.9497C22.2407 22.919 22.256 22.879 22.256 22.8297C22.256 22.7897 22.2467 22.757 22.228 22.7317C22.2107 22.705 22.188 22.6917 22.16 22.6917Z;M17.216 24.2597C17.2547 24.2597 17.2887 24.253 17.318 24.2397C17.3473 24.225 17.376 24.201 17.404 24.1677L17.428 24.1857C17.3973 24.2297 17.358 24.2643 17.31 24.2897C17.2633 24.3137 17.212 24.3257 17.156 24.3257C17.0947 24.3257 17.0393 24.311 16.99 24.2817C16.942 24.2523 16.904 24.2123 16.876 24.1617C16.848 24.1097 16.834 24.051 16.834 23.9857C16.834 23.8817 16.8653 23.799 16.928 23.7377C16.992 23.675 17.0767 23.6437 17.182 23.6437C17.2567 23.6437 17.3173 23.6617 17.364 23.6977C17.412 23.7323 17.436 23.7777 17.436 23.8337C17.436 23.8977 17.4087 23.949 17.354 23.9877C17.3007 24.025 17.2273 24.0437 17.134 24.0437C17.0967 24.0437 17.0627 24.041 17.032 24.0357C17.0387 24.105 17.0587 24.1597 17.092 24.1997C17.1253 24.2397 17.1667 24.2597 17.216 24.2597ZM17.16 23.6917C17.1187 23.6917 17.086 23.717 17.062 23.7677C17.0393 23.817 17.028 23.8863 17.028 23.9757L17.028 24.0077C17.0427 24.0077 17.0607 24.0063 17.082 24.0037C17.138 23.997 17.1807 23.979 17.21 23.9497C17.2407 23.919 17.256 23.879 17.256 23.8297C17.256 23.7897 17.2467 23.757 17.228 23.7317C17.2107 23.705 17.188 23.6917 17.16 23.6917Z" begin="0s" dur="3s" repeatCount="indefinite" fill="freeze" calcMode="linear" keyTimes="0;0.5;1"/></path>
<path id="Vector_4" d="M16.2611 24.4957C16.2611 24.525 16.2698 24.549 16.2871 24.5677C16.3058 24.5863 16.3291 24.5957 16.3571 24.5957C16.4504 24.5957 16.4971 24.5197 16.4971 24.3677L16.4971 24.1737C16.4638 24.2123 16.4291 24.241 16.3931 24.2597C16.3571 24.2783 16.3171 24.2877 16.2731 24.2877C16.2078 24.2877 16.1544 24.2603 16.1131 24.2057C16.0731 24.151 16.0531 24.079 16.0531 23.9897C16.0531 23.883 16.0858 23.799 16.1511 23.7377C16.2164 23.675 16.3044 23.6437 16.4151 23.6437C16.4444 23.6437 16.4764 23.6463 16.5111 23.6517C16.5471 23.657 16.5691 23.6603 16.5771 23.6617C16.6331 23.6697 16.6718 23.675 16.6931 23.6777L16.7091 23.6937L16.6931 23.7177C16.6811 23.7337 16.6751 23.7503 16.6751 23.7677L16.6751 24.3077C16.6751 24.413 16.6444 24.4943 16.5831 24.5517C16.5231 24.6103 16.4391 24.6397 16.3311 24.6397C16.2644 24.6397 16.2104 24.627 16.1691 24.6017C16.1278 24.5763 16.1071 24.543 16.1071 24.5017C16.1071 24.4657 16.1178 24.4363 16.1391 24.4137C16.1604 24.3923 16.1884 24.3817 16.2231 24.3817C16.2484 24.3817 16.2731 24.387 16.2971 24.3977C16.2731 24.4217 16.2611 24.4543 16.2611 24.4957ZM16.3691 24.1917C16.4224 24.1917 16.4644 24.1637 16.4951 24.1077L16.4951 23.7097C16.4644 23.6963 16.4351 23.6897 16.4071 23.6897C16.3564 23.6897 16.3178 23.7123 16.2911 23.7577C16.2658 23.8017 16.2531 23.8663 16.2531 23.9517C16.2531 24.029 16.2631 24.0883 16.2831 24.1297C16.3031 24.171 16.3318 24.1917 16.3691 24.1917Z" fill="#00005B">
                                    <animate attributeName="d" values="M16.2611 24.4957C16.2611 24.525 16.2698 24.549 16.2871 24.5677C16.3058 24.5863 16.3291 24.5957 16.3571 24.5957C16.4504 24.5957 16.4971 24.5197 16.4971 24.3677L16.4971 24.1737C16.4638 24.2123 16.4291 24.241 16.3931 24.2597C16.3571 24.2783 16.3171 24.2877 16.2731 24.2877C16.2078 24.2877 16.1544 24.2603 16.1131 24.2057C16.0731 24.151 16.0531 24.079 16.0531 23.9897C16.0531 23.883 16.0858 23.799 16.1511 23.7377C16.2164 23.675 16.3044 23.6437 16.4151 23.6437C16.4444 23.6437 16.4764 23.6463 16.5111 23.6517C16.5471 23.657 16.5691 23.6603 16.5771 23.6617C16.6331 23.6697 16.6718 23.675 16.6931 23.6777L16.7091 23.6937L16.6931 23.7177C16.6811 23.7337 16.6751 23.7503 16.6751 23.7677L16.6751 24.3077C16.6751 24.413 16.6444 24.4943 16.5831 24.5517C16.5231 24.6103 16.4391 24.6397 16.3311 24.6397C16.2644 24.6397 16.2104 24.627 16.1691 24.6017C16.1278 24.5763 16.1071 24.543 16.1071 24.5017C16.1071 24.4657 16.1178 24.4363 16.1391 24.4137C16.1604 24.3923 16.1884 24.3817 16.2231 24.3817C16.2484 24.3817 16.2731 24.387 16.2971 24.3977C16.2731 24.4217 16.2611 24.4543 16.2611 24.4957ZM16.3691 24.1917C16.4224 24.1917 16.4644 24.1637 16.4951 24.1077L16.4951 23.7097C16.4644 23.6963 16.4351 23.6897 16.4071 23.6897C16.3564 23.6897 16.3178 23.7123 16.2911 23.7577C16.2658 23.8017 16.2531 23.8663 16.2531 23.9517C16.2531 24.029 16.2631 24.0883 16.2831 24.1297C16.3031 24.171 16.3318 24.1917 16.3691 24.1917Z;M21.2611 24.4957C21.2611 24.525 21.2698 24.549 21.2871 24.5677C21.3058 24.5863 21.3291 24.5957 21.3571 24.5957C21.4504 24.5957 21.4971 24.5197 21.4971 24.3677L21.4971 24.1737C21.4638 24.2123 21.4291 24.241 21.3931 24.2597C21.3571 24.2783 21.3171 24.2877 21.2731 24.2877C21.2078 24.2877 21.1544 24.2603 21.1131 24.2057C21.0731 24.151 21.0531 24.079 21.0531 23.9897C21.0531 23.883 21.0858 23.799 21.1511 23.7377C21.2164 23.675 21.3044 23.6437 21.4151 23.6437C21.4444 23.6437 21.4764 23.6463 21.5111 23.6517C21.5471 23.657 21.5691 23.6603 21.5771 23.6617C21.6331 23.6697 21.6718 23.675 21.6931 23.6777L21.7091 23.6937L21.6931 23.7177C21.6811 23.7337 21.6751 23.7503 21.6751 23.7677L21.6751 24.3077C21.6751 24.413 21.6444 24.4943 21.5831 24.5517C21.5231 24.6103 21.4391 24.6397 21.3311 24.6397C21.2644 24.6397 21.2104 24.627 21.1691 24.6017C21.1278 24.5763 21.1071 24.543 21.1071 24.5017C21.1071 24.4657 21.1178 24.4363 21.1391 24.4137C21.1604 24.3923 21.1884 24.3817 21.2231 24.3817C21.2484 24.3817 21.2731 24.387 21.2971 24.3977C21.2731 24.4217 21.2611 24.4543 21.2611 24.4957ZM21.3691 24.1917C21.4224 24.1917 21.4644 24.1637 21.4951 24.1077L21.4951 23.7097C21.4644 23.6963 21.4351 23.6897 21.4071 23.6897C21.3564 23.6897 21.3178 23.7123 21.2911 23.7577C21.2658 23.8017 21.2531 23.8663 21.2531 23.9517C21.2531 24.029 21.2631 24.0883 21.2831 24.1297C21.3031 24.171 21.3318 24.1917 21.3691 24.1917Z;M16.2611 24.4957C16.2611 24.525 16.2698 24.549 16.2871 24.5677C16.3058 24.5863 16.3291 24.5957 16.3571 24.5957C16.4504 24.5957 16.4971 24.5197 16.4971 24.3677L16.4971 24.1737C16.4638 24.2123 16.4291 24.241 16.3931 24.2597C16.3571 24.2783 16.3171 24.2877 16.2731 24.2877C16.2078 24.2877 16.1544 24.2603 16.1131 24.2057C16.0731 24.151 16.0531 24.079 16.0531 23.9897C16.0531 23.883 16.0858 23.799 16.1511 23.7377C16.2164 23.675 16.3044 23.6437 16.4151 23.6437C16.4444 23.6437 16.4764 23.6463 16.5111 23.6517C16.5471 23.657 16.5691 23.6603 16.5771 23.6617C16.6331 23.6697 16.6718 23.675 16.6931 23.6777L16.7091 23.6937L16.6931 23.7177C16.6811 23.7337 16.6751 23.7503 16.6751 23.7677L16.6751 24.3077C16.6751 24.413 16.6444 24.4943 16.5831 24.5517C16.5231 24.6103 16.4391 24.6397 16.3311 24.6397C16.2644 24.6397 16.2104 24.627 16.1691 24.6017C16.1278 24.5763 16.1071 24.543 16.1071 24.5017C16.1071 24.4657 16.1178 24.4363 16.1391 24.4137C16.1604 24.3923 16.1884 24.3817 16.2231 24.3817C16.2484 24.3817 16.2731 24.387 16.2971 24.3977C16.2731 24.4217 16.2611 24.4543 16.2611 24.4957ZM16.3691 24.1917C16.4224 24.1917 16.4644 24.1637 16.4951 24.1077L16.4951 23.7097C16.4644 23.6963 16.4351 23.6897 16.4071 23.6897C16.3564 23.6897 16.3178 23.7123 16.2911 23.7577C16.2658 23.8017 16.2531 23.8663 16.2531 23.9517C16.2531 24.029 16.2631 24.0883 16.2831 24.1297C16.3031 24.171 16.3318 24.1917 16.3691 24.1917Z" begin="0s" dur="3s" repeatCount="indefinite" fill="freeze" calcMode="linear" keyTimes="0;0.5;1"/></path>
<path id="Vector_5" d="M15.8404 23.6437C15.883 23.6437 15.9177 23.6563 15.9444 23.6817C15.971 23.7057 15.9844 23.737 15.9844 23.7757C15.9844 23.8117 15.9737 23.841 15.9524 23.8637C15.931 23.885 15.903 23.8957 15.8684 23.8957C15.8417 23.8957 15.817 23.8903 15.7944 23.8797C15.8184 23.8597 15.8304 23.8297 15.8304 23.7897C15.8304 23.771 15.8264 23.7563 15.8184 23.7457C15.8104 23.735 15.7997 23.7297 15.7864 23.7297C15.7544 23.7297 15.7277 23.7623 15.7064 23.8277C15.685 23.8917 15.6744 23.9717 15.6744 24.0677C15.6744 24.117 15.677 24.1563 15.6824 24.1857C15.689 24.215 15.6997 24.2423 15.7144 24.2677L15.7304 24.2877L15.7144 24.3077L15.4244 24.3077L15.4124 24.2737L15.4404 24.2677C15.4617 24.2623 15.4757 24.2543 15.4824 24.2437C15.489 24.2317 15.4924 24.209 15.4924 24.1757L15.4924 23.7857C15.4924 23.7603 15.4837 23.7477 15.4664 23.7477L15.4044 23.7477L15.3964 23.7257C15.4217 23.703 15.453 23.6843 15.4904 23.6697C15.529 23.655 15.567 23.6477 15.6044 23.6477C15.6217 23.6477 15.6357 23.6517 15.6464 23.6597C15.657 23.6677 15.6624 23.6783 15.6624 23.6917L15.6624 23.8377L15.6684 23.8377C15.6964 23.7083 15.7537 23.6437 15.8404 23.6437Z" fill="#00005B">
                                    <animate attributeName="d" values="M15.8404 23.6437C15.883 23.6437 15.9177 23.6563 15.9444 23.6817C15.971 23.7057 15.9844 23.737 15.9844 23.7757C15.9844 23.8117 15.9737 23.841 15.9524 23.8637C15.931 23.885 15.903 23.8957 15.8684 23.8957C15.8417 23.8957 15.817 23.8903 15.7944 23.8797C15.8184 23.8597 15.8304 23.8297 15.8304 23.7897C15.8304 23.771 15.8264 23.7563 15.8184 23.7457C15.8104 23.735 15.7997 23.7297 15.7864 23.7297C15.7544 23.7297 15.7277 23.7623 15.7064 23.8277C15.685 23.8917 15.6744 23.9717 15.6744 24.0677C15.6744 24.117 15.677 24.1563 15.6824 24.1857C15.689 24.215 15.6997 24.2423 15.7144 24.2677L15.7304 24.2877L15.7144 24.3077L15.4244 24.3077L15.4124 24.2737L15.4404 24.2677C15.4617 24.2623 15.4757 24.2543 15.4824 24.2437C15.489 24.2317 15.4924 24.209 15.4924 24.1757L15.4924 23.7857C15.4924 23.7603 15.4837 23.7477 15.4664 23.7477L15.4044 23.7477L15.3964 23.7257C15.4217 23.703 15.453 23.6843 15.4904 23.6697C15.529 23.655 15.567 23.6477 15.6044 23.6477C15.6217 23.6477 15.6357 23.6517 15.6464 23.6597C15.657 23.6677 15.6624 23.6783 15.6624 23.6917L15.6624 23.8377L15.6684 23.8377C15.6964 23.7083 15.7537 23.6437 15.8404 23.6437Z;M19.8404 22.6437C19.883 22.6437 19.9177 22.6563 19.9444 22.6817C19.971 22.7057 19.9844 22.737 19.9844 22.7757C19.9844 22.8117 19.9737 22.841 19.9524 22.8637C19.931 22.885 19.903 22.8957 19.8684 22.8957C19.8417 22.8957 19.817 22.8903 19.7944 22.8797C19.8184 22.8597 19.8304 22.8297 19.8304 22.7897C19.8304 22.771 19.8264 22.7563 19.8184 22.7457C19.8104 22.735 19.7997 22.7297 19.7864 22.7297C19.7544 22.7297 19.7277 22.7623 19.7064 22.8277C19.685 22.8917 19.6744 22.9717 19.6744 23.0677C19.6744 23.117 19.677 23.1563 19.6824 23.1857C19.689 23.215 19.6997 23.2423 19.7144 23.2677L19.7304 23.2877L19.7144 23.3077L19.4244 23.3077L19.4124 23.2737L19.4404 23.2677C19.4617 23.2623 19.4757 23.2543 19.4824 23.2437C19.489 23.2317 19.4924 23.209 19.4924 23.1757L19.4924 22.7857C19.4924 22.7603 19.4837 22.7477 19.4664 22.7477L19.4044 22.7477L19.3964 22.7257C19.4217 22.703 19.453 22.6843 19.4904 22.6697C19.529 22.655 19.567 22.6477 19.6044 22.6477C19.6217 22.6477 19.6357 22.6517 19.6464 22.6597C19.657 22.6677 19.6624 22.6783 19.6624 22.6917L19.6624 22.8377L19.6684 22.8377C19.6964 22.7083 19.7537 22.6437 19.8404 22.6437Z;M15.8404 23.6437C15.883 23.6437 15.9177 23.6563 15.9444 23.6817C15.971 23.7057 15.9844 23.737 15.9844 23.7757C15.9844 23.8117 15.9737 23.841 15.9524 23.8637C15.931 23.885 15.903 23.8957 15.8684 23.8957C15.8417 23.8957 15.817 23.8903 15.7944 23.8797C15.8184 23.8597 15.8304 23.8297 15.8304 23.7897C15.8304 23.771 15.8264 23.7563 15.8184 23.7457C15.8104 23.735 15.7997 23.7297 15.7864 23.7297C15.7544 23.7297 15.7277 23.7623 15.7064 23.8277C15.685 23.8917 15.6744 23.9717 15.6744 24.0677C15.6744 24.117 15.677 24.1563 15.6824 24.1857C15.689 24.215 15.6997 24.2423 15.7144 24.2677L15.7304 24.2877L15.7144 24.3077L15.4244 24.3077L15.4124 24.2737L15.4404 24.2677C15.4617 24.2623 15.4757 24.2543 15.4824 24.2437C15.489 24.2317 15.4924 24.209 15.4924 24.1757L15.4924 23.7857C15.4924 23.7603 15.4837 23.7477 15.4664 23.7477L15.4044 23.7477L15.3964 23.7257C15.4217 23.703 15.453 23.6843 15.4904 23.6697C15.529 23.655 15.567 23.6477 15.6044 23.6477C15.6217 23.6477 15.6357 23.6517 15.6464 23.6597C15.657 23.6677 15.6624 23.6783 15.6624 23.6917L15.6624 23.8377L15.6684 23.8377C15.6964 23.7083 15.7537 23.6437 15.8404 23.6437Z" begin="0s" dur="3s" repeatCount="indefinite" fill="freeze" calcMode="linear" keyTimes="0;0.5;1"/></path>
<path id="Vector_6" d="M14.9038 23.8657C14.8758 23.8817 14.8425 23.8897 14.8038 23.8897C14.7758 23.8897 14.7538 23.8817 14.7378 23.8657C14.7218 23.8483 14.7138 23.8243 14.7138 23.7937C14.7138 23.7483 14.7358 23.7123 14.7798 23.6857C14.8252 23.6577 14.8838 23.6437 14.9558 23.6437C15.0412 23.6437 15.1078 23.6623 15.1558 23.6997C15.2052 23.737 15.2298 23.7877 15.2298 23.8517L15.2298 24.1977C15.2298 24.235 15.2432 24.2537 15.2698 24.2537C15.2952 24.2537 15.3198 24.2437 15.3438 24.2237L15.3598 24.2437C15.3105 24.2983 15.2518 24.3257 15.1838 24.3257C15.1438 24.3257 15.1132 24.3157 15.0918 24.2957C15.0718 24.2757 15.0598 24.2443 15.0558 24.2017L15.0478 24.2017C15.0265 24.2403 14.9978 24.271 14.9618 24.2937C14.9272 24.315 14.8872 24.3257 14.8418 24.3257C14.7912 24.3257 14.7505 24.3103 14.7198 24.2797C14.6892 24.2477 14.6738 24.2063 14.6738 24.1557C14.6738 24.0983 14.7012 24.053 14.7558 24.0197C14.8105 23.9863 14.8845 23.9697 14.9778 23.9697C14.9952 23.9697 15.0198 23.971 15.0518 23.9737L15.0518 23.8737C15.0518 23.8083 15.0438 23.7617 15.0278 23.7337C15.0118 23.7043 14.9858 23.6897 14.9498 23.6897C14.9245 23.6897 14.9045 23.6977 14.8898 23.7137C14.8752 23.7297 14.8678 23.7503 14.8678 23.7757C14.8678 23.8157 14.8798 23.8457 14.9038 23.8657ZM14.9338 24.2257C15.0125 24.2257 15.0518 24.1543 15.0518 24.0117C14.9852 24.0117 14.9352 24.023 14.9018 24.0457C14.8685 24.067 14.8518 24.0977 14.8518 24.1377C14.8518 24.1643 14.8592 24.1857 14.8738 24.2017C14.8885 24.2177 14.9085 24.2257 14.9338 24.2257Z" fill="#00005B">
                                    <animate attributeName="d" values="M14.9038 23.8657C14.8758 23.8817 14.8425 23.8897 14.8038 23.8897C14.7758 23.8897 14.7538 23.8817 14.7378 23.8657C14.7218 23.8483 14.7138 23.8243 14.7138 23.7937C14.7138 23.7483 14.7358 23.7123 14.7798 23.6857C14.8252 23.6577 14.8838 23.6437 14.9558 23.6437C15.0412 23.6437 15.1078 23.6623 15.1558 23.6997C15.2052 23.737 15.2298 23.7877 15.2298 23.8517L15.2298 24.1977C15.2298 24.235 15.2432 24.2537 15.2698 24.2537C15.2952 24.2537 15.3198 24.2437 15.3438 24.2237L15.3598 24.2437C15.3105 24.2983 15.2518 24.3257 15.1838 24.3257C15.1438 24.3257 15.1132 24.3157 15.0918 24.2957C15.0718 24.2757 15.0598 24.2443 15.0558 24.2017L15.0478 24.2017C15.0265 24.2403 14.9978 24.271 14.9618 24.2937C14.9272 24.315 14.8872 24.3257 14.8418 24.3257C14.7912 24.3257 14.7505 24.3103 14.7198 24.2797C14.6892 24.2477 14.6738 24.2063 14.6738 24.1557C14.6738 24.0983 14.7012 24.053 14.7558 24.0197C14.8105 23.9863 14.8845 23.9697 14.9778 23.9697C14.9952 23.9697 15.0198 23.971 15.0518 23.9737L15.0518 23.8737C15.0518 23.8083 15.0438 23.7617 15.0278 23.7337C15.0118 23.7043 14.9858 23.6897 14.9498 23.6897C14.9245 23.6897 14.9045 23.6977 14.8898 23.7137C14.8752 23.7297 14.8678 23.7503 14.8678 23.7757C14.8678 23.8157 14.8798 23.8457 14.9038 23.8657ZM14.9338 24.2257C15.0125 24.2257 15.0518 24.1543 15.0518 24.0117C14.9852 24.0117 14.9352 24.023 14.9018 24.0457C14.8685 24.067 14.8518 24.0977 14.8518 24.1377C14.8518 24.1643 14.8592 24.1857 14.8738 24.2017C14.8885 24.2177 14.9085 24.2257 14.9338 24.2257Z;M17.9038 23.8657C17.8758 23.8817 17.8425 23.8897 17.8038 23.8897C17.7758 23.8897 17.7538 23.8817 17.7378 23.8657C17.7218 23.8483 17.7138 23.8243 17.7138 23.7937C17.7138 23.7483 17.7358 23.7123 17.7798 23.6857C17.8252 23.6577 17.8838 23.6437 17.9558 23.6437C18.0412 23.6437 18.1078 23.6623 18.1558 23.6997C18.2052 23.737 18.2298 23.7877 18.2298 23.8517L18.2298 24.1977C18.2298 24.235 18.2432 24.2537 18.2698 24.2537C18.2952 24.2537 18.3198 24.2437 18.3438 24.2237L18.3598 24.2437C18.3105 24.2983 18.2518 24.3257 18.1838 24.3257C18.1438 24.3257 18.1132 24.3157 18.0918 24.2957C18.0718 24.2757 18.0598 24.2443 18.0558 24.2017L18.0478 24.2017C18.0265 24.2403 17.9978 24.271 17.9618 24.2937C17.9272 24.315 17.8872 24.3257 17.8418 24.3257C17.7912 24.3257 17.7505 24.3103 17.7198 24.2797C17.6892 24.2477 17.6738 24.2063 17.6738 24.1557C17.6738 24.0983 17.7012 24.053 17.7558 24.0197C17.8105 23.9863 17.8845 23.9697 17.9778 23.9697C17.9952 23.9697 18.0198 23.971 18.0518 23.9737L18.0518 23.8737C18.0518 23.8083 18.0438 23.7617 18.0278 23.7337C18.0118 23.7043 17.9858 23.6897 17.9498 23.6897C17.9245 23.6897 17.9045 23.6977 17.8898 23.7137C17.8752 23.7297 17.8678 23.7503 17.8678 23.7757C17.8678 23.8157 17.8798 23.8457 17.9038 23.8657ZM17.9338 24.2257C18.0125 24.2257 18.0518 24.1543 18.0518 24.0117C17.9852 24.0117 17.9352 24.023 17.9018 24.0457C17.8685 24.067 17.8518 24.0977 17.8518 24.1377C17.8518 24.1643 17.8592 24.1857 17.8738 24.2017C17.8885 24.2177 17.9085 24.2257 17.9338 24.2257Z;M14.9038 23.8657C14.8758 23.8817 14.8425 23.8897 14.8038 23.8897C14.7758 23.8897 14.7538 23.8817 14.7378 23.8657C14.7218 23.8483 14.7138 23.8243 14.7138 23.7937C14.7138 23.7483 14.7358 23.7123 14.7798 23.6857C14.8252 23.6577 14.8838 23.6437 14.9558 23.6437C15.0412 23.6437 15.1078 23.6623 15.1558 23.6997C15.2052 23.737 15.2298 23.7877 15.2298 23.8517L15.2298 24.1977C15.2298 24.235 15.2432 24.2537 15.2698 24.2537C15.2952 24.2537 15.3198 24.2437 15.3438 24.2237L15.3598 24.2437C15.3105 24.2983 15.2518 24.3257 15.1838 24.3257C15.1438 24.3257 15.1132 24.3157 15.0918 24.2957C15.0718 24.2757 15.0598 24.2443 15.0558 24.2017L15.0478 24.2017C15.0265 24.2403 14.9978 24.271 14.9618 24.2937C14.9272 24.315 14.8872 24.3257 14.8418 24.3257C14.7912 24.3257 14.7505 24.3103 14.7198 24.2797C14.6892 24.2477 14.6738 24.2063 14.6738 24.1557C14.6738 24.0983 14.7012 24.053 14.7558 24.0197C14.8105 23.9863 14.8845 23.9697 14.9778 23.9697C14.9952 23.9697 15.0198 23.971 15.0518 23.9737L15.0518 23.8737C15.0518 23.8083 15.0438 23.7617 15.0278 23.7337C15.0118 23.7043 14.9858 23.6897 14.9498 23.6897C14.9245 23.6897 14.9045 23.6977 14.8898 23.7137C14.8752 23.7297 14.8678 23.7503 14.8678 23.7757C14.8678 23.8157 14.8798 23.8457 14.9038 23.8657ZM14.9338 24.2257C15.0125 24.2257 15.0518 24.1543 15.0518 24.0117C14.9852 24.0117 14.9352 24.023 14.9018 24.0457C14.8685 24.067 14.8518 24.0977 14.8518 24.1377C14.8518 24.1643 14.8592 24.1857 14.8738 24.2017C14.8885 24.2177 14.9085 24.2257 14.9338 24.2257Z" begin="0s" dur="3s" repeatCount="indefinite" fill="freeze" calcMode="linear" keyTimes="0;0.5;1"/></path>
<path id="Vector_7" d="M14.4867 24.1937C14.4867 24.2337 14.4993 24.2537 14.5247 24.2537C14.55 24.2537 14.5747 24.2437 14.5987 24.2237L14.6147 24.2437C14.5653 24.2984 14.5073 24.3257 14.4407 24.3257C14.3927 24.3257 14.358 24.3137 14.3367 24.2897C14.3167 24.2644 14.3067 24.2237 14.3067 24.1677L14.3067 23.8617C14.3067 23.7844 14.282 23.7457 14.2327 23.7457C14.1847 23.7457 14.146 23.7784 14.1167 23.8437C14.0873 23.909 14.0727 23.9944 14.0727 24.0997C14.0727 24.141 14.0753 24.1744 14.0807 24.1997C14.0873 24.2237 14.098 24.2464 14.1127 24.2677L14.1287 24.2877L14.1127 24.3077L13.8227 24.3077L13.8107 24.2737L13.8387 24.2677C13.86 24.2624 13.874 24.2544 13.8807 24.2437C13.8873 24.2317 13.8907 24.209 13.8907 24.1757L13.8907 23.4617C13.8907 23.451 13.888 23.4424 13.8827 23.4357C13.8787 23.429 13.8727 23.4257 13.8647 23.4257L13.8027 23.4257L13.7947 23.4057C13.82 23.3817 13.8527 23.363 13.8927 23.3497C13.934 23.335 13.9747 23.3277 14.0147 23.3277C14.032 23.3277 14.046 23.3317 14.0567 23.3397C14.0673 23.3464 14.0727 23.3564 14.0727 23.3697L14.0727 23.8637C14.0913 23.801 14.124 23.749 14.1707 23.7077C14.2187 23.665 14.2693 23.6437 14.3227 23.6437C14.38 23.6437 14.4213 23.6624 14.4467 23.6997C14.4733 23.737 14.4867 23.7964 14.4867 23.8777L14.4867 24.1937Z" fill="#00005B">
                                    <animate attributeName="d" values="M14.4867 24.1937C14.4867 24.2337 14.4993 24.2537 14.5247 24.2537C14.55 24.2537 14.5747 24.2437 14.5987 24.2237L14.6147 24.2437C14.5653 24.2984 14.5073 24.3257 14.4407 24.3257C14.3927 24.3257 14.358 24.3137 14.3367 24.2897C14.3167 24.2644 14.3067 24.2237 14.3067 24.1677L14.3067 23.8617C14.3067 23.7844 14.282 23.7457 14.2327 23.7457C14.1847 23.7457 14.146 23.7784 14.1167 23.8437C14.0873 23.909 14.0727 23.9944 14.0727 24.0997C14.0727 24.141 14.0753 24.1744 14.0807 24.1997C14.0873 24.2237 14.098 24.2464 14.1127 24.2677L14.1287 24.2877L14.1127 24.3077L13.8227 24.3077L13.8107 24.2737L13.8387 24.2677C13.86 24.2624 13.874 24.2544 13.8807 24.2437C13.8873 24.2317 13.8907 24.209 13.8907 24.1757L13.8907 23.4617C13.8907 23.451 13.888 23.4424 13.8827 23.4357C13.8787 23.429 13.8727 23.4257 13.8647 23.4257L13.8027 23.4257L13.7947 23.4057C13.82 23.3817 13.8527 23.363 13.8927 23.3497C13.934 23.335 13.9747 23.3277 14.0147 23.3277C14.032 23.3277 14.046 23.3317 14.0567 23.3397C14.0673 23.3464 14.0727 23.3564 14.0727 23.3697L14.0727 23.8637C14.0913 23.801 14.124 23.749 14.1707 23.7077C14.2187 23.665 14.2693 23.6437 14.3227 23.6437C14.38 23.6437 14.4213 23.6624 14.4467 23.6997C14.4733 23.737 14.4867 23.7964 14.4867 23.8777L14.4867 24.1937Z;M17.4867 23.1937C17.4867 23.2337 17.4993 23.2537 17.5247 23.2537C17.55 23.2537 17.5747 23.2437 17.5987 23.2237L17.6147 23.2437C17.5653 23.2984 17.5073 23.3257 17.4407 23.3257C17.3927 23.3257 17.358 23.3137 17.3367 23.2897C17.3167 23.2644 17.3067 23.2237 17.3067 23.1677L17.3067 22.8617C17.3067 22.7844 17.282 22.7457 17.2327 22.7457C17.1847 22.7457 17.146 22.7784 17.1167 22.8437C17.0873 22.909 17.0727 22.9944 17.0727 23.0997C17.0727 23.141 17.0753 23.1744 17.0807 23.1997C17.0873 23.2237 17.098 23.2464 17.1127 23.2677L17.1287 23.2877L17.1127 23.3077L16.8227 23.3077L16.8107 23.2737L16.8387 23.2677C16.86 23.2624 16.874 23.2544 16.8807 23.2437C16.8873 23.2317 16.8907 23.209 16.8907 23.1757L16.8907 22.4617C16.8907 22.451 16.888 22.4424 16.8827 22.4357C16.8787 22.429 16.8727 22.4257 16.8647 22.4257L16.8027 22.4257L16.7947 22.4057C16.82 22.3817 16.8527 22.363 16.8927 22.3497C16.934 22.335 16.9747 22.3277 17.0147 22.3277C17.032 22.3277 17.046 22.3317 17.0567 22.3397C17.0673 22.3464 17.0727 22.3564 17.0727 22.3697L17.0727 22.8637C17.0913 22.801 17.124 22.749 17.1707 22.7077C17.2187 22.665 17.2693 22.6437 17.3227 22.6437C17.38 22.6437 17.4213 22.6624 17.4467 22.6997C17.4733 22.737 17.4867 22.7964 17.4867 22.8777L17.4867 23.1937Z;M14.4867 24.1937C14.4867 24.2337 14.4993 24.2537 14.5247 24.2537C14.55 24.2537 14.5747 24.2437 14.5987 24.2237L14.6147 24.2437C14.5653 24.2984 14.5073 24.3257 14.4407 24.3257C14.3927 24.3257 14.358 24.3137 14.3367 24.2897C14.3167 24.2644 14.3067 24.2237 14.3067 24.1677L14.3067 23.8617C14.3067 23.7844 14.282 23.7457 14.2327 23.7457C14.1847 23.7457 14.146 23.7784 14.1167 23.8437C14.0873 23.909 14.0727 23.9944 14.0727 24.0997C14.0727 24.141 14.0753 24.1744 14.0807 24.1997C14.0873 24.2237 14.098 24.2464 14.1127 24.2677L14.1287 24.2877L14.1127 24.3077L13.8227 24.3077L13.8107 24.2737L13.8387 24.2677C13.86 24.2624 13.874 24.2544 13.8807 24.2437C13.8873 24.2317 13.8907 24.209 13.8907 24.1757L13.8907 23.4617C13.8907 23.451 13.888 23.4424 13.8827 23.4357C13.8787 23.429 13.8727 23.4257 13.8647 23.4257L13.8027 23.4257L13.7947 23.4057C13.82 23.3817 13.8527 23.363 13.8927 23.3497C13.934 23.335 13.9747 23.3277 14.0147 23.3277C14.032 23.3277 14.046 23.3317 14.0567 23.3397C14.0673 23.3464 14.0727 23.3564 14.0727 23.3697L14.0727 23.8637C14.0913 23.801 14.124 23.749 14.1707 23.7077C14.2187 23.665 14.2693 23.6437 14.3227 23.6437C14.38 23.6437 14.4213 23.6624 14.4467 23.6997C14.4733 23.737 14.4867 23.7964 14.4867 23.8777L14.4867 24.1937Z" begin="0s" dur="3s" repeatCount="indefinite" fill="freeze" calcMode="linear" keyTimes="0;0.5;1"/></path>
<path id="Vector_8" d="M13.4107 24.3257C13.268 24.3257 13.1587 24.2804 13.0827 24.1897C13.008 24.099 12.9707 23.983 12.9707 23.8417C12.9707 23.7004 13.0087 23.5844 13.0847 23.4937C13.1607 23.4017 13.2707 23.3557 13.4147 23.3557C13.5067 23.3557 13.5814 23.3737 13.6387 23.4097C13.6974 23.4444 13.7267 23.4904 13.7267 23.5477C13.7267 23.6037 13.7034 23.6477 13.6567 23.6797C13.61 23.7117 13.5514 23.7277 13.4807 23.7277C13.5207 23.685 13.5407 23.627 13.5407 23.5537C13.5407 23.511 13.5274 23.4757 13.5007 23.4477C13.4754 23.4184 13.442 23.4037 13.4007 23.4037C13.3247 23.4037 13.2687 23.447 13.2327 23.5337C13.198 23.6204 13.1807 23.723 13.1807 23.8417C13.1807 23.9177 13.1914 23.987 13.2127 24.0497C13.2354 24.1124 13.2674 24.1624 13.3087 24.1997C13.3514 24.2357 13.4 24.2537 13.4547 24.2537C13.5174 24.2537 13.5694 24.241 13.6107 24.2157C13.6534 24.189 13.692 24.1524 13.7267 24.1057L13.7507 24.1237C13.7147 24.1837 13.668 24.2324 13.6107 24.2697C13.5547 24.307 13.488 24.3257 13.4107 24.3257Z" fill="#00005B">
                                    <animate attributeName="d" values="M13.4107 24.3257C13.268 24.3257 13.1587 24.2804 13.0827 24.1897C13.008 24.099 12.9707 23.983 12.9707 23.8417C12.9707 23.7004 13.0087 23.5844 13.0847 23.4937C13.1607 23.4017 13.2707 23.3557 13.4147 23.3557C13.5067 23.3557 13.5814 23.3737 13.6387 23.4097C13.6974 23.4444 13.7267 23.4904 13.7267 23.5477C13.7267 23.6037 13.7034 23.6477 13.6567 23.6797C13.61 23.7117 13.5514 23.7277 13.4807 23.7277C13.5207 23.685 13.5407 23.627 13.5407 23.5537C13.5407 23.511 13.5274 23.4757 13.5007 23.4477C13.4754 23.4184 13.442 23.4037 13.4007 23.4037C13.3247 23.4037 13.2687 23.447 13.2327 23.5337C13.198 23.6204 13.1807 23.723 13.1807 23.8417C13.1807 23.9177 13.1914 23.987 13.2127 24.0497C13.2354 24.1124 13.2674 24.1624 13.3087 24.1997C13.3514 24.2357 13.4 24.2537 13.4547 24.2537C13.5174 24.2537 13.5694 24.241 13.6107 24.2157C13.6534 24.189 13.692 24.1524 13.7267 24.1057L13.7507 24.1237C13.7147 24.1837 13.668 24.2324 13.6107 24.2697C13.5547 24.307 13.488 24.3257 13.4107 24.3257Z;M15.4107 24.3257C15.268 24.3257 15.1587 24.2804 15.0827 24.1897C15.008 24.099 14.9707 23.983 14.9707 23.8417C14.9707 23.7004 15.0087 23.5844 15.0847 23.4937C15.1607 23.4017 15.2707 23.3557 15.4147 23.3557C15.5067 23.3557 15.5814 23.3737 15.6387 23.4097C15.6974 23.4444 15.7267 23.4904 15.7267 23.5477C15.7267 23.6037 15.7034 23.6477 15.6567 23.6797C15.61 23.7117 15.5514 23.7277 15.4807 23.7277C15.5207 23.685 15.5407 23.627 15.5407 23.5537C15.5407 23.511 15.5274 23.4757 15.5007 23.4477C15.4754 23.4184 15.442 23.4037 15.4007 23.4037C15.3247 23.4037 15.2687 23.447 15.2327 23.5337C15.198 23.6204 15.1807 23.723 15.1807 23.8417C15.1807 23.9177 15.1914 23.987 15.2127 24.0497C15.2354 24.1124 15.2674 24.1624 15.3087 24.1997C15.3514 24.2357 15.4 24.2537 15.4547 24.2537C15.5174 24.2537 15.5694 24.241 15.6107 24.2157C15.6534 24.189 15.692 24.1524 15.7267 24.1057L15.7507 24.1237C15.7147 24.1837 15.668 24.2324 15.6107 24.2697C15.5547 24.307 15.488 24.3257 15.4107 24.3257Z;M13.4107 24.3257C13.268 24.3257 13.1587 24.2804 13.0827 24.1897C13.008 24.099 12.9707 23.983 12.9707 23.8417C12.9707 23.7004 13.0087 23.5844 13.0847 23.4937C13.1607 23.4017 13.2707 23.3557 13.4147 23.3557C13.5067 23.3557 13.5814 23.3737 13.6387 23.4097C13.6974 23.4444 13.7267 23.4904 13.7267 23.5477C13.7267 23.6037 13.7034 23.6477 13.6567 23.6797C13.61 23.7117 13.5514 23.7277 13.4807 23.7277C13.5207 23.685 13.5407 23.627 13.5407 23.5537C13.5407 23.511 13.5274 23.4757 13.5007 23.4477C13.4754 23.4184 13.442 23.4037 13.4007 23.4037C13.3247 23.4037 13.2687 23.447 13.2327 23.5337C13.198 23.6204 13.1807 23.723 13.1807 23.8417C13.1807 23.9177 13.1914 23.987 13.2127 24.0497C13.2354 24.1124 13.2674 24.1624 13.3087 24.1997C13.3514 24.2357 13.4 24.2537 13.4547 24.2537C13.5174 24.2537 13.5694 24.241 13.6107 24.2157C13.6534 24.189 13.692 24.1524 13.7267 24.1057L13.7507 24.1237C13.7147 24.1837 13.668 24.2324 13.6107 24.2697C13.5547 24.307 13.488 24.3257 13.4107 24.3257Z" begin="0s" dur="3s" repeatCount="indefinite" fill="freeze" calcMode="linear" keyTimes="0;0.5;1"/></path>
<path id="Vector_9" d="M12.2503 24.2437C12.201 24.2984 12.143 24.3257 12.0763 24.3257C12.035 24.3257 12.0043 24.317 11.9843 24.2997C11.9643 24.281 11.951 24.251 11.9443 24.2097C11.9097 24.2497 11.8737 24.279 11.8363 24.2977C11.799 24.3164 11.7577 24.3257 11.7123 24.3257C11.6457 24.3257 11.591 24.2964 11.5483 24.2377C11.507 24.179 11.4863 24.103 11.4863 24.0097C11.4863 23.8977 11.5157 23.809 11.5743 23.7437C11.633 23.677 11.713 23.6437 11.8143 23.6437C11.861 23.6437 11.9037 23.6544 11.9423 23.6757L11.9423 23.4537C11.9423 23.435 11.9337 23.4257 11.9163 23.4257L11.8483 23.4257L11.8403 23.4057C11.867 23.3817 11.901 23.363 11.9423 23.3497C11.9837 23.335 12.0243 23.3277 12.0643 23.3277C12.0817 23.3277 12.0957 23.3317 12.1063 23.3397C12.117 23.3464 12.1223 23.3564 12.1223 23.3697L12.1223 24.1937C12.1223 24.2337 12.135 24.2537 12.1603 24.2537C12.1857 24.2537 12.2103 24.2437 12.2343 24.2237L12.2503 24.2437ZM11.8163 24.2297C11.867 24.2297 11.909 24.2017 11.9423 24.1457L11.9423 23.7157C11.9157 23.7024 11.8863 23.6957 11.8543 23.6957C11.7423 23.6957 11.6863 23.7924 11.6863 23.9857C11.6863 24.0644 11.697 24.125 11.7183 24.1677C11.741 24.209 11.7737 24.2297 11.8163 24.2297Z" fill="#00005B">
                                    <animate attributeName="d" values="M12.2503 24.2437C12.201 24.2984 12.143 24.3257 12.0763 24.3257C12.035 24.3257 12.0043 24.317 11.9843 24.2997C11.9643 24.281 11.951 24.251 11.9443 24.2097C11.9097 24.2497 11.8737 24.279 11.8363 24.2977C11.799 24.3164 11.7577 24.3257 11.7123 24.3257C11.6457 24.3257 11.591 24.2964 11.5483 24.2377C11.507 24.179 11.4863 24.103 11.4863 24.0097C11.4863 23.8977 11.5157 23.809 11.5743 23.7437C11.633 23.677 11.713 23.6437 11.8143 23.6437C11.861 23.6437 11.9037 23.6544 11.9423 23.6757L11.9423 23.4537C11.9423 23.435 11.9337 23.4257 11.9163 23.4257L11.8483 23.4257L11.8403 23.4057C11.867 23.3817 11.901 23.363 11.9423 23.3497C11.9837 23.335 12.0243 23.3277 12.0643 23.3277C12.0817 23.3277 12.0957 23.3317 12.1063 23.3397C12.117 23.3464 12.1223 23.3564 12.1223 23.3697L12.1223 24.1937C12.1223 24.2337 12.135 24.2537 12.1603 24.2537C12.1857 24.2537 12.2103 24.2437 12.2343 24.2237L12.2503 24.2437ZM11.8163 24.2297C11.867 24.2297 11.909 24.2017 11.9423 24.1457L11.9423 23.7157C11.9157 23.7024 11.8863 23.6957 11.8543 23.6957C11.7423 23.6957 11.6863 23.7924 11.6863 23.9857C11.6863 24.0644 11.697 24.125 11.7183 24.1677C11.741 24.209 11.7737 24.2297 11.8163 24.2297Z;M14.2503 24.2437C14.201 24.2984 14.143 24.3257 14.0763 24.3257C14.035 24.3257 14.0043 24.317 13.9843 24.2997C13.9643 24.281 13.951 24.251 13.9443 24.2097C13.9097 24.2497 13.8737 24.279 13.8363 24.2977C13.799 24.3164 13.7577 24.3257 13.7123 24.3257C13.6457 24.3257 13.591 24.2964 13.5483 24.2377C13.507 24.179 13.4863 24.103 13.4863 24.0097C13.4863 23.8977 13.5157 23.809 13.5743 23.7437C13.633 23.677 13.713 23.6437 13.8143 23.6437C13.861 23.6437 13.9037 23.6544 13.9423 23.6757L13.9423 23.4537C13.9423 23.435 13.9337 23.4257 13.9163 23.4257L13.8483 23.4257L13.8403 23.4057C13.867 23.3817 13.901 23.363 13.9423 23.3497C13.9837 23.335 14.0243 23.3277 14.0643 23.3277C14.0817 23.3277 14.0957 23.3317 14.1063 23.3397C14.117 23.3464 14.1223 23.3564 14.1223 23.3697L14.1223 24.1937C14.1223 24.2337 14.135 24.2537 14.1603 24.2537C14.1857 24.2537 14.2103 24.2437 14.2343 24.2237L14.2503 24.2437ZM13.8163 24.2297C13.867 24.2297 13.909 24.2017 13.9423 24.1457L13.9423 23.7157C13.9157 23.7024 13.8863 23.6957 13.8543 23.6957C13.7423 23.6957 13.6863 23.7924 13.6863 23.9857C13.6863 24.0644 13.697 24.125 13.7183 24.1677C13.741 24.209 13.7737 24.2297 13.8163 24.2297Z;M12.2503 24.2437C12.201 24.2984 12.143 24.3257 12.0763 24.3257C12.035 24.3257 12.0043 24.317 11.9843 24.2997C11.9643 24.281 11.951 24.251 11.9443 24.2097C11.9097 24.2497 11.8737 24.279 11.8363 24.2977C11.799 24.3164 11.7577 24.3257 11.7123 24.3257C11.6457 24.3257 11.591 24.2964 11.5483 24.2377C11.507 24.179 11.4863 24.103 11.4863 24.0097C11.4863 23.8977 11.5157 23.809 11.5743 23.7437C11.633 23.677 11.713 23.6437 11.8143 23.6437C11.861 23.6437 11.9037 23.6544 11.9423 23.6757L11.9423 23.4537C11.9423 23.435 11.9337 23.4257 11.9163 23.4257L11.8483 23.4257L11.8403 23.4057C11.867 23.3817 11.901 23.363 11.9423 23.3497C11.9837 23.335 12.0243 23.3277 12.0643 23.3277C12.0817 23.3277 12.0957 23.3317 12.1063 23.3397C12.117 23.3464 12.1223 23.3564 12.1223 23.3697L12.1223 24.1937C12.1223 24.2337 12.135 24.2537 12.1603 24.2537C12.1857 24.2537 12.2103 24.2437 12.2343 24.2237L12.2503 24.2437ZM11.8163 24.2297C11.867 24.2297 11.909 24.2017 11.9423 24.1457L11.9423 23.7157C11.9157 23.7024 11.8863 23.6957 11.8543 23.6957C11.7423 23.6957 11.6863 23.7924 11.6863 23.9857C11.6863 24.0644 11.697 24.125 11.7183 24.1677C11.741 24.209 11.7737 24.2297 11.8163 24.2297Z" begin="0s" dur="3s" repeatCount="indefinite" fill="freeze" calcMode="linear" keyTimes="0;0.5;1"/></path>
<path id="Vector_10" d="M11.3142 24.1937C11.3142 24.2337 11.3269 24.2537 11.3522 24.2537C11.3775 24.2537 11.4022 24.2437 11.4262 24.2237L11.4422 24.2437C11.3955 24.2984 11.3375 24.3257 11.2682 24.3257C11.2215 24.3257 11.1875 24.315 11.1662 24.2937C11.1449 24.271 11.1342 24.2357 11.1342 24.1877L11.1342 23.4537C11.1342 23.435 11.1255 23.4257 11.1082 23.4257L11.0442 23.4257L11.0382 23.4057C11.0635 23.3817 11.0962 23.363 11.1362 23.3497C11.1775 23.335 11.2182 23.3277 11.2582 23.3277C11.2755 23.3277 11.2889 23.3317 11.2982 23.3397C11.3089 23.3464 11.3142 23.3564 11.3142 23.3697L11.3142 24.1937Z" fill="#00005B">
                                    <animate attributeName="d" values="M11.3142 24.1937C11.3142 24.2337 11.3269 24.2537 11.3522 24.2537C11.3775 24.2537 11.4022 24.2437 11.4262 24.2237L11.4422 24.2437C11.3955 24.2984 11.3375 24.3257 11.2682 24.3257C11.2215 24.3257 11.1875 24.315 11.1662 24.2937C11.1449 24.271 11.1342 24.2357 11.1342 24.1877L11.1342 23.4537C11.1342 23.435 11.1255 23.4257 11.1082 23.4257L11.0442 23.4257L11.0382 23.4057C11.0635 23.3817 11.0962 23.363 11.1362 23.3497C11.1775 23.335 11.2182 23.3277 11.2582 23.3277C11.2755 23.3277 11.2889 23.3317 11.2982 23.3397C11.3089 23.3464 11.3142 23.3564 11.3142 23.3697L11.3142 24.1937Z;M13.3142 23.1937C13.3142 23.2337 13.3269 23.2537 13.3522 23.2537C13.3775 23.2537 13.4022 23.2437 13.4262 23.2237L13.4422 23.2437C13.3955 23.2984 13.3375 23.3257 13.2682 23.3257C13.2215 23.3257 13.1875 23.315 13.1662 23.2937C13.1449 23.271 13.1342 23.2357 13.1342 23.1877L13.1342 22.4537C13.1342 22.435 13.1255 22.4257 13.1082 22.4257L13.0442 22.4257L13.0382 22.4057C13.0635 22.3817 13.0962 22.363 13.1362 22.3497C13.1775 22.335 13.2182 22.3277 13.2582 22.3277C13.2755 22.3277 13.2889 22.3317 13.2982 22.3397C13.3089 22.3464 13.3142 22.3564 13.3142 22.3697L13.3142 23.1937Z;M11.3142 24.1937C11.3142 24.2337 11.3269 24.2537 11.3522 24.2537C11.3775 24.2537 11.4022 24.2437 11.4262 24.2237L11.4422 24.2437C11.3955 24.2984 11.3375 24.3257 11.2682 24.3257C11.2215 24.3257 11.1875 24.315 11.1662 24.2937C11.1449 24.271 11.1342 24.2357 11.1342 24.1877L11.1342 23.4537C11.1342 23.435 11.1255 23.4257 11.1082 23.4257L11.0442 23.4257L11.0382 23.4057C11.0635 23.3817 11.0962 23.363 11.1362 23.3497C11.1775 23.335 11.2182 23.3277 11.2582 23.3277C11.2755 23.3277 11.2889 23.3317 11.2982 23.3397C11.3089 23.3464 11.3142 23.3564 11.3142 23.3697L11.3142 24.1937Z" begin="0s" dur="3s" repeatCount="indefinite" fill="freeze" calcMode="linear" keyTimes="0;0.5;1"/></path>
<path id="Vector_11" d="M10.3066 23.9857C10.3066 23.8803 10.3366 23.797 10.3966 23.7357C10.458 23.6743 10.5406 23.6437 10.6446 23.6437C10.7486 23.6437 10.8313 23.675 10.8926 23.7377C10.954 23.799 10.9846 23.8817 10.9846 23.9857C10.9846 24.0897 10.954 24.1723 10.8926 24.2337C10.8313 24.295 10.7486 24.3257 10.6446 24.3257C10.5406 24.3257 10.458 24.295 10.3966 24.2337C10.3366 24.1723 10.3066 24.0897 10.3066 23.9857ZM10.7826 23.9897C10.7826 23.9003 10.77 23.8277 10.7446 23.7717C10.7193 23.7143 10.6873 23.6857 10.6486 23.6857C10.606 23.6857 10.5713 23.7137 10.5446 23.7697C10.518 23.8243 10.5046 23.8963 10.5046 23.9857C10.5046 24.0763 10.5166 24.1483 10.5406 24.2017C10.566 24.255 10.5993 24.2817 10.6406 24.2817C10.682 24.2817 10.716 24.255 10.7426 24.2017C10.7693 24.147 10.7826 24.0763 10.7826 23.9897Z" fill="#00005B">
                                    <animate attributeName="d" values="M10.3066 23.9857C10.3066 23.8803 10.3366 23.797 10.3966 23.7357C10.458 23.6743 10.5406 23.6437 10.6446 23.6437C10.7486 23.6437 10.8313 23.675 10.8926 23.7377C10.954 23.799 10.9846 23.8817 10.9846 23.9857C10.9846 24.0897 10.954 24.1723 10.8926 24.2337C10.8313 24.295 10.7486 24.3257 10.6446 24.3257C10.5406 24.3257 10.458 24.295 10.3966 24.2337C10.3366 24.1723 10.3066 24.0897 10.3066 23.9857ZM10.7826 23.9897C10.7826 23.9003 10.77 23.8277 10.7446 23.7717C10.7193 23.7143 10.6873 23.6857 10.6486 23.6857C10.606 23.6857 10.5713 23.7137 10.5446 23.7697C10.518 23.8243 10.5046 23.8963 10.5046 23.9857C10.5046 24.0763 10.5166 24.1483 10.5406 24.2017C10.566 24.255 10.5993 24.2817 10.6406 24.2817C10.682 24.2817 10.716 24.255 10.7426 24.2017C10.7693 24.147 10.7826 24.0763 10.7826 23.9897Z;M11.3066 23.9857C11.3066 23.8803 11.3366 23.797 11.3966 23.7357C11.458 23.6743 11.5406 23.6437 11.6446 23.6437C11.7486 23.6437 11.8313 23.675 11.8926 23.7377C11.954 23.799 11.9846 23.8817 11.9846 23.9857C11.9846 24.0897 11.954 24.1723 11.8926 24.2337C11.8313 24.295 11.7486 24.3257 11.6446 24.3257C11.5406 24.3257 11.458 24.295 11.3966 24.2337C11.3366 24.1723 11.3066 24.0897 11.3066 23.9857ZM11.7826 23.9897C11.7826 23.9003 11.77 23.8277 11.7446 23.7717C11.7193 23.7143 11.6873 23.6857 11.6486 23.6857C11.606 23.6857 11.5713 23.7137 11.5446 23.7697C11.518 23.8243 11.5046 23.8963 11.5046 23.9857C11.5046 24.0763 11.5166 24.1483 11.5406 24.2017C11.566 24.255 11.5993 24.2817 11.6406 24.2817C11.682 24.2817 11.716 24.255 11.7426 24.2017C11.7693 24.147 11.7826 24.0763 11.7826 23.9897Z;M10.3066 23.9857C10.3066 23.8803 10.3366 23.797 10.3966 23.7357C10.458 23.6743 10.5406 23.6437 10.6446 23.6437C10.7486 23.6437 10.8313 23.675 10.8926 23.7377C10.954 23.799 10.9846 23.8817 10.9846 23.9857C10.9846 24.0897 10.954 24.1723 10.8926 24.2337C10.8313 24.295 10.7486 24.3257 10.6446 24.3257C10.5406 24.3257 10.458 24.295 10.3966 24.2337C10.3366 24.1723 10.3066 24.0897 10.3066 23.9857ZM10.7826 23.9897C10.7826 23.9003 10.77 23.8277 10.7446 23.7717C10.7193 23.7143 10.6873 23.6857 10.6486 23.6857C10.606 23.6857 10.5713 23.7137 10.5446 23.7697C10.518 23.8243 10.5046 23.8963 10.5046 23.9857C10.5046 24.0763 10.5166 24.1483 10.5406 24.2017C10.566 24.255 10.5993 24.2817 10.6406 24.2817C10.682 24.2817 10.716 24.255 10.7426 24.2017C10.7693 24.147 10.7826 24.0763 10.7826 23.9897Z" begin="0s" dur="3s" repeatCount="indefinite" fill="freeze" calcMode="linear" keyTimes="0;0.5;1"/></path>
<path id="Vector_12" d="M10.1001 24.0557C10.1001 24.1024 10.1021 24.1377 10.1061 24.1617C10.1101 24.1857 10.1181 24.2064 10.1301 24.2237C10.1421 24.2411 10.1608 24.2611 10.1861 24.2837L10.1701 24.3077L9.81813 24.3077L9.80613 24.2717C9.8368 24.2637 9.8588 24.2557 9.87213 24.2477C9.8868 24.2384 9.89613 24.2264 9.90013 24.2117C9.90547 24.1957 9.90813 24.1724 9.90813 24.1417L9.90813 23.8617L9.55413 23.8617L9.55413 24.0557C9.55413 24.1024 9.55613 24.1384 9.56013 24.1637C9.56413 24.1877 9.57147 24.2084 9.58213 24.2257C9.59413 24.2417 9.6128 24.2611 9.63813 24.2837L9.62413 24.3077L9.27213 24.3077L9.26013 24.2717C9.30413 24.2597 9.33213 24.2464 9.34413 24.2317C9.35613 24.2157 9.36213 24.1857 9.36213 24.1417L9.36213 23.6217C9.36213 23.5577 9.3568 23.5131 9.34613 23.4877C9.3368 23.4611 9.3128 23.4317 9.27413 23.3997L9.29013 23.3737L9.63013 23.3737L9.64413 23.4057C9.60547 23.4284 9.5808 23.4497 9.57013 23.4697C9.55947 23.4884 9.55413 23.5224 9.55413 23.5717L9.55413 23.8057L9.90813 23.8057L9.90813 23.6217C9.90813 23.5577 9.9028 23.5131 9.89213 23.4877C9.8828 23.4611 9.8588 23.4317 9.82013 23.3997L9.83613 23.3737L10.1761 23.3737L10.1921 23.4057C10.1535 23.4284 10.1281 23.4497 10.1161 23.4697C10.1055 23.4884 10.1001 23.5224 10.1001 23.5717L10.1001 24.0557Z" fill="#00005B">
                                    <animate attributeName="d" values="M10.1001 24.0557C10.1001 24.1024 10.1021 24.1377 10.1061 24.1617C10.1101 24.1857 10.1181 24.2064 10.1301 24.2237C10.1421 24.2411 10.1608 24.2611 10.1861 24.2837L10.1701 24.3077L9.81813 24.3077L9.80613 24.2717C9.8368 24.2637 9.8588 24.2557 9.87213 24.2477C9.8868 24.2384 9.89613 24.2264 9.90013 24.2117C9.90547 24.1957 9.90813 24.1724 9.90813 24.1417L9.90813 23.8617L9.55413 23.8617L9.55413 24.0557C9.55413 24.1024 9.55613 24.1384 9.56013 24.1637C9.56413 24.1877 9.57147 24.2084 9.58213 24.2257C9.59413 24.2417 9.6128 24.2611 9.63813 24.2837L9.62413 24.3077L9.27213 24.3077L9.26013 24.2717C9.30413 24.2597 9.33213 24.2464 9.34413 24.2317C9.35613 24.2157 9.36213 24.1857 9.36213 24.1417L9.36213 23.6217C9.36213 23.5577 9.3568 23.5131 9.34613 23.4877C9.3368 23.4611 9.3128 23.4317 9.27413 23.3997L9.29013 23.3737L9.63013 23.3737L9.64413 23.4057C9.60547 23.4284 9.5808 23.4497 9.57013 23.4697C9.55947 23.4884 9.55413 23.5224 9.55413 23.5717L9.55413 23.8057L9.90813 23.8057L9.90813 23.6217C9.90813 23.5577 9.9028 23.5131 9.89213 23.4877C9.8828 23.4611 9.8588 23.4317 9.82013 23.3997L9.83613 23.3737L10.1761 23.3737L10.1921 23.4057C10.1535 23.4284 10.1281 23.4497 10.1161 23.4697C10.1055 23.4884 10.1001 23.5224 10.1001 23.5717L10.1001 24.0557Z;M10.1001 23.0557C10.1001 23.1024 10.1021 23.1377 10.1061 23.1617C10.1101 23.1857 10.1181 23.2064 10.1301 23.2237C10.1421 23.2411 10.1608 23.2611 10.1861 23.2837L10.1701 23.3077L9.81813 23.3077L9.80613 23.2717C9.8368 23.2637 9.8588 23.2557 9.87213 23.2477C9.8868 23.2384 9.89613 23.2264 9.90013 23.2117C9.90547 23.1957 9.90813 23.1724 9.90813 23.1417L9.90813 22.8617L9.55413 22.8617L9.55413 23.0557C9.55413 23.1024 9.55613 23.1384 9.56013 23.1637C9.56413 23.1877 9.57147 23.2084 9.58213 23.2257C9.59413 23.2417 9.6128 23.2611 9.63813 23.2837L9.62413 23.3077L9.27213 23.3077L9.26013 23.2717C9.30413 23.2597 9.33213 23.2464 9.34413 23.2317C9.35613 23.2157 9.36213 23.1857 9.36213 23.1417L9.36213 22.6217C9.36213 22.5577 9.3568 22.5131 9.34613 22.4877C9.3368 22.4611 9.3128 22.4317 9.27413 22.3997L9.29013 22.3737L9.63013 22.3737L9.64413 22.4057C9.60547 22.4284 9.5808 22.4497 9.57013 22.4697C9.55947 22.4884 9.55413 22.5224 9.55413 22.5717L9.55413 22.8057L9.90813 22.8057L9.90813 22.6217C9.90813 22.5577 9.9028 22.5131 9.89213 22.4877C9.8828 22.4611 9.8588 22.4317 9.82013 22.3997L9.83613 22.3737L10.1761 22.3737L10.1921 22.4057C10.1535 22.4284 10.1281 22.4497 10.1161 22.4697C10.1055 22.4884 10.1001 22.5224 10.1001 22.5717L10.1001 23.0557Z;M10.1001 24.0557C10.1001 24.1024 10.1021 24.1377 10.1061 24.1617C10.1101 24.1857 10.1181 24.2064 10.1301 24.2237C10.1421 24.2411 10.1608 24.2611 10.1861 24.2837L10.1701 24.3077L9.81813 24.3077L9.80613 24.2717C9.8368 24.2637 9.8588 24.2557 9.87213 24.2477C9.8868 24.2384 9.89613 24.2264 9.90013 24.2117C9.90547 24.1957 9.90813 24.1724 9.90813 24.1417L9.90813 23.8617L9.55413 23.8617L9.55413 24.0557C9.55413 24.1024 9.55613 24.1384 9.56013 24.1637C9.56413 24.1877 9.57147 24.2084 9.58213 24.2257C9.59413 24.2417 9.6128 24.2611 9.63813 24.2837L9.62413 24.3077L9.27213 24.3077L9.26013 24.2717C9.30413 24.2597 9.33213 24.2464 9.34413 24.2317C9.35613 24.2157 9.36213 24.1857 9.36213 24.1417L9.36213 23.6217C9.36213 23.5577 9.3568 23.5131 9.34613 23.4877C9.3368 23.4611 9.3128 23.4317 9.27413 23.3997L9.29013 23.3737L9.63013 23.3737L9.64413 23.4057C9.60547 23.4284 9.5808 23.4497 9.57013 23.4697C9.55947 23.4884 9.55413 23.5224 9.55413 23.5717L9.55413 23.8057L9.90813 23.8057L9.90813 23.6217C9.90813 23.5577 9.9028 23.5131 9.89213 23.4877C9.8828 23.4611 9.8588 23.4317 9.82013 23.3997L9.83613 23.3737L10.1761 23.3737L10.1921 23.4057C10.1535 23.4284 10.1281 23.4497 10.1161 23.4697C10.1055 23.4884 10.1001 23.5224 10.1001 23.5717L10.1001 24.0557Z" begin="0s" dur="3s" repeatCount="indefinite" fill="freeze" calcMode="linear" keyTimes="0;0.5;1"/></path>
</g>
</g>
<g id="*********** 8968">
<path id="Vector_13" d="M21.6501 28.7019C21.7018 28.7294 21.7443 28.7551 21.7775 28.7791C21.8115 28.8023 21.8397 28.8295 21.8618 28.8606C21.8848 28.8909 21.8967 28.9253 21.8974 28.9638C21.8981 29.0053 21.881 29.0506 21.8459 29.0998C21.8108 29.1482 21.7676 29.1894 21.7162 29.2235C21.6656 29.2567 21.6191 29.2738 21.5767 29.2746C21.5031 29.276 21.4369 29.2654 21.3781 29.2426C21.3192 29.2192 21.273 29.187 21.2395 29.1461C21.2059 29.1044 21.1886 29.0582 21.1877 29.0074C21.187 28.969 21.2034 28.9302 21.2371 28.8911C21.2716 28.8512 21.329 28.8008 21.4095 28.74C21.3577 28.7072 21.3171 28.6733 21.2876 28.6385C21.2582 28.6037 21.243 28.5643 21.2422 28.5205C21.2415 28.4836 21.2576 28.4437 21.2904 28.4007C21.3232 28.3578 21.3633 28.3212 21.4108 28.2911C21.459 28.2609 21.5035 28.2454 21.5443 28.2446C21.5963 28.2436 21.6429 28.2524 21.684 28.2708C21.726 28.2885 21.7584 28.3132 21.7814 28.3451C21.8052 28.3762 21.8174 28.4106 21.8181 28.4483C21.8156 28.4822 21.8026 28.5174 21.7793 28.554C21.756 28.5906 21.7125 28.6396 21.6488 28.7008L21.6501 28.7019ZM21.517 28.3248C21.4818 28.3255 21.4525 28.3391 21.4289 28.3657C21.4054 28.3916 21.394 28.4241 21.3948 28.4633C21.3955 28.5041 21.413 28.5399 21.4472 28.5708C21.4814 28.6017 21.5312 28.6354 21.5967 28.6718C21.6311 28.6296 21.6529 28.598 21.6621 28.5771C21.6713 28.5553 21.6757 28.5314 21.6752 28.5053C21.6742 28.453 21.6586 28.4098 21.6284 28.3757C21.5989 28.3417 21.5618 28.3251 21.517 28.3259L21.517 28.3248ZM21.58 29.1926C21.6128 29.192 21.6418 29.1837 21.6671 29.1678C21.6924 29.1512 21.7116 29.1297 21.7247 29.1033C21.7379 29.0769 21.7441 29.0486 21.7436 29.0187C21.743 28.9894 21.7321 28.9623 21.7109 28.9373C21.6904 28.9116 21.6647 28.889 21.634 28.8696C21.6032 28.8494 21.5619 28.8252 21.5102 28.7969L21.4605 28.769C21.4116 28.81 21.3794 28.8429 21.3639 28.8678C21.3491 28.892 21.342 28.9187 21.3426 28.9479C21.3434 28.991 21.355 29.0315 21.3773 29.0696C21.3996 29.1076 21.4289 29.1378 21.4654 29.1602C21.5018 29.1826 21.5404 29.1934 21.5812 29.1926L21.58 29.1926Z" fill="white"/>
<path id="Vector_14" d="M20.9135 28.3029C20.761 28.4051 20.6512 28.5034 20.5841 28.5978C20.5171 28.6921 20.4845 28.7878 20.4863 28.8847C20.4873 28.9416 20.4967 28.9937 20.5144 29.0411C20.5321 29.0877 20.558 29.1249 20.5921 29.1527C20.627 29.1805 20.6689 29.1939 20.7177 29.193C20.816 29.1911 20.8641 29.1279 20.8617 29.0033C20.8604 28.9333 20.8357 28.8745 20.7876 28.827C20.7403 28.7786 20.6797 28.7436 20.6057 28.722L20.6419 28.6694C20.7115 28.668 20.7745 28.6791 20.8309 28.7026C20.8882 28.7262 20.9332 28.7595 20.966 28.8028C20.9988 28.8452 21.0157 28.893 21.0167 28.946C21.0177 28.9999 21.0003 29.0537 20.9645 29.1075C20.9295 29.1605 20.8831 29.2041 20.8253 29.2382C20.7683 29.2724 20.7099 29.2901 20.6499 29.2912C20.5899 29.2924 20.5356 29.2781 20.487 29.2482C20.4393 29.2176 20.4017 29.1756 20.3743 29.1223C20.3469 29.0682 20.3325 29.0081 20.3313 28.9419C20.3297 28.8558 20.3438 28.7766 20.3737 28.7045C20.4043 28.6316 20.4602 28.5582 20.5412 28.4843C20.6222 28.4105 20.7364 28.3344 20.8838 28.2562L20.9135 28.3029Z" fill="white"/>
<path id="Vector_15" d="M19.7967 28.6256C19.8567 28.6244 19.9106 28.6376 19.9583 28.6652C20.0068 28.6927 20.0447 28.7308 20.072 28.7795C20.0993 28.8275 20.1135 28.8811 20.1146 28.9403C20.1162 29.0241 20.1016 29.1013 20.0709 29.1719C20.0411 29.2425 19.9856 29.3136 19.9045 29.3852C19.8234 29.4568 19.7092 29.5301 19.5617 29.6053L19.5321 29.5585C19.6846 29.4594 19.7945 29.3646 19.8616 29.2741C19.9287 29.1828 19.9614 29.0906 19.9597 28.9975C19.9587 28.9468 19.9495 28.9004 19.9319 28.8584C19.9143 28.8164 19.8881 28.7835 19.8532 28.7595C19.8191 28.7348 19.7777 28.7229 19.7289 28.7238C19.6306 28.7257 19.5825 28.789 19.5848 28.9136C19.5862 28.9835 19.6093 29.0427 19.6542 29.0911C19.6999 29.1387 19.7581 29.1733 19.8289 29.1951L19.7927 29.2477C19.7255 29.249 19.6645 29.2379 19.6097 29.2143C19.5548 29.1907 19.5114 29.1577 19.4794 29.1152C19.4474 29.072 19.4309 29.0238 19.4299 28.9708C19.4289 28.9169 19.4459 28.8635 19.4809 28.8105C19.5167 28.7568 19.5631 28.7128 19.6201 28.6786C19.6778 28.6444 19.7367 28.6267 19.7967 28.6256Z" fill="white"/>
<path id="Vector_16" d="M19.0163 28.7525C19.068 28.78 19.1105 28.8057 19.1437 28.8297C19.1778 28.8529 19.2059 28.8801 19.2281 28.9112C19.251 28.9415 19.2629 28.9759 19.2636 29.0144C19.2644 29.0559 19.2472 29.1012 19.2121 29.1504C19.177 29.1988 19.1338 29.24 19.0824 29.274C19.0318 29.3073 18.9853 29.3244 18.9429 29.3252C18.8693 29.3266 18.8031 29.316 18.7443 29.2932C18.6855 29.2698 18.6392 29.2376 18.6057 29.1967C18.5721 29.155 18.5548 29.1088 18.5539 29.058C18.5532 29.0196 18.5696 28.9808 18.6033 28.9417C18.6378 28.9018 18.6953 28.8514 18.7757 28.7906C18.7239 28.7578 18.6833 28.7239 18.6538 28.6891C18.6244 28.6543 18.6092 28.6149 18.6084 28.5711C18.6077 28.5342 18.6238 28.4943 18.6566 28.4513C18.6894 28.4084 18.7295 28.3718 18.777 28.3417C18.8252 28.3115 18.8697 28.296 18.9105 28.2952C18.9625 28.2942 19.0091 28.303 19.0502 28.3214C19.0922 28.3391 19.1246 28.3638 19.1476 28.3957C19.1714 28.4268 19.1837 28.4612 19.1844 28.4989C19.1818 28.5328 19.1688 28.568 19.1455 28.6046C19.1222 28.6412 19.0787 28.6902 19.015 28.7514L19.0163 28.7525ZM18.8832 28.3754C18.848 28.3761 18.8187 28.3897 18.7952 28.4163C18.7716 28.4422 18.7602 28.4747 18.761 28.5139C18.7617 28.5547 18.7792 28.5905 18.8134 28.6214C18.8476 28.6523 18.8974 28.686 18.9629 28.7224C18.9973 28.6802 19.0191 28.6486 19.0283 28.6277C19.0375 28.6059 19.0419 28.582 19.0414 28.5558C19.0404 28.5035 19.0248 28.4604 18.9946 28.4263C18.9651 28.3923 18.928 28.3757 18.8832 28.3765L18.8832 28.3754ZM18.9462 29.2432C18.979 29.2426 19.008 29.2343 19.0334 29.2184C19.0586 29.2018 19.0778 29.1803 19.091 29.1539C19.1041 29.1274 19.1103 29.0992 19.1098 29.0693C19.1092 29.04 19.0983 29.0129 19.0771 28.9879C19.0566 28.9622 19.031 28.9396 19.0002 28.9202C18.9694 28.9 18.9281 28.8758 18.8764 28.8475L18.8267 28.8196C18.7778 28.8606 18.7456 28.8935 18.7301 28.9184C18.7154 28.9426 18.7083 28.9693 18.7088 28.9985C18.7096 29.0416 18.7212 29.0821 18.7435 29.1202C18.7658 29.1582 18.7952 29.1884 18.8316 29.2108C18.868 29.2332 18.9066 29.244 18.9474 29.2432L18.9462 29.2432Z" fill="white"/>
<path id="Vector_17" d="M17.7112 28.7038L17.728 28.5061L17.8699 28.3949L17.9542 28.5376L17.9368 28.5691L17.8434 28.5201L17.7318 28.715L17.7112 28.7038ZM17.7064 28.7027L17.6862 28.7147L17.5161 28.6025L17.4877 28.4288L17.6581 28.429L17.6779 28.4598L17.5876 28.5123L17.7064 28.7027ZM17.3259 28.7632L17.4121 28.6219L17.4493 28.6211L17.4511 28.7227L17.6827 28.7182L17.6831 28.7413L17.4963 28.8268L17.3259 28.7632ZM18.0042 28.839L17.967 28.8397L17.9651 28.7382L17.7336 28.7426L17.7331 28.7195L17.92 28.634L18.0904 28.6965L18.0042 28.839ZM17.705 28.7559L17.6883 28.9547L17.5463 29.0647L17.4621 28.9233L17.4795 28.8918L17.5716 28.9408L17.6844 28.7459L17.705 28.7559ZM17.9286 29.032L17.7582 29.0318L17.7384 29.001L17.8298 28.9473L17.7098 28.7581L17.73 28.7461L17.9001 28.8583L17.9286 29.032Z" fill="white"/>
<path id="Vector_18" d="M16.8735 28.7199L16.8902 28.5223L17.0321 28.411L17.1164 28.5537L17.099 28.5852L17.0057 28.5362L16.8941 28.7311L16.8735 28.7199ZM16.8686 28.7189L16.8485 28.7308L16.6783 28.6187L16.6499 28.4449L16.8203 28.4451L16.8401 28.4759L16.7499 28.5284L16.8686 28.7189ZM16.4881 28.7793L16.5743 28.638L16.6115 28.6372L16.6134 28.7388L16.8449 28.7343L16.8454 28.7574L16.6585 28.8429L16.4881 28.7793ZM17.1664 28.8551L17.1292 28.8558L17.1273 28.7543L16.8958 28.7587L16.8954 28.7357L17.0822 28.6501L17.2526 28.7126L17.1664 28.8551ZM16.8672 28.772L16.8505 28.9708L16.7086 29.0809L16.6243 28.9394L16.6417 28.9079L16.7339 28.9569L16.8466 28.762L16.8672 28.772ZM17.0908 29.0481L16.9204 29.0479L16.9006 29.0171L16.992 28.9635L16.8721 28.7742L16.8923 28.7623L17.0624 28.8744L17.0908 29.0481Z" fill="white"/>
<path id="Vector_19" d="M16.0357 28.736L16.0524 28.5384L16.1944 28.4272L16.2786 28.5698L16.2612 28.6013L16.1679 28.5523L16.0563 28.7472L16.0357 28.736ZM16.0309 28.735L16.0107 28.7469L15.8406 28.6348L15.8121 28.461L15.9826 28.4612L16.0023 28.492L15.9121 28.5445L16.0309 28.735ZM15.6503 28.7954L15.7365 28.6541L15.7737 28.6534L15.7756 28.7549L16.0072 28.7504L16.0076 28.7735L15.8208 28.859L15.6503 28.7954ZM16.3287 28.8712L16.2915 28.8719L16.2896 28.7704L16.058 28.7748L16.0576 28.7518L16.2444 28.6662L16.4148 28.7287L16.3287 28.8712ZM16.0295 28.7881L16.0128 28.9869L15.8708 29.097L15.7866 28.9555L15.804 28.924L15.8961 28.973L16.0089 28.7781L16.0295 28.7881ZM16.2531 29.0642L16.0826 29.064L16.0628 29.0333L16.1543 28.9796L16.0343 28.7903L16.0545 28.7784L16.2246 28.8905L16.2531 29.0642Z" fill="white"/>
<path id="Vector_20" d="M15.1979 28.7521L15.2146 28.5545L15.3566 28.4433L15.4409 28.5859L15.4235 28.6174L15.3301 28.5684L15.2185 28.7633L15.1979 28.7521ZM15.1931 28.7511L15.1729 28.763L15.0028 28.6509L14.9744 28.4772L15.1448 28.4773L15.1646 28.5081L15.0743 28.5606L15.1931 28.7511ZM14.8126 28.8115L14.8988 28.6702L14.9359 28.6695L14.9378 28.771L15.1694 28.7665L15.1698 28.7896L14.983 28.8752L14.8126 28.8115ZM15.4909 28.8873L15.4537 28.888L15.4518 28.7865L15.2203 28.791L15.2198 28.7679L15.4067 28.6823L15.5771 28.7449L15.4909 28.8873ZM15.1917 28.8042L15.175 29.003L15.033 29.1131L14.9488 28.9716L14.9662 28.9401L15.0583 28.9891L15.1711 28.7942L15.1917 28.8042ZM15.4153 29.0803L15.2449 29.0802L15.2251 29.0494L15.3165 28.9957L15.1965 28.8064L15.2167 28.7945L15.3868 28.9066L15.4153 29.0803Z" fill="white"/>
<path id="Vector_21" d="M14.3602 28.7683L14.3769 28.5706L14.5188 28.4594L14.6031 28.602L14.5857 28.6335L14.4924 28.5845L14.3808 28.7794L14.3602 28.7683ZM14.3553 28.7672L14.3352 28.7791L14.165 28.667L14.1366 28.4933L14.307 28.4935L14.3268 28.5242L14.2366 28.5768L14.3553 28.7672ZM13.9748 28.8276L14.061 28.6863L14.0982 28.6856L14.1001 28.7871L14.3316 28.7827L14.3321 28.8057L14.1452 28.8913L13.9748 28.8276ZM14.6531 28.9034L14.6159 28.9041L14.614 28.8026L14.3825 28.8071L14.3821 28.784L14.5689 28.6985L14.7393 28.761L14.6531 28.9034ZM14.3539 28.8203L14.3372 29.0191L14.1953 29.1292L14.111 28.9877L14.1284 28.9562L14.2206 29.0052L14.3333 28.8103L14.3539 28.8203ZM14.5775 29.0965L14.4071 29.0963L14.3873 29.0655L14.4787 29.0118L14.3588 28.8225L14.379 28.8106L14.5491 28.9227L14.5775 29.0965Z" fill="white"/>
<path id="Vector_22" d="M13.5225 28.7844L13.5392 28.5867L13.6812 28.4755L13.7655 28.6181L13.748 28.6496L13.6547 28.6006L13.5431 28.7955L13.5225 28.7844ZM13.5177 28.7833L13.4975 28.7952L13.3274 28.6831L13.299 28.5094L13.4694 28.5096L13.4892 28.5404L13.3989 28.5929L13.5177 28.7833ZM13.1372 28.8437L13.2233 28.7024L13.2605 28.7017L13.2624 28.8032L13.494 28.7988L13.4944 28.8218L13.3076 28.9074L13.1372 28.8437ZM13.8155 28.9195L13.7783 28.9203L13.7764 28.8187L13.5448 28.8232L13.5444 28.8001L13.7312 28.7146L13.9016 28.7771L13.8155 28.9195ZM13.5163 28.8364L13.4996 29.0352L13.3576 29.1453L13.2734 29.0038L13.2908 28.9723L13.3829 29.0213L13.4957 28.8264L13.5163 28.8364ZM13.7399 29.1126L13.5694 29.1124L13.5497 29.0816L13.6411 29.0279L13.5211 28.8386L13.5413 28.8267L13.7114 28.9388L13.7399 29.1126Z" fill="white"/>
<path id="Vector_23" d="M12.6847 28.8005L12.7015 28.6028L12.8434 28.4916L12.9277 28.6342L12.9103 28.6657L12.8169 28.6168L12.7054 28.8116L12.6847 28.8005ZM12.6799 28.7994L12.6597 28.8114L12.4896 28.6992L12.4612 28.5255L12.6316 28.5257L12.6514 28.5565L12.5612 28.609L12.6799 28.7994ZM12.2994 28.8598L12.3856 28.7185L12.4228 28.7178L12.4247 28.8193L12.6562 28.8149L12.6566 28.838L12.4698 28.9235L12.2994 28.8598ZM12.9777 28.9356L12.9405 28.9364L12.9386 28.8348L12.7071 28.8393L12.7066 28.8162L12.8935 28.7307L13.0639 28.7932L12.9777 28.9356ZM12.6785 28.8525L12.6618 29.0514L12.5199 29.1614L12.4356 29.0199L12.453 28.9884L12.5451 29.0374L12.6579 28.8425L12.6785 28.8525ZM12.9021 29.1287L12.7317 29.1285L12.7119 29.0977L12.8033 29.044L12.6834 28.8548L12.7035 28.8428L12.8737 28.955L12.9021 29.1287Z" fill="white"/>
<path id="Vector_24" d="M11.8471 28.8166L11.8638 28.6189L12.0058 28.5077L12.09 28.6504L12.0726 28.6819L11.9793 28.6329L11.8677 28.8277L11.8471 28.8166ZM11.8423 28.8155L11.8221 28.8275L11.652 28.7153L11.6235 28.5416L11.794 28.5418L11.8137 28.5726L11.7235 28.6251L11.8423 28.8155ZM11.4617 28.8759L11.5479 28.7346L11.5851 28.7339L11.587 28.8355L11.8186 28.831L11.819 28.8541L11.6322 28.9396L11.4617 28.8759ZM12.1401 28.9518L12.1029 28.9525L12.101 28.851L11.8694 28.8554L11.869 28.8323L12.0558 28.7468L12.2262 28.8093L12.1401 28.9518ZM11.8409 28.8687L11.8242 29.0675L11.6822 29.1775L11.598 29.036L11.6154 29.0046L11.7075 29.0536L11.8203 28.8587L11.8409 28.8687ZM12.0645 29.1448L11.894 29.1446L11.8742 29.1138L11.9657 29.0601L11.8457 28.8709L11.8659 28.8589L12.036 28.9711L12.0645 29.1448Z" fill="white"/>
<path id="Vector_25" d="M11.0093 28.8327L11.0261 28.635L11.168 28.5238L11.2523 28.6665L11.2349 28.698L11.1415 28.649L11.0299 28.8439L11.0093 28.8327ZM11.0045 28.8317L10.9843 28.8436L10.8142 28.7314L10.7858 28.5577L10.9562 28.5579L10.976 28.5887L10.8857 28.6412L11.0045 28.8317ZM10.624 28.8921L10.7102 28.7508L10.7474 28.75L10.7492 28.8516L10.9808 28.8471L10.9812 28.8702L10.7944 28.9557L10.624 28.8921ZM11.3023 28.9679L11.2651 28.9686L11.2632 28.8671L11.0317 28.8715L11.0312 28.8484L11.2181 28.7629L11.3885 28.8254L11.3023 28.9679ZM11.0031 28.8848L10.9864 29.0836L10.8444 29.1936L10.7602 29.0522L10.7776 29.0207L10.8697 29.0697L10.9825 28.8748L11.0031 28.8848ZM11.2267 29.1609L11.0563 29.1607L11.0365 29.1299L11.1279 29.0763L11.0079 28.887L11.0281 28.8751L11.1982 28.9872L11.2267 29.1609Z" fill="white"/>
<path id="Vector_26" d="M10.1716 28.8488L10.1883 28.6512L10.3302 28.5399L10.4145 28.6826L10.3971 28.7141L10.3038 28.6651L10.1922 28.86L10.1716 28.8488ZM10.1667 28.8478L10.1466 28.8597L9.97645 28.7476L9.948 28.5738L10.1184 28.574L10.1382 28.6048L10.048 28.6573L10.1667 28.8478ZM9.78621 28.9082L9.87239 28.7669L9.90958 28.7662L9.91147 28.8677L10.143 28.8632L10.1435 28.8863L9.95662 28.9718L9.78621 28.9082ZM10.4645 28.984L10.4273 28.9847L10.4254 28.8832L10.1939 28.8876L10.1935 28.8646L10.3803 28.779L10.5507 28.8415L10.4645 28.984ZM10.1653 28.9009L10.1486 29.0997L10.0067 29.2098L9.92242 29.0683L9.93983 29.0368L10.032 29.0858L10.1447 28.8909L10.1653 28.9009ZM10.3889 29.177L10.2185 29.1768L10.1987 29.1461L10.2901 29.0924L10.1702 28.9031L10.1904 28.8912L10.3605 29.0033L10.3889 29.177Z" fill="white"/>
<path id="Vector_27" d="M9.3338 28.8649L9.35051 28.6673L9.49246 28.5561L9.57674 28.6987L9.55932 28.7302L9.46599 28.6812L9.35441 28.8761L9.3338 28.8649ZM9.32898 28.8639L9.30879 28.8758L9.13868 28.7637L9.11023 28.59L9.28066 28.5901L9.30044 28.6209L9.21021 28.6734L9.32898 28.8639ZM8.94844 28.9243L9.03462 28.783L9.07181 28.7823L9.07371 28.8838L9.30526 28.8793L9.30569 28.9024L9.11886 28.9879L8.94844 28.9243ZM9.62676 29.0001L9.58957 29.0008L9.58768 28.8993L9.35612 28.9037L9.35569 28.8807L9.54253 28.7951L9.71292 28.8576L9.62676 29.0001ZM9.32757 28.917L9.31087 29.1158L9.1689 29.2259L9.08465 29.0844L9.10206 29.0529L9.19419 29.1019L9.30698 28.907L9.32757 28.917ZM9.55115 29.1931L9.38072 29.1929L9.36094 29.1622L9.45236 29.1085L9.33241 28.9192L9.35259 28.9073L9.52271 29.0194L9.55115 29.1931Z" fill="white"/>
</g>
<path id="....................." d="M9.2831 31.084C9.34443 31.084 9.3951 31.104 9.4351 31.144C9.4751 31.1827 9.4951 31.2307 9.4951 31.288C9.4951 31.3293 9.48043 31.368 9.4511 31.404C9.4231 31.4387 9.3871 31.4667 9.3431 31.488C9.30043 31.5093 9.2591 31.52 9.2191 31.52C9.1591 31.52 9.10843 31.5007 9.0671 31.462C9.02576 31.422 9.0051 31.374 9.0051 31.318C9.0051 31.2767 9.0191 31.238 9.0471 31.202C9.07643 31.166 9.1131 31.1373 9.1571 31.116C9.2011 31.0947 9.2431 31.084 9.2831 31.084ZM9.93935 31.084C10.0007 31.084 10.0513 31.104 10.0913 31.144C10.1313 31.1827 10.1513 31.2307 10.1513 31.288C10.1513 31.3293 10.1367 31.368 10.1073 31.404C10.0793 31.4387 10.0433 31.4667 9.99935 31.488C9.95668 31.5093 9.91535 31.52 9.87535 31.52C9.81535 31.52 9.76468 31.5007 9.72335 31.462C9.68201 31.422 9.66135 31.374 9.66135 31.318C9.66135 31.2767 9.67535 31.238 9.70335 31.202C9.73268 31.166 9.76935 31.1373 9.81335 31.116C9.85735 31.0947 9.89935 31.084 9.93935 31.084ZM10.5956 31.084C10.6569 31.084 10.7076 31.104 10.7476 31.144C10.7876 31.1827 10.8076 31.2307 10.8076 31.288C10.8076 31.3293 10.7929 31.368 10.7636 31.404C10.7356 31.4387 10.6996 31.4667 10.6556 31.488C10.6129 31.5093 10.5716 31.52 10.5316 31.52C10.4716 31.52 10.4209 31.5007 10.3796 31.462C10.3383 31.422 10.3176 31.374 10.3176 31.318C10.3176 31.2767 10.3316 31.238 10.3596 31.202C10.3889 31.166 10.4256 31.1373 10.4696 31.116C10.5136 31.0947 10.5556 31.084 10.5956 31.084ZM11.2518 31.084C11.3132 31.084 11.3638 31.104 11.4038 31.144C11.4438 31.1827 11.4638 31.2307 11.4638 31.288C11.4638 31.3293 11.4492 31.368 11.4198 31.404C11.3918 31.4387 11.3558 31.4667 11.3118 31.488C11.2692 31.5093 11.2278 31.52 11.1878 31.52C11.1278 31.52 11.0772 31.5007 11.0358 31.462C10.9945 31.422 10.9738 31.374 10.9738 31.318C10.9738 31.2767 10.9878 31.238 11.0158 31.202C11.0452 31.166 11.0818 31.1373 11.1258 31.116C11.1698 31.0947 11.2118 31.084 11.2518 31.084ZM11.9081 31.084C11.9694 31.084 12.0201 31.104 12.0601 31.144C12.1001 31.1827 12.1201 31.2307 12.1201 31.288C12.1201 31.3293 12.1054 31.368 12.0761 31.404C12.0481 31.4387 12.0121 31.4667 11.9681 31.488C11.9254 31.5093 11.8841 31.52 11.8441 31.52C11.7841 31.52 11.7334 31.5007 11.6921 31.462C11.6508 31.422 11.6301 31.374 11.6301 31.318C11.6301 31.2767 11.6441 31.238 11.6721 31.202C11.7014 31.166 11.7381 31.1373 11.7821 31.116C11.8261 31.0947 11.8681 31.084 11.9081 31.084ZM12.5643 31.084C12.6257 31.084 12.6763 31.104 12.7163 31.144C12.7563 31.1827 12.7763 31.2307 12.7763 31.288C12.7763 31.3293 12.7617 31.368 12.7323 31.404C12.7043 31.4387 12.6683 31.4667 12.6243 31.488C12.5817 31.5093 12.5403 31.52 12.5003 31.52C12.4403 31.52 12.3897 31.5007 12.3483 31.462C12.307 31.422 12.2863 31.374 12.2863 31.318C12.2863 31.2767 12.3003 31.238 12.3283 31.202C12.3577 31.166 12.3943 31.1373 12.4383 31.116C12.4823 31.0947 12.5243 31.084 12.5643 31.084ZM13.2206 31.084C13.2819 31.084 13.3326 31.104 13.3726 31.144C13.4126 31.1827 13.4326 31.2307 13.4326 31.288C13.4326 31.3293 13.4179 31.368 13.3886 31.404C13.3606 31.4387 13.3246 31.4667 13.2806 31.488C13.2379 31.5093 13.1966 31.52 13.1566 31.52C13.0966 31.52 13.0459 31.5007 13.0046 31.462C12.9633 31.422 12.9426 31.374 12.9426 31.318C12.9426 31.2767 12.9566 31.238 12.9846 31.202C13.0139 31.166 13.0506 31.1373 13.0946 31.116C13.1386 31.0947 13.1806 31.084 13.2206 31.084ZM13.8768 31.084C13.9382 31.084 13.9888 31.104 14.0288 31.144C14.0688 31.1827 14.0888 31.2307 14.0888 31.288C14.0888 31.3293 14.0742 31.368 14.0448 31.404C14.0168 31.4387 13.9808 31.4667 13.9368 31.488C13.8942 31.5093 13.8528 31.52 13.8128 31.52C13.7528 31.52 13.7022 31.5007 13.6608 31.462C13.6195 31.422 13.5988 31.374 13.5988 31.318C13.5988 31.2767 13.6128 31.238 13.6408 31.202C13.6702 31.166 13.7068 31.1373 13.7508 31.116C13.7948 31.0947 13.8368 31.084 13.8768 31.084ZM14.5331 31.084C14.5944 31.084 14.6451 31.104 14.6851 31.144C14.7251 31.1827 14.7451 31.2307 14.7451 31.288C14.7451 31.3293 14.7304 31.368 14.7011 31.404C14.6731 31.4387 14.6371 31.4667 14.5931 31.488C14.5504 31.5093 14.5091 31.52 14.4691 31.52C14.4091 31.52 14.3584 31.5007 14.3171 31.462C14.2758 31.422 14.2551 31.374 14.2551 31.318C14.2551 31.2767 14.2691 31.238 14.2971 31.202C14.3264 31.166 14.3631 31.1373 14.4071 31.116C14.4511 31.0947 14.4931 31.084 14.5331 31.084ZM15.1893 31.084C15.2507 31.084 15.3013 31.104 15.3413 31.144C15.3813 31.1827 15.4013 31.2307 15.4013 31.288C15.4013 31.3293 15.3867 31.368 15.3573 31.404C15.3293 31.4387 15.2933 31.4667 15.2493 31.488C15.2067 31.5093 15.1653 31.52 15.1253 31.52C15.0653 31.52 15.0147 31.5007 14.9733 31.462C14.932 31.422 14.9113 31.374 14.9113 31.318C14.9113 31.2767 14.9253 31.238 14.9533 31.202C14.9827 31.166 15.0193 31.1373 15.0633 31.116C15.1073 31.0947 15.1493 31.084 15.1893 31.084ZM15.8456 31.084C15.9069 31.084 15.9576 31.104 15.9976 31.144C16.0376 31.1827 16.0576 31.2307 16.0576 31.288C16.0576 31.3293 16.0429 31.368 16.0136 31.404C15.9856 31.4387 15.9496 31.4667 15.9056 31.488C15.8629 31.5093 15.8216 31.52 15.7816 31.52C15.7216 31.52 15.6709 31.5007 15.6296 31.462C15.5883 31.422 15.5676 31.374 15.5676 31.318C15.5676 31.2767 15.5816 31.238 15.6096 31.202C15.6389 31.166 15.6756 31.1373 15.7196 31.116C15.7636 31.0947 15.8056 31.084 15.8456 31.084ZM16.5018 31.084C16.5632 31.084 16.6138 31.104 16.6538 31.144C16.6938 31.1827 16.7138 31.2307 16.7138 31.288C16.7138 31.3293 16.6992 31.368 16.6698 31.404C16.6418 31.4387 16.6058 31.4667 16.5618 31.488C16.5192 31.5093 16.4778 31.52 16.4378 31.52C16.3778 31.52 16.3272 31.5007 16.2858 31.462C16.2445 31.422 16.2238 31.374 16.2238 31.318C16.2238 31.2767 16.2378 31.238 16.2658 31.202C16.2952 31.166 16.3318 31.1373 16.3758 31.116C16.4198 31.0947 16.4618 31.084 16.5018 31.084ZM17.1581 31.084C17.2194 31.084 17.2701 31.104 17.3101 31.144C17.3501 31.1827 17.3701 31.2307 17.3701 31.288C17.3701 31.3293 17.3554 31.368 17.3261 31.404C17.2981 31.4387 17.2621 31.4667 17.2181 31.488C17.1754 31.5093 17.1341 31.52 17.0941 31.52C17.0341 31.52 16.9834 31.5007 16.9421 31.462C16.9008 31.422 16.8801 31.374 16.8801 31.318C16.8801 31.2767 16.8941 31.238 16.9221 31.202C16.9514 31.166 16.9881 31.1373 17.0321 31.116C17.0761 31.0947 17.1181 31.084 17.1581 31.084ZM17.8143 31.084C17.8757 31.084 17.9263 31.104 17.9663 31.144C18.0063 31.1827 18.0263 31.2307 18.0263 31.288C18.0263 31.3293 18.0117 31.368 17.9823 31.404C17.9543 31.4387 17.9183 31.4667 17.8743 31.488C17.8317 31.5093 17.7903 31.52 17.7503 31.52C17.6903 31.52 17.6397 31.5007 17.5983 31.462C17.557 31.422 17.5363 31.374 17.5363 31.318C17.5363 31.2767 17.5503 31.238 17.5783 31.202C17.6077 31.166 17.6443 31.1373 17.6883 31.116C17.7323 31.0947 17.7743 31.084 17.8143 31.084ZM18.4706 31.084C18.5319 31.084 18.5826 31.104 18.6226 31.144C18.6626 31.1827 18.6826 31.2307 18.6826 31.288C18.6826 31.3293 18.6679 31.368 18.6386 31.404C18.6106 31.4387 18.5746 31.4667 18.5306 31.488C18.4879 31.5093 18.4466 31.52 18.4066 31.52C18.3466 31.52 18.2959 31.5007 18.2546 31.462C18.2133 31.422 18.1926 31.374 18.1926 31.318C18.1926 31.2767 18.2066 31.238 18.2346 31.202C18.2639 31.166 18.3006 31.1373 18.3446 31.116C18.3886 31.0947 18.4306 31.084 18.4706 31.084ZM19.1268 31.084C19.1882 31.084 19.2388 31.104 19.2788 31.144C19.3188 31.1827 19.3388 31.2307 19.3388 31.288C19.3388 31.3293 19.3242 31.368 19.2948 31.404C19.2668 31.4387 19.2308 31.4667 19.1868 31.488C19.1442 31.5093 19.1028 31.52 19.0628 31.52C19.0028 31.52 18.9522 31.5007 18.9108 31.462C18.8695 31.422 18.8488 31.374 18.8488 31.318C18.8488 31.2767 18.8628 31.238 18.8908 31.202C18.9202 31.166 18.9568 31.1373 19.0008 31.116C19.0448 31.0947 19.0868 31.084 19.1268 31.084ZM19.7831 31.084C19.8444 31.084 19.8951 31.104 19.9351 31.144C19.9751 31.1827 19.9951 31.2307 19.9951 31.288C19.9951 31.3293 19.9804 31.368 19.9511 31.404C19.9231 31.4387 19.8871 31.4667 19.8431 31.488C19.8004 31.5093 19.7591 31.52 19.7191 31.52C19.6591 31.52 19.6084 31.5007 19.5671 31.462C19.5258 31.422 19.5051 31.374 19.5051 31.318C19.5051 31.2767 19.5191 31.238 19.5471 31.202C19.5764 31.166 19.6131 31.1373 19.6571 31.116C19.7011 31.0947 19.7431 31.084 19.7831 31.084ZM20.4393 31.084C20.5007 31.084 20.5513 31.104 20.5913 31.144C20.6313 31.1827 20.6513 31.2307 20.6513 31.288C20.6513 31.3293 20.6367 31.368 20.6073 31.404C20.5793 31.4387 20.5433 31.4667 20.4993 31.488C20.4567 31.5093 20.4153 31.52 20.3753 31.52C20.3153 31.52 20.2647 31.5007 20.2233 31.462C20.182 31.422 20.1613 31.374 20.1613 31.318C20.1613 31.2767 20.1753 31.238 20.2033 31.202C20.2327 31.166 20.2693 31.1373 20.3133 31.116C20.3573 31.0947 20.3993 31.084 20.4393 31.084ZM21.0956 31.084C21.1569 31.084 21.2076 31.104 21.2476 31.144C21.2876 31.1827 21.3076 31.2307 21.3076 31.288C21.3076 31.3293 21.2929 31.368 21.2636 31.404C21.2356 31.4387 21.1996 31.4667 21.1556 31.488C21.1129 31.5093 21.0716 31.52 21.0316 31.52C20.9716 31.52 20.9209 31.5007 20.8796 31.462C20.8383 31.422 20.8176 31.374 20.8176 31.318C20.8176 31.2767 20.8316 31.238 20.8596 31.202C20.8889 31.166 20.9256 31.1373 20.9696 31.116C21.0136 31.0947 21.0556 31.084 21.0956 31.084ZM21.7518 31.084C21.8132 31.084 21.8638 31.104 21.9038 31.144C21.9438 31.1827 21.9638 31.2307 21.9638 31.288C21.9638 31.3293 21.9492 31.368 21.9198 31.404C21.8918 31.4387 21.8558 31.4667 21.8118 31.488C21.7692 31.5093 21.7278 31.52 21.6878 31.52C21.6278 31.52 21.5772 31.5007 21.5358 31.462C21.4945 31.422 21.4738 31.374 21.4738 31.318C21.4738 31.2767 21.4878 31.238 21.5158 31.202C21.5452 31.166 21.5818 31.1373 21.6258 31.116C21.6698 31.0947 21.7118 31.084 21.7518 31.084ZM22.4081 31.084C22.4694 31.084 22.5201 31.104 22.5601 31.144C22.6001 31.1827 22.6201 31.2307 22.6201 31.288C22.6201 31.3293 22.6054 31.368 22.5761 31.404C22.5481 31.4387 22.5121 31.4667 22.4681 31.488C22.4254 31.5093 22.3841 31.52 22.3441 31.52C22.2841 31.52 22.2334 31.5007 22.1921 31.462C22.1508 31.422 22.1301 31.374 22.1301 31.318C22.1301 31.2767 22.1441 31.238 22.1721 31.202C22.2014 31.166 22.2381 31.1373 22.2821 31.116C22.3261 31.0947 22.3681 31.084 22.4081 31.084Z" fill="white"/>
</g>
</g>
<g id="Group 1171276156">
<path id="Vector 696" d="M34 26L34 9L35 9L35 26L36 26L34.5 28L33 26L34 26Z" fill="url(#paint3_linear_80_282)">
                                    <animate attributeName="d" values="M34 26L34 9L35 9L35 26L36 26L34.5 28L33 26L34 26Z;M34 33L34 16L35 16L35 33L36 33L34.5 35L33 33L34 33Z;M34 26L34 9L35 9L35 26L36 26L34.5 28L33 26L34 26Z" begin="0s" dur="3s" repeatCount="indefinite" fill="freeze" calcMode="linear" keyTimes="0;0.5;1"/></path>
<path id="Vector 697" d="M34 9L34 26L33 26L34.5 28L36 26L35 26L35 9M34 8.5L35 8.5M34 8L35 8M34 7.5L35 7.5M34 7L35 7M34 6.5L35 6.5M34 6L35 6M34 5.5L35 5.5M34 5L35 5M34 4.5L35 4.5M34 4L35 4" stroke="url(#paint4_linear_80_282)" stroke-width="0.12">
                                    <animate attributeName="d" values="M34 9L34 26L33 26L34.5 28L36 26L35 26L35 9M34 8.5L35 8.5M34 8L35 8M34 7.5L35 7.5M34 7L35 7M34 6.5L35 6.5M34 6L35 6M34 5.5L35 5.5M34 5L35 5M34 4.5L35 4.5M34 4L35 4;M34 16L34 33L33 33L34.5 35L36 33L35 33L35 16M34 15.5L35 15.5M34 15L35 15M34 14.5L35 14.5M34 14L35 14M34 13.5L35 13.5M34 13L35 13M34 12.5L35 12.5M34 12L35 12M34 11.5L35 11.5M34 11L35 11;M34 9L34 26L33 26L34.5 28L36 26L35 26L35 9M34 8.5L35 8.5M34 8L35 8M34 7.5L35 7.5M34 7L35 7M34 6.5L35 6.5M34 6L35 6M34 5.5L35 5.5M34 5L35 5M34 4.5L35 4.5M34 4L35 4" begin="0s" dur="3s" repeatCount="indefinite" fill="freeze" calcMode="linear" keyTimes="0;0.5;1"/></path>
</g>
<g id="Group 1171276157">
<path id="Vector 696_2" d="M6 13L6 30L5 30L5 13L4 13L5.5 11L7 13L6 13Z" fill="url(#paint5_linear_80_282)">
                                    <animate attributeName="d" values="M6 13L6 30L5 30L5 13L4 13L5.5 11L7 13L6 13Z;M6 8L6 25L5 25L5 8L4 8L5.5 6L7 8L6 8Z;M6 13L6 30L5 30L5 13L4 13L5.5 11L7 13L6 13Z" begin="0s" dur="3s" repeatCount="indefinite" fill="freeze" calcMode="linear" keyTimes="0;0.5;1"/></path>
<path id="Vector 697_2" d="M6 30L6 13L7 13L5.5 11L4 13L5 13L5 30M6 30.5L5 30.5M6 31L5 31M6 31.5L5 31.5M6 32L5 32M6 32.5L5 32.5M6 33L5 33M6 33.5L5 33.5M6 34L5 34M6 34.5L5 34.5M6 35L5 35" stroke="url(#paint6_linear_80_282)" stroke-width="0.12">
                                    <animate attributeName="d" values="M6 30L6 13L7 13L5.5 11L4 13L5 13L5 30M6 30.5L5 30.5M6 31L5 31M6 31.5L5 31.5M6 32L5 32M6 32.5L5 32.5M6 33L5 33M6 33.5L5 33.5M6 34L5 34M6 34.5L5 34.5M6 35L5 35;M6 25L6 8L7 8L5.5 6L4 8L5 8L5 25M6 25.5L5 25.5M6 26L5 26M6 26.5L5 26.5M6 27L5 27M6 27.5L5 27.5M6 28L5 28M6 28.5L5 28.5M6 29L5 29M6 29.5L5 29.5M6 30L5 30;M6 30L6 13L7 13L5.5 11L4 13L5 13L5 30M6 30.5L5 30.5M6 31L5 31M6 31.5L5 31.5M6 32L5 32M6 32.5L5 32.5M6 33L5 33M6 33.5L5 33.5M6 34L5 34M6 34.5L5 34.5M6 35L5 35" begin="0s" dur="3s" repeatCount="indefinite" fill="freeze" calcMode="linear" keyTimes="0;0.5;1"/></path>
</g>

                                    </g>

                                    </g>
<defs>
<filter id="filter0_d_80_282" x="13.1431" y="2.58734" width="14.1851" height="18.3896" filterUnits="userSpaceOnUse" color-interpolation-filters="sRGB">
<feFlood flood-opacity="0" result="BackgroundImageFix"/>
<feColorMatrix in="SourceAlpha" type="matrix" values="0 0 0 0 0 0 0 0 0 0 0 0 0 0 0 0 0 0 127 0" result="hardAlpha"/>
<feOffset/>
<feGaussianBlur stdDeviation="2"/>
<feComposite in2="hardAlpha" operator="out"/>
<feColorMatrix type="matrix" values="0 0 0 0 0 0 0 0 0 0 0 0 0 0 0 0 0 0 0.25 0"/>
<feBlend mode="normal" in2="BackgroundImageFix" result="effect1_dropShadow_80_282">
                                    </feBlend>
<feBlend mode="normal" in="SourceGraphic" in2="effect1_dropShadow_80_282" result="shape">
                                    </feBlend>

                                    
                                    <animate attributeName="x" values="13.1431;13.3092;13.1431" begin="0s" dur="3s" repeatCount="indefinite" fill="freeze" calcMode="linear" keyTimes="0;0.5;1"/>
                                    <animate attributeName="y" values="2.58734;3.82776;2.58734" begin="0s" dur="3s" repeatCount="indefinite" fill="freeze" calcMode="linear" keyTimes="0;0.5;1"/>
                                    <animate attributeName="width" values="14.1851;13.5282;14.1851" begin="0s" dur="3s" repeatCount="indefinite" fill="freeze" calcMode="linear" keyTimes="0;0.5;1"/>
                                    <animate attributeName="height" values="18.3896;14.3294;18.3896" begin="0s" dur="3s" repeatCount="indefinite" fill="freeze" calcMode="linear" keyTimes="0;0.5;1"/></filter>
<radialGradient id="paint0_radial_80_282" cx="0" cy="0" r="1" gradientUnits="userSpaceOnUse" gradientTransform="translate(10.7429 11.8443) rotate(28.0725) scale(13.6)">
<stop stop-color="#FFD6B0"/>
<stop offset="0.517762" stop-color="#FFA24C"/>
<stop offset="1" stop-color="#EE780B"/>

                                    </radialGradient>
<linearGradient id="paint1_linear_80_282" x1="27.0909" y1="21.5172" x2="7.97543" y2="36.981" gradientUnits="userSpaceOnUse">
<stop stop-color="#3FAAEB"/>
<stop offset="1" stop-color="#2253BD"/>

                                    </linearGradient>
<linearGradient id="paint2_linear_80_282" x1="18.3636" y1="22.5517" x2="18.3636" y2="25.1379" gradientUnits="userSpaceOnUse">
<stop stop-color="#FF9839"/>
<stop offset="1" stop-color="#FF8E3C"/>

                                    </linearGradient>
<linearGradient id="paint3_linear_80_282" x1="34.5" y1="9" x2="34.5" y2="28" gradientUnits="userSpaceOnUse">
<stop stop-color="#EB770C"/>
<stop offset="1" stop-color="#FFC086"/>

                                    
                                    <animate attributeName="y1" values="9;16;9" begin="0s" dur="3s" repeatCount="indefinite" fill="freeze" calcMode="linear" keyTimes="0;0.5;1"/>
                                    <animate attributeName="y2" values="28;35;28" begin="0s" dur="3s" repeatCount="indefinite" fill="freeze" calcMode="linear" keyTimes="0;0.5;1"/></linearGradient>
<linearGradient id="paint4_linear_80_282" x1="34.5" y1="7" x2="34.5" y2="28" gradientUnits="userSpaceOnUse">
<stop stop-color="#428AEA"/>
<stop offset="1" stop-color="#163967"/>

                                    
                                    <animate attributeName="y1" values="7;14;7" begin="0s" dur="3s" repeatCount="indefinite" fill="freeze" calcMode="linear" keyTimes="0;0.5;1"/>
                                    <animate attributeName="y2" values="28;35;28" begin="0s" dur="3s" repeatCount="indefinite" fill="freeze" calcMode="linear" keyTimes="0;0.5;1"/></linearGradient>
<linearGradient id="paint5_linear_80_282" x1="5" y1="30" x2="5" y2="8" gradientUnits="userSpaceOnUse">
<stop stop-color="#001792"/>
<stop offset="1" stop-color="#8FDDFF"/>

                                    
                                    <animate attributeName="y1" values="30;25;30" begin="0s" dur="3s" repeatCount="indefinite" fill="freeze" calcMode="linear" keyTimes="0;0.5;1"/>
                                    <animate attributeName="y2" values="8;3;8" begin="0s" dur="3s" repeatCount="indefinite" fill="freeze" calcMode="linear" keyTimes="0;0.5;1"/></linearGradient>
<linearGradient id="paint6_linear_80_282" x1="5.5" y1="32" x2="5.5" y2="11" gradientUnits="userSpaceOnUse">
<stop stop-color="#428AEA"/>
<stop offset="1" stop-color="#163967"/>

                                    
                                    <animate attributeName="y1" values="32;27;32" begin="0s" dur="3s" repeatCount="indefinite" fill="freeze" calcMode="linear" keyTimes="0;0.5;1"/>
                                    <animate attributeName="y2" values="11;6;11" begin="0s" dur="3s" repeatCount="indefinite" fill="freeze" calcMode="linear" keyTimes="0;0.5;1"/></linearGradient>
</defs>
</svg>