<svg width="40" height="40" viewBox="0 0 40 40" fill="none" xmlns="http://www.w3.org/2000/svg">
<g id="Group 1171276171">
<rect id="Rectangle 34624669" width="40" height="40" fill="white">
                                    </rect>
<g id="Group 1171276169">
<g id="Group 1171276167">
<g id="Group 1171276164">
<g id="Group 1171276162">
<path id="Vector 698" d="M36 9V14.6313V27C36 28.1046 35.1046 29 34 29H6C4.89543 29 4 28.1046 4 27V9C4 7.89543 4.89543 7 6 7H34C35.1046 7 36 7.89543 36 9Z" fill="white"/>
<path id="Vector 702" d="M4.23047 18.7595L6.65595 18.7595M6.65595 18.7595L17.3819 18.7595L17.3819 17.9775L10.5801 17.9775L10.5801 17L6.65595 18.7595ZM6.65595 18.7595L10.5801 20.519L10.5801 19.5415L20.5212 19.5415L30.5296 19.5415L30.5296 18.2069L34.4139 20.0165L30.5296 22.2344L30.5296 20.91L23.6606 20.91L23.6606 20.128L36 20" stroke="url(#paint0_linear_87_1177)" stroke-opacity="0.6" stroke-width="0.25">
                                    <animate attributeName="d" values="M4.23047 18.7595L6.65595 18.7595M6.65595 18.7595L17.3819 18.7595L17.3819 17.9775L10.5801 17.9775L10.5801 17L6.65595 18.7595ZM6.65595 18.7595L10.5801 20.519L10.5801 19.5415L20.5212 19.5415L30.5296 19.5415L30.5296 18.2069L34.4139 20.0165L30.5296 22.2344L30.5296 20.91L23.6606 20.91L23.6606 20.128L36 20;M4.19922 18.7595L7.65589 18.7595M7.65589 18.7595L18.3819 18.7595L18.3819 17.9775L11.58 17.9775L11.58 17L7.65589 18.7595ZM7.65589 18.7595L11.58 20.519L11.58 19.5415L21.5212 19.5415L31.5296 19.5415L31.5296 18.2069L35.4139 20.0165L31.5296 22.2344L31.5296 20.91L24.6605 20.91L23.4999 20.128L35.8394 20;M4.23047 18.7595L6.65595 18.7595M6.65595 18.7595L17.3819 18.7595L17.3819 17.9775L10.5801 17.9775L10.5801 17L6.65595 18.7595ZM6.65595 18.7595L10.5801 20.519L10.5801 19.5415L20.5212 19.5415L30.5296 19.5415L30.5296 18.2069L34.4139 20.0165L30.5296 22.2344L30.5296 20.91L23.6606 20.91L23.6606 20.128L36 20" begin="0s" dur="3s" repeatCount="indefinite" fill="freeze" calcMode="linear" keyTimes="0;0.5;1"/></path>
<path id="Vector 699" d="M36 14V9C36 7.89543 35.1046 7 34 7H6C4.89543 7 4 7.89543 4 9V27C4 28.1046 4.89543 29 6 29H34C35.1046 29 36 28.1046 36 27V19.5M36 16V17" stroke="url(#paint1_linear_87_1177)" stroke-width="0.45"/>
</g>
<g id="Group 1171276163">
<path id="Vector 700" d="M15 32L16.1765 29H23.8235L25 32H15Z" fill="url(#paint2_linear_87_1177)"/>
<path id="Vector 701" d="M12 36L12.6708 33.4847C12.9042 32.6092 13.6971 32 14.6032 32H25.3968C26.3029 32 27.0958 32.6092 27.3292 33.4847L28 36H12Z" fill="url(#paint3_linear_87_1177)"/>
</g>
</g>
</g>
<g id="Group 1171276148" filter="url(#filter0_d_87_1177)">
<path id="Vector 483" d="M20 4L11 8.2502L11.6 9.45999H12.5231H26.7846H28.2105L29 8.2502L20 4Z" fill="#3181D5"/>
<path id="Vector 486" d="M27.581 19.8448L12.4362 19.8573H11V22H29V19.8448H27.581Z" fill="#3181D5"/>
<g id="Group 1171275817">
<path id="Vector 487" d="M13.0002 18.5571H15.2202V11.7399H13.0002V18.5571Z" fill="#3181D5"/>
<path id="Vector 488" d="M14.9921 18.4683H16.9753V11.7412H14.9921V18.4683Z" fill="white"/>
<path id="Vector 489" d="M16.7822 18.5572H19.0022L18.9964 11.7401H16.7822V18.5572Z" fill="#3181D5"/>
<path id="Vector 490" d="M18.9183 18.4683H20.8962L20.8902 11.7412H18.907L18.9183 18.4683Z" fill="white"/>
<path id="Vector 491" d="M20.9941 18.5572H23.2086V11.7401H20.9886L20.9941 18.5572Z" fill="#3181D5"/>
<path id="Vector 492" d="M22.8741 18.4683H24.8573V11.7412H22.8741V18.4683Z" fill="white"/>
<path id="Vector 493" d="M24.7841 18.5571H26.9999V11.7401H24.7841V18.5571Z" fill="#3181D5"/>
</g>
<path id="Vector 485" d="M27.0001 11.74L27.9531 10.6H11.9171L13.0001 11.74H15H18H22H25H27.0001Z" fill="#3181D5"/>
<path id="Vector 487_2" d="M13 18.5801L12.2076 19.7201L27.7405 19.7201L27 18.5801H25.6274H23.3485H20.8061H18.3877H16.1553L13.8919 18.5801H13Z" fill="white" stroke="#3181D5" stroke-width="0.12"/>
<path id="Vector 483_2" d="M11.6772 9.51996H19.8323H28.1226V10.54H27H12H11.6772V9.51996Z" fill="#3896E0" stroke="white" stroke-width="0.12"/>
<g id="B A N K">
<path id="Vector" d="M21.9791 8.83799V7.17981H22.208V7.9417H22.2234L22.7163 7.17981H22.9958L22.5072 7.92388L23.0001 8.83799H22.7249L22.348 8.12711L22.208 8.3441V8.83799H21.9791Z" fill="#EE780B"/>
<path id="Vector_2" d="M21.2985 7.17981V8.83799H21.0949L20.4996 7.70852H20.4891V8.83799H20.2603V7.17981H20.4651L21.0597 8.31009H21.0708V7.17981H21.2985Z" fill="#EE780B"/>
<path id="Vector_3" d="M18.7349 8.83799H18.4906L18.9354 7.17981H19.2179L19.6633 8.83799H19.419L19.0816 7.51987H19.0717L18.7349 8.83799ZM18.7429 8.18783H19.4091V8.42911H18.7429V8.18783Z" fill="#EE780B"/>
<path id="Vector_4" d="M16.9999 8.83808V7.1799H17.4835C17.5748 7.1799 17.6507 7.19879 17.7111 7.23658C17.772 7.27382 17.8175 7.32483 17.8475 7.3896C17.8779 7.45438 17.8931 7.52778 17.8931 7.60983C17.8931 7.6773 17.8833 7.73506 17.8635 7.7831C17.8438 7.8306 17.8173 7.86919 17.7839 7.89888C17.7506 7.92856 17.7134 7.94989 17.6723 7.96284V7.97903C17.7171 7.98227 17.7601 8.00035 17.8012 8.03328C17.8428 8.06567 17.8767 8.11155 17.903 8.17092C17.9293 8.2303 17.9425 8.30209 17.9425 8.38629C17.9425 8.47211 17.9266 8.5493 17.895 8.61785C17.8633 8.68586 17.8156 8.73957 17.7519 8.77897C17.6881 8.81838 17.6079 8.83808 17.5113 8.83808H16.9999ZM17.2287 8.58709H17.4749C17.558 8.58709 17.6178 8.5663 17.6544 8.52474C17.6914 8.48264 17.7099 8.42866 17.7099 8.36281C17.7099 8.31369 17.7007 8.26943 17.6822 8.23003C17.6636 8.19008 17.6373 8.15878 17.6032 8.13611C17.5691 8.1129 17.5283 8.10129 17.481 8.10129H17.2287V8.58709ZM17.2287 7.88511H17.4551C17.4946 7.88511 17.5302 7.87567 17.5619 7.85677C17.5935 7.83734 17.6184 7.81008 17.6365 7.775C17.655 7.73937 17.6643 7.69727 17.6643 7.64869C17.6643 7.58446 17.647 7.53156 17.6124 7.49C17.5783 7.44844 17.5275 7.42766 17.4601 7.42766H17.2287V7.88511Z" fill="#EE780B"/>
</g>
</g>
<g id="Group 1171276133">
<g id="Vector 690">
<path d="M28.3455 12.4868L28.8311 12.561L28.8983 12.1562L29.1406 12.1964L29.2316 11.6484L35.4102 12.6745L34.7048 16.9219L34.2202 16.8414L34.1747 17.1155L33.8112 17.0551L33.743 17.4661L27.6856 16.4601L28.3455 12.4868Z" fill="url(#paint4_linear_87_1177)">
                                    <animate attributeName="d" values="M28.3455 12.4868L28.8311 12.561L28.8983 12.1562L29.1406 12.1964L29.2316 11.6484L35.4102 12.6745L34.7048 16.9219L34.2202 16.8414L34.1747 17.1155L33.8112 17.0551L33.743 17.4661L27.6856 16.4601L28.3455 12.4868Z;M27.3947 13.7302L27.841 13.525L27.6745 13.15L27.8989 13.0503L27.6734 12.5426L33.3973 9.99999L35.1451 13.9348L34.6962 14.1342L34.8089 14.3881L34.4723 14.5376L34.6414 14.9184L29.0298 17.4111L27.3947 13.7302Z;M28.3455 12.4868L28.8311 12.561L28.8983 12.1562L29.1406 12.1964L29.2316 11.6484L35.4102 12.6745L34.7048 16.9219L34.2202 16.8414L34.1747 17.1155L33.8112 17.0551L33.743 17.4661L27.6856 16.4601L28.3455 12.4868Z" begin="0s" dur="3s" repeatCount="indefinite" fill="freeze" calcMode="linear" keyTimes="0;0.5;1"/></path>
<path d="M28.3455 12.4868L34.4159 13.4145L33.743 17.4661L27.6856 16.4601L28.3455 12.4868ZM29.0797 13.3127L33.3199 14.0169C33.2735 14.3598 33.3566 14.4989 33.7135 14.6454L33.4177 16.4266C33.1029 16.3603 32.9777 16.4245 32.8648 16.7571L28.6246 16.0529C28.6904 15.7315 28.6045 15.6443 28.3295 15.5815L28.6253 13.8004C28.9664 13.7507 29.0526 13.6319 29.0797 13.3127ZM29.3522 13.9211L32.9866 14.5247C32.9973 14.7464 33.0505 14.7997 33.1834 14.839L33.0013 15.935C32.7682 15.998 32.6999 16.0813 32.6908 16.3058L29.0563 15.7022C29.024 15.5037 28.9803 15.4112 28.7384 15.3678L28.9432 14.1347C29.1263 14.1634 29.2142 14.1157 29.3522 13.9211ZM28.8301 12.5672L34.4029 13.4928L33.8112 17.0551L34.1747 17.1155L34.8346 13.1421L28.8983 12.1562L28.8301 12.5672ZM29.1406 12.1964L34.8516 13.1248L34.2202 16.8414L34.7048 16.9219L35.4102 12.6745L29.2316 11.6484L29.1406 12.1964Z" stroke="white" stroke-width="0.12">
                                    <animate attributeName="d" values="M28.3455 12.4868L34.4159 13.4145L33.743 17.4661L27.6856 16.4601L28.3455 12.4868ZM29.0797 13.3127L33.3199 14.0169C33.2735 14.3598 33.3566 14.4989 33.7135 14.6454L33.4177 16.4266C33.1029 16.3603 32.9777 16.4245 32.8648 16.7571L28.6246 16.0529C28.6904 15.7315 28.6045 15.6443 28.3295 15.5815L28.6253 13.8004C28.9664 13.7507 29.0526 13.6319 29.0797 13.3127ZM29.3522 13.9211L32.9866 14.5247C32.9973 14.7464 33.0505 14.7997 33.1834 14.839L33.0013 15.935C32.7682 15.998 32.6999 16.0813 32.6908 16.3058L29.0563 15.7022C29.024 15.5037 28.9803 15.4112 28.7384 15.3678L28.9432 14.1347C29.1263 14.1634 29.2142 14.1157 29.3522 13.9211ZM28.8301 12.5672L34.4029 13.4928L33.8112 17.0551L34.1747 17.1155L34.8346 13.1421L28.8983 12.1562L28.8301 12.5672ZM29.1406 12.1964L34.8516 13.1248L34.2202 16.8414L34.7048 16.9219L35.4102 12.6745L29.2316 11.6484L29.1406 12.1964Z;M27.3947 13.7302L32.9741 11.1649L34.6414 14.9184L29.0298 17.4111L27.3947 13.7302ZM28.4622 14.0159L32.3904 12.271C32.5403 12.5828 32.6862 12.6532 33.0648 12.5793L33.7978 14.2293C33.4985 14.3472 33.4293 14.4697 33.518 14.8096L29.5899 16.5544C29.468 16.2499 29.3482 16.2244 29.084 16.3232L28.3511 14.6731C28.6086 14.444 28.6152 14.2973 28.4622 14.0159ZM29.0244 14.374L32.3914 12.8784C32.5224 13.0576 32.5961 13.0729 32.7287 13.0325L33.1797 14.048C33.0197 14.2288 33.0085 14.3359 33.1244 14.5285L29.7574 16.0241C29.6212 15.8761 29.5338 15.823 29.308 15.9198L28.8005 14.7774C28.9692 14.7006 29.0164 14.6124 29.0244 14.374ZM27.8436 13.5308L33.0063 11.2375L34.4723 14.5376L34.8089 14.3881L33.1739 10.7071L27.6745 13.15L27.8436 13.5308ZM27.8989 13.0503L33.1786 10.6833L34.6962 14.1342L35.1451 13.9348L33.3973 9.99999L27.6734 12.5426L27.8989 13.0503Z;M28.3455 12.4868L34.4159 13.4145L33.743 17.4661L27.6856 16.4601L28.3455 12.4868ZM29.0797 13.3127L33.3199 14.0169C33.2735 14.3598 33.3566 14.4989 33.7135 14.6454L33.4177 16.4266C33.1029 16.3603 32.9777 16.4245 32.8648 16.7571L28.6246 16.0529C28.6904 15.7315 28.6045 15.6443 28.3295 15.5815L28.6253 13.8004C28.9664 13.7507 29.0526 13.6319 29.0797 13.3127ZM29.3522 13.9211L32.9866 14.5247C32.9973 14.7464 33.0505 14.7997 33.1834 14.839L33.0013 15.935C32.7682 15.998 32.6999 16.0813 32.6908 16.3058L29.0563 15.7022C29.024 15.5037 28.9803 15.4112 28.7384 15.3678L28.9432 14.1347C29.1263 14.1634 29.2142 14.1157 29.3522 13.9211ZM28.8301 12.5672L34.4029 13.4928L33.8112 17.0551L34.1747 17.1155L34.8346 13.1421L28.8983 12.1562L28.8301 12.5672ZM29.1406 12.1964L34.8516 13.1248L34.2202 16.8414L34.7048 16.9219L35.4102 12.6745L29.2316 11.6484L29.1406 12.1964Z" begin="0s" dur="3s" repeatCount="indefinite" fill="freeze" calcMode="linear" keyTimes="0;0.5;1"/></path>
</g>
<g id="Group 1171276124">
<path id="Vector_5" d="M30.9912 14.3601C30.8455 14.3634 30.7041 14.4158 30.585 14.5109C30.4659 14.6059 30.3743 14.7393 30.3219 14.8941C30.2695 15.0489 30.2586 15.2182 30.2905 15.3805C30.3225 15.5429 30.3959 15.691 30.5015 15.8062C30.6071 15.9214 30.7401 15.9985 30.8837 16.0277C31.0273 16.057 31.175 16.037 31.3083 15.9704C31.4415 15.9038 31.5542 15.7935 31.6321 15.6535C31.7101 15.5135 31.7497 15.35 31.7461 15.1838C31.7411 14.9611 31.6588 14.7492 31.5172 14.5948C31.3757 14.4403 31.1865 14.3559 30.9912 14.3601Z" fill="url(#paint5_radial_87_1177)">
                                    <animate attributeName="d" values="M30.9912 14.3601C30.8455 14.3634 30.7041 14.4158 30.585 14.5109C30.4659 14.6059 30.3743 14.7393 30.3219 14.8941C30.2695 15.0489 30.2586 15.2182 30.2905 15.3805C30.3225 15.5429 30.3959 15.691 30.5015 15.8062C30.6071 15.9214 30.7401 15.9985 30.8837 16.0277C31.0273 16.057 31.175 16.037 31.3083 15.9704C31.4415 15.9038 31.5542 15.7935 31.6321 15.6535C31.7101 15.5135 31.7497 15.35 31.7461 15.1838C31.7411 14.9611 31.6588 14.7492 31.5172 14.5948C31.3757 14.4403 31.1865 14.3559 30.9912 14.3601Z;M30.6201 13.7306C30.4871 13.7902 30.3772 13.8934 30.3043 14.0273C30.2314 14.1611 30.1988 14.3195 30.2106 14.4825C30.2224 14.6455 30.278 14.8058 30.3705 14.943C30.463 15.0802 30.5882 15.1882 30.7302 15.2534C30.8722 15.3186 31.0247 15.338 31.1684 15.3092C31.3121 15.2804 31.4405 15.2046 31.5374 15.0915C31.6343 14.9784 31.6954 14.833 31.7129 14.6738C31.7303 14.5145 31.7035 14.3485 31.6356 14.1967C31.5445 13.9934 31.3864 13.8301 31.196 13.7427C31.0056 13.6553 30.7985 13.651 30.6201 13.7306Z;M30.9912 14.3601C30.8455 14.3634 30.7041 14.4158 30.585 14.5109C30.4659 14.6059 30.3743 14.7393 30.3219 14.8941C30.2695 15.0489 30.2586 15.2182 30.2905 15.3805C30.3225 15.5429 30.3959 15.691 30.5015 15.8062C30.6071 15.9214 30.7401 15.9985 30.8837 16.0277C31.0273 16.057 31.175 16.037 31.3083 15.9704C31.4415 15.9038 31.5542 15.7935 31.6321 15.6535C31.7101 15.5135 31.7497 15.35 31.7461 15.1838C31.7411 14.9611 31.6588 14.7492 31.5172 14.5948C31.3757 14.4403 31.1865 14.3559 30.9912 14.3601Z" begin="0s" dur="3s" repeatCount="indefinite" fill="freeze" calcMode="linear" keyTimes="0;0.5;1"/></path>
<g id="$" filter="url(#filter1_d_87_1177)">
<path d="M30.9894 15.8173L30.9624 14.5779L31.0398 14.5761L31.0667 15.8156L30.9894 15.8173ZM31.2127 14.9569C31.2067 14.9111 31.1851 14.8761 31.1481 14.8517C31.1111 14.8271 31.0649 14.8153 31.0096 14.8166C30.97 14.8175 30.9359 14.8247 30.9072 14.8383C30.8786 14.8515 30.8565 14.8694 30.8409 14.8921C30.8257 14.9144 30.8184 14.9395 30.819 14.9676C30.8195 14.9912 30.8253 15.0114 30.8364 15.0283C30.8477 15.0451 30.8623 15.0592 30.8802 15.0704C30.8984 15.0813 30.9177 15.0904 30.9384 15.0977C30.9589 15.1046 30.9787 15.1103 30.9977 15.1147L31.0926 15.1378C31.1235 15.1449 31.1554 15.1546 31.188 15.1672C31.2207 15.1797 31.2511 15.1964 31.2792 15.2174C31.3074 15.2384 31.3303 15.2647 31.3479 15.2963C31.3659 15.3279 31.3754 15.3659 31.3764 15.4104C31.3776 15.4666 31.3645 15.5168 31.3372 15.561C31.3102 15.6052 31.2702 15.6405 31.2173 15.6669C31.1647 15.6932 31.1007 15.7073 31.0253 15.709C30.953 15.7106 30.8901 15.7002 30.8368 15.6778C30.7835 15.6554 30.7414 15.623 30.7106 15.5804C30.6798 15.5375 30.6622 15.4862 30.6577 15.4266L30.8039 15.4233C30.8075 15.4591 30.8195 15.4887 30.8398 15.5121C30.8604 15.5352 30.8864 15.5522 30.9178 15.5631C30.9495 15.5737 30.984 15.5786 31.0215 15.5778C31.0626 15.5769 31.0991 15.5694 31.1309 15.5555C31.163 15.5412 31.188 15.5219 31.2061 15.4976C31.2241 15.473 31.2327 15.4445 31.232 15.4122C31.2314 15.3829 31.2227 15.359 31.206 15.3406C31.1895 15.3223 31.1673 15.3073 31.1394 15.2956C31.1118 15.284 31.0806 15.2739 31.0458 15.2653L30.931 15.2359C30.8532 15.216 30.7912 15.1856 30.745 15.1446C30.6991 15.1037 30.6754 15.0487 30.6739 14.9796C30.6727 14.9225 30.6867 14.8723 30.716 14.829C30.7452 14.7857 30.7854 14.7517 30.8364 14.727C30.8874 14.7019 30.9453 14.6887 31.0101 14.6872C31.0755 14.6858 31.1334 14.6963 31.1839 14.7187C31.2347 14.7411 31.2751 14.7727 31.3049 14.8133C31.3347 14.8537 31.3508 14.9005 31.3532 14.9537L31.2127 14.9569Z" fill="white">
                                    <animate attributeName="d" values="M30.9894 15.8173L30.9624 14.5779L31.0398 14.5761L31.0667 15.8156L30.9894 15.8173ZM31.2127 14.9569C31.2067 14.9111 31.1851 14.8761 31.1481 14.8517C31.1111 14.8271 31.0649 14.8153 31.0096 14.8166C30.97 14.8175 30.9359 14.8247 30.9072 14.8383C30.8786 14.8515 30.8565 14.8694 30.8409 14.8921C30.8257 14.9144 30.8184 14.9395 30.819 14.9676C30.8195 14.9912 30.8253 15.0114 30.8364 15.0283C30.8477 15.0451 30.8623 15.0592 30.8802 15.0704C30.8984 15.0813 30.9177 15.0904 30.9384 15.0977C30.9589 15.1046 30.9787 15.1103 30.9977 15.1147L31.0926 15.1378C31.1235 15.1449 31.1554 15.1546 31.188 15.1672C31.2207 15.1797 31.2511 15.1964 31.2792 15.2174C31.3074 15.2384 31.3303 15.2647 31.3479 15.2963C31.3659 15.3279 31.3754 15.3659 31.3764 15.4104C31.3776 15.4666 31.3645 15.5168 31.3372 15.561C31.3102 15.6052 31.2702 15.6405 31.2173 15.6669C31.1647 15.6932 31.1007 15.7073 31.0253 15.709C30.953 15.7106 30.8901 15.7002 30.8368 15.6778C30.7835 15.6554 30.7414 15.623 30.7106 15.5804C30.6798 15.5375 30.6622 15.4862 30.6577 15.4266L30.8039 15.4233C30.8075 15.4591 30.8195 15.4887 30.8398 15.5121C30.8604 15.5352 30.8864 15.5522 30.9178 15.5631C30.9495 15.5737 30.984 15.5786 31.0215 15.5778C31.0626 15.5769 31.0991 15.5694 31.1309 15.5555C31.163 15.5412 31.188 15.5219 31.2061 15.4976C31.2241 15.473 31.2327 15.4445 31.232 15.4122C31.2314 15.3829 31.2227 15.359 31.206 15.3406C31.1895 15.3223 31.1673 15.3073 31.1394 15.2956C31.1118 15.284 31.0806 15.2739 31.0458 15.2653L30.931 15.2359C30.8532 15.216 30.7912 15.1856 30.745 15.1446C30.6991 15.1037 30.6754 15.0487 30.6739 14.9796C30.6727 14.9225 30.6867 14.8723 30.716 14.829C30.7452 14.7857 30.7854 14.7517 30.8364 14.727C30.8874 14.7019 30.9453 14.6887 31.0101 14.6872C31.0755 14.6858 31.1334 14.6963 31.1839 14.7187C31.2347 14.7411 31.2751 14.7727 31.3049 14.8133C31.3347 14.8537 31.3508 14.9005 31.3532 14.9537L31.2127 14.9569Z;M31.1842 15.0743L30.6782 13.9425L30.7488 13.9109L31.2548 15.0426L31.1842 15.0743ZM31.0559 14.1946C31.0326 14.1548 30.9992 14.1309 30.9556 14.1228C30.9119 14.1144 30.8648 14.1215 30.8143 14.1442C30.7782 14.1604 30.7495 14.1803 30.7284 14.2039C30.7071 14.2272 30.6937 14.2523 30.6882 14.2792C30.6828 14.3057 30.6858 14.3317 30.6973 14.3574C30.7069 14.3789 30.7201 14.3953 30.7368 14.4065C30.7539 14.4176 30.7728 14.4249 30.7936 14.4283C30.8146 14.4313 30.836 14.4322 30.8578 14.4309C30.8795 14.4293 30.8999 14.4269 30.9191 14.4236L31.0155 14.408C31.0467 14.4025 31.0799 14.3991 31.1148 14.398C31.1498 14.3968 31.1843 14.4005 31.2184 14.4089C31.2525 14.4173 31.2838 14.4327 31.3123 14.4549C31.3412 14.477 31.3647 14.5084 31.3829 14.5491C31.4058 14.6004 31.4132 14.6517 31.4052 14.7031C31.3974 14.7543 31.3743 14.8023 31.3358 14.8472C31.2976 14.8919 31.244 14.9296 31.1751 14.9605C31.1091 14.9901 31.0472 15.0049 30.9894 15.005C30.9316 15.005 30.8802 14.9914 30.8353 14.9641C30.7902 14.9366 30.7541 14.8962 30.7268 14.8429L30.8603 14.7832C30.8775 14.8147 30.9 14.8373 30.9278 14.8511C30.9558 14.8643 30.9864 14.8699 31.0195 14.8678C31.0528 14.8653 31.0866 14.8564 31.1207 14.8411C31.1583 14.8242 31.189 14.8032 31.2129 14.778C31.2369 14.7524 31.2525 14.7249 31.2597 14.6955C31.2668 14.6658 31.2637 14.6362 31.2505 14.6068C31.2385 14.5799 31.2213 14.5613 31.1987 14.5509C31.1764 14.5404 31.1502 14.5352 31.1199 14.5353C31.0899 14.5353 31.0572 14.538 31.0218 14.5436L30.9046 14.5611C30.8252 14.573 30.7563 14.569 30.6978 14.5492C30.6396 14.5293 30.5965 14.4878 30.5683 14.4247C30.5449 14.3725 30.5384 14.3208 30.5485 14.2696C30.5587 14.2183 30.5825 14.1714 30.6199 14.1288C30.6572 14.0859 30.7054 14.0513 30.7646 14.0248C30.8243 13.998 30.8817 13.9852 30.937 13.9863C30.9925 13.9872 31.0419 14.0007 31.0852 14.0266C31.1283 14.0522 31.1613 14.089 31.1842 14.1372L31.0559 14.1946Z;M30.9894 15.8173L30.9624 14.5779L31.0398 14.5761L31.0667 15.8156L30.9894 15.8173ZM31.2127 14.9569C31.2067 14.9111 31.1851 14.8761 31.1481 14.8517C31.1111 14.8271 31.0649 14.8153 31.0096 14.8166C30.97 14.8175 30.9359 14.8247 30.9072 14.8383C30.8786 14.8515 30.8565 14.8694 30.8409 14.8921C30.8257 14.9144 30.8184 14.9395 30.819 14.9676C30.8195 14.9912 30.8253 15.0114 30.8364 15.0283C30.8477 15.0451 30.8623 15.0592 30.8802 15.0704C30.8984 15.0813 30.9177 15.0904 30.9384 15.0977C30.9589 15.1046 30.9787 15.1103 30.9977 15.1147L31.0926 15.1378C31.1235 15.1449 31.1554 15.1546 31.188 15.1672C31.2207 15.1797 31.2511 15.1964 31.2792 15.2174C31.3074 15.2384 31.3303 15.2647 31.3479 15.2963C31.3659 15.3279 31.3754 15.3659 31.3764 15.4104C31.3776 15.4666 31.3645 15.5168 31.3372 15.561C31.3102 15.6052 31.2702 15.6405 31.2173 15.6669C31.1647 15.6932 31.1007 15.7073 31.0253 15.709C30.953 15.7106 30.8901 15.7002 30.8368 15.6778C30.7835 15.6554 30.7414 15.623 30.7106 15.5804C30.6798 15.5375 30.6622 15.4862 30.6577 15.4266L30.8039 15.4233C30.8075 15.4591 30.8195 15.4887 30.8398 15.5121C30.8604 15.5352 30.8864 15.5522 30.9178 15.5631C30.9495 15.5737 30.984 15.5786 31.0215 15.5778C31.0626 15.5769 31.0991 15.5694 31.1309 15.5555C31.163 15.5412 31.188 15.5219 31.2061 15.4976C31.2241 15.473 31.2327 15.4445 31.232 15.4122C31.2314 15.3829 31.2227 15.359 31.206 15.3406C31.1895 15.3223 31.1673 15.3073 31.1394 15.2956C31.1118 15.284 31.0806 15.2739 31.0458 15.2653L30.931 15.2359C30.8532 15.216 30.7912 15.1856 30.745 15.1446C30.6991 15.1037 30.6754 15.0487 30.6739 14.9796C30.6727 14.9225 30.6867 14.8723 30.716 14.829C30.7452 14.7857 30.7854 14.7517 30.8364 14.727C30.8874 14.7019 30.9453 14.6887 31.0101 14.6872C31.0755 14.6858 31.1334 14.6963 31.1839 14.7187C31.2347 14.7411 31.2751 14.7727 31.3049 14.8133C31.3347 14.8537 31.3508 14.9005 31.3532 14.9537L31.2127 14.9569Z" begin="0s" dur="3s" repeatCount="indefinite" fill="freeze" calcMode="linear" keyTimes="0;0.5;1"/></path>
</g>
</g>
</g>
<g id="Group 1171276168">
<g id="Vector 690_2">
<path d="M5.28417 21.3166L5.66143 21.38L5.71641 21.0763L5.90461 21.1104L5.97904 20.6992L10.7783 21.568L10.2014 24.7547L9.82502 24.6866L9.7878 24.8922L9.50549 24.841L9.44967 25.1494L4.74454 24.2977L5.28417 21.3166Z" fill="url(#paint6_linear_87_1177)">
                                    <animate attributeName="d" values="M5.28417 21.3166L5.66143 21.38L5.71641 21.0763L5.90461 21.1104L5.97904 20.6992L10.7783 21.568L10.2014 24.7547L9.82502 24.6866L9.7878 24.8922L9.50549 24.841L9.44967 25.1494L4.74454 24.2977L5.28417 21.3166Z;M4.83024 22.5368L5.19819 22.4321L5.11745 22.1343L5.30205 22.0842L5.19272 21.6809L9.90007 20.4049L10.7474 23.5306L10.3782 23.6307L10.4328 23.8323L10.1559 23.9074L10.2379 24.2099L5.62287 25.4609L4.83024 22.5368Z;M5.28417 21.3166L5.66143 21.38L5.71641 21.0763L5.90461 21.1104L5.97904 20.6992L10.7783 21.568L10.2014 24.7547L9.82502 24.6866L9.7878 24.8922L9.50549 24.841L9.44967 25.1494L4.74454 24.2977L5.28417 21.3166Z" begin="0s" dur="3s" repeatCount="indefinite" fill="freeze" calcMode="linear" keyTimes="0;0.5;1"/></path>
<path d="M5.28417 21.3166L9.99994 22.1096L9.44967 25.1494L4.74454 24.2977L5.28417 21.3166ZM5.84985 21.9498L9.14344 22.546C9.10509 22.8035 9.16882 22.9095 9.44542 23.0254L9.20351 24.3617C8.95909 24.3069 8.86134 24.3533 8.77128 24.602L5.47769 24.0058C5.53101 23.7648 5.46471 23.6979 5.2512 23.6463L5.49311 22.3099C5.75878 22.2779 5.82665 22.1897 5.84985 21.9498ZM6.05773 22.4121L8.8808 22.9231C8.88766 23.0902 8.92872 23.1312 9.03179 23.1628L8.88293 23.9852C8.7012 24.029 8.64751 24.0906 8.6389 24.2595L5.81582 23.7485C5.79198 23.5985 5.75857 23.5282 5.57073 23.4918L5.7382 22.5666C5.88047 22.5911 5.94915 22.5565 6.05773 22.4121ZM5.66058 21.3847L9.9893 22.1683L9.50549 24.841L9.7878 24.8922L10.3274 21.911L5.71641 21.0763L5.66058 21.3847ZM5.90461 21.1104L10.3408 21.8983L9.82502 24.6866L10.2014 24.7547L10.7783 21.568L5.97904 20.6992L5.90461 21.1104Z" stroke="white" stroke-width="0.12">
                                    <animate attributeName="d" values="M5.28417 21.3166L9.99994 22.1096L9.44967 25.1494L4.74454 24.2977L5.28417 21.3166ZM5.84985 21.9498L9.14344 22.546C9.10509 22.8035 9.16882 22.9095 9.44542 23.0254L9.20351 24.3617C8.95909 24.3069 8.86134 24.3533 8.77128 24.602L5.47769 24.0058C5.53101 23.7648 5.46471 23.6979 5.2512 23.6463L5.49311 22.3099C5.75878 22.2779 5.82665 22.1897 5.84985 21.9498ZM6.05773 22.4121L8.8808 22.9231C8.88766 23.0902 8.92872 23.1312 9.03179 23.1628L8.88293 23.9852C8.7012 24.029 8.64751 24.0906 8.6389 24.2595L5.81582 23.7485C5.79198 23.5985 5.75857 23.5282 5.57073 23.4918L5.7382 22.5666C5.88047 22.5911 5.94915 22.5565 6.05773 22.4121ZM5.66058 21.3847L9.9893 22.1683L9.50549 24.841L9.7878 24.8922L10.3274 21.911L5.71641 21.0763L5.66058 21.3847ZM5.90461 21.1104L10.3408 21.8983L9.82502 24.6866L10.2014 24.7547L10.7783 21.568L5.97904 20.6992L5.90461 21.1104Z;M4.83024 22.5368L9.42967 21.2282L10.2379 24.2099L5.62287 25.4609L4.83024 22.5368ZM5.61301 22.8658L8.84354 21.9901C8.91944 22.2391 9.02252 22.3075 9.32207 22.2934L9.67739 23.6042C9.43311 23.6596 9.36476 23.7435 9.39018 24.0067L6.15965 24.8824C6.10435 24.6419 6.01572 24.6099 5.80075 24.655L5.44543 23.3442C5.6716 23.2012 5.69505 23.0925 5.61301 22.8658ZM5.99924 23.1941L8.76826 22.4435C8.8462 22.5915 8.90087 22.6108 9.00753 22.5951L9.22619 23.4017C9.08086 23.5193 9.05885 23.598 9.12358 23.7543L6.35455 24.5049C6.26862 24.3797 6.20827 24.3305 6.02299 24.3783L5.777 23.4708C5.91599 23.4318 5.96317 23.3711 5.99924 23.1941ZM5.19944 22.4368L9.44529 21.2858L10.1559 23.9074L10.4328 23.8323L9.64019 20.9083L5.11745 22.1343L5.19944 22.4368ZM5.30205 22.0842L9.64678 20.891L10.3782 23.6307L10.7474 23.5306L9.90007 20.4049L5.19272 21.6809L5.30205 22.0842Z;M5.28417 21.3166L9.99994 22.1096L9.44967 25.1494L4.74454 24.2977L5.28417 21.3166ZM5.84985 21.9498L9.14344 22.546C9.10509 22.8035 9.16882 22.9095 9.44542 23.0254L9.20351 24.3617C8.95909 24.3069 8.86134 24.3533 8.77128 24.602L5.47769 24.0058C5.53101 23.7648 5.46471 23.6979 5.2512 23.6463L5.49311 22.3099C5.75878 22.2779 5.82665 22.1897 5.84985 21.9498ZM6.05773 22.4121L8.8808 22.9231C8.88766 23.0902 8.92872 23.1312 9.03179 23.1628L8.88293 23.9852C8.7012 24.029 8.64751 24.0906 8.6389 24.2595L5.81582 23.7485C5.79198 23.5985 5.75857 23.5282 5.57073 23.4918L5.7382 22.5666C5.88047 22.5911 5.94915 22.5565 6.05773 22.4121ZM5.66058 21.3847L9.9893 22.1683L9.50549 24.841L9.7878 24.8922L10.3274 21.911L5.71641 21.0763L5.66058 21.3847ZM5.90461 21.1104L10.3408 21.8983L9.82502 24.6866L10.2014 24.7547L10.7783 21.568L5.97904 20.6992L5.90461 21.1104Z" begin="0s" dur="3s" repeatCount="indefinite" fill="freeze" calcMode="linear" keyTimes="0;0.5;1"/></path>
</g>
<g id="Group 1171276124_2">
<path id="Vector_6" d="M7.32804 22.7773C7.21459 22.7798 7.10449 22.8193 7.01167 22.8909C6.91885 22.9624 6.84748 23.0628 6.80659 23.1793C6.76569 23.2957 6.75711 23.4231 6.78192 23.5452C6.80674 23.6673 6.86383 23.7787 6.94599 23.8653C7.02815 23.9519 7.13168 24.0098 7.24349 24.0317C7.3553 24.0536 7.47036 24.0385 7.57414 23.9883C7.67791 23.9381 7.76574 23.8551 7.8265 23.7498C7.88726 23.6444 7.91823 23.5215 7.9155 23.3965C7.91169 23.2289 7.8477 23.0696 7.73756 22.9535C7.62742 22.8374 7.48014 22.774 7.32804 22.7773Z" fill="url(#paint7_radial_87_1177)"/>
<g id="$_2" filter="url(#filter2_d_87_1177)">
<path d="M7.32587 23.8734L7.30549 22.9411L7.36572 22.9398L7.38609 23.872L7.32587 23.8734ZM7.50019 23.226C7.49552 23.1917 7.47878 23.1653 7.44997 23.147C7.42115 23.1285 7.3852 23.1197 7.34212 23.1206C7.31127 23.1213 7.28469 23.1268 7.26238 23.137C7.24007 23.147 7.22285 23.1605 7.21073 23.1775C7.19885 23.1943 7.19314 23.2132 7.1936 23.2343C7.19399 23.2521 7.19849 23.2673 7.20709 23.2799C7.21594 23.2926 7.22731 23.3032 7.24121 23.3116C7.25535 23.3198 7.27044 23.3266 7.28648 23.3321C7.30252 23.3373 7.31792 23.3416 7.33269 23.3449L7.40654 23.3622C7.43066 23.3675 7.45544 23.3748 7.48087 23.3842C7.5063 23.3936 7.52997 23.4062 7.55187 23.422C7.57377 23.4378 7.59159 23.4575 7.60533 23.4813C7.61932 23.505 7.62668 23.5336 7.62741 23.5671C7.62834 23.6094 7.61814 23.6471 7.59682 23.6804C7.57575 23.7137 7.54461 23.7402 7.50341 23.7601C7.46245 23.78 7.4126 23.7905 7.35384 23.7919C7.29754 23.7931 7.24863 23.7853 7.20711 23.7685C7.1656 23.7517 7.13286 23.7273 7.10889 23.6953C7.08492 23.6631 7.07121 23.6245 7.06778 23.5796L7.18162 23.5771C7.18441 23.604 7.19372 23.6263 7.20953 23.6439C7.22559 23.6612 7.24583 23.674 7.27025 23.6822C7.29492 23.6902 7.32182 23.6938 7.35095 23.6932C7.38302 23.6925 7.41143 23.6869 7.43619 23.6763C7.46118 23.6656 7.4807 23.6511 7.49475 23.6328C7.5088 23.6142 7.51555 23.5928 7.51502 23.5686C7.51454 23.5465 7.50778 23.5285 7.49474 23.5147C7.48195 23.5009 7.46468 23.4896 7.44294 23.4809C7.42144 23.4722 7.39715 23.4646 7.37006 23.4581L7.28067 23.4361C7.2201 23.4211 7.17184 23.3983 7.13589 23.3675C7.1002 23.3367 7.08178 23.2954 7.08064 23.2434C7.07971 23.2005 7.09064 23.1627 7.11344 23.1301C7.13624 23.0975 7.16752 23.0719 7.20728 23.0533C7.24704 23.0345 7.29213 23.0245 7.34256 23.0233C7.39348 23.0222 7.4386 23.0301 7.47791 23.0469C7.51746 23.0638 7.54884 23.0875 7.57204 23.118C7.59524 23.1484 7.60777 23.1836 7.60962 23.2236L7.50019 23.226Z" fill="white"/>
</g>
</g>
</g>

                                    </g>

                                    </g>
<defs>
<filter id="filter0_d_87_1177" x="9" y="2" width="22" height="22" filterUnits="userSpaceOnUse" color-interpolation-filters="sRGB">
<feFlood flood-opacity="0" result="BackgroundImageFix"/>
<feColorMatrix in="SourceAlpha" type="matrix" values="0 0 0 0 0 0 0 0 0 0 0 0 0 0 0 0 0 0 127 0" result="hardAlpha"/>
<feOffset/>
<feGaussianBlur stdDeviation="1"/>
<feComposite in2="hardAlpha" operator="out"/>
<feColorMatrix type="matrix" values="0 0 0 0 0 0 0 0 0 0 0 0 0 0 0 0 0 0 0.25 0"/>
<feBlend mode="normal" in2="BackgroundImageFix" result="effect1_dropShadow_87_1177">
                                    </feBlend>
<feBlend mode="normal" in="SourceGraphic" in2="effect1_dropShadow_87_1177" result="shape">
                                    </feBlend>

                                    </filter>
<filter id="filter1_d_87_1177" x="26.6577" y="10.5761" width="8.71875" height="9.24115" filterUnits="userSpaceOnUse" color-interpolation-filters="sRGB">
<feFlood flood-opacity="0" result="BackgroundImageFix"/>
<feColorMatrix in="SourceAlpha" type="matrix" values="0 0 0 0 0 0 0 0 0 0 0 0 0 0 0 0 0 0 127 0" result="hardAlpha"/>
<feOffset/>
<feGaussianBlur stdDeviation="2"/>
<feComposite in2="hardAlpha" operator="out"/>
<feColorMatrix type="matrix" values="0 0 0 0 0 0 0 0 0 0 0 0 0 0 0 0 0 0 0.25 0"/>
<feBlend mode="normal" in2="BackgroundImageFix" result="effect1_dropShadow_87_1177">
                                    </feBlend>
<feBlend mode="normal" in="SourceGraphic" in2="effect1_dropShadow_87_1177" result="shape">
                                    </feBlend>

                                    
                                    <animate attributeName="x" values="26.6577;26.5439;26.6577" begin="0s" dur="3s" repeatCount="indefinite" fill="freeze" calcMode="linear" keyTimes="0;0.5;1"/>
                                    <animate attributeName="y" values="10.5761;9.91086;10.5761" begin="0s" dur="3s" repeatCount="indefinite" fill="freeze" calcMode="linear" keyTimes="0;0.5;1"/>
                                    <animate attributeName="width" values="8.71875;8.86438;8.71875" begin="0s" dur="3s" repeatCount="indefinite" fill="freeze" calcMode="linear" keyTimes="0;0.5;1"/>
                                    <animate attributeName="height" values="9.24115;9.16339;9.24115" begin="0s" dur="3s" repeatCount="indefinite" fill="freeze" calcMode="linear" keyTimes="0;0.5;1"/></filter>
<filter id="filter2_d_87_1177" x="3.06775" y="18.9398" width="8.55969" height="8.93359" filterUnits="userSpaceOnUse" color-interpolation-filters="sRGB">
<feFlood flood-opacity="0" result="BackgroundImageFix"/>
<feColorMatrix in="SourceAlpha" type="matrix" values="0 0 0 0 0 0 0 0 0 0 0 0 0 0 0 0 0 0 127 0" result="hardAlpha"/>
<feOffset/>
<feGaussianBlur stdDeviation="2"/>
<feComposite in2="hardAlpha" operator="out"/>
<feColorMatrix type="matrix" values="0 0 0 0 0 0 0 0 0 0 0 0 0 0 0 0 0 0 0.25 0"/>
<feBlend mode="normal" in2="BackgroundImageFix" result="effect1_dropShadow_87_1177">
                                    </feBlend>
<feBlend mode="normal" in="SourceGraphic" in2="effect1_dropShadow_87_1177" result="shape">
                                    </feBlend>

                                    </filter>
<linearGradient id="paint0_linear_87_1177" x1="3.77825" y1="19.5" x2="36.2178" y2="19.5" gradientUnits="userSpaceOnUse">
<stop stop-color="#3181D5"/>
<stop offset="1" stop-color="#EE780B"/>

                                    
                                    <animate attributeName="x1" values="3.77825;4.77825;3.77825" begin="0s" dur="3s" repeatCount="indefinite" fill="freeze" calcMode="linear" keyTimes="0;0.5;1"/>
                                    <animate attributeName="x2" values="36.2178;37.2178;36.2178" begin="0s" dur="3s" repeatCount="indefinite" fill="freeze" calcMode="linear" keyTimes="0;0.5;1"/></linearGradient>
<linearGradient id="paint1_linear_87_1177" x1="20" y1="9.75" x2="20" y2="29" gradientUnits="userSpaceOnUse">
<stop stop-color="#428AEA"/>
<stop offset="1" stop-color="#163967"/>

                                    </linearGradient>
<linearGradient id="paint2_linear_87_1177" x1="19.5" y1="36" x2="19.5" y2="29.5" gradientUnits="userSpaceOnUse">
<stop stop-color="#428AEA"/>
<stop offset="1" stop-color="#163967"/>

                                    </linearGradient>
<linearGradient id="paint3_linear_87_1177" x1="20" y1="29" x2="20" y2="36" gradientUnits="userSpaceOnUse">
<stop stop-color="#428AEA"/>
<stop offset="1" stop-color="#254E84"/>

                                    </linearGradient>
<linearGradient id="paint4_linear_87_1177" x1="31.2908" y1="13.1167" x2="30.6537" y2="16.9531" gradientUnits="userSpaceOnUse">
<stop stop-color="#7ED63F"/>
<stop offset="1" stop-color="#409801"/>

                                    
                                    <animate attributeName="x1" values="31.2908;30.2008;31.2908" begin="0s" dur="3s" repeatCount="indefinite" fill="freeze" calcMode="linear" keyTimes="0;0.5;1"/>
                                    <animate attributeName="y1" values="13.1167;12.6357;13.1167" begin="0s" dur="3s" repeatCount="indefinite" fill="freeze" calcMode="linear" keyTimes="0;0.5;1"/>
                                    <animate attributeName="x2" values="30.6537;31.7795;30.6537" begin="0s" dur="3s" repeatCount="indefinite" fill="freeze" calcMode="linear" keyTimes="0;0.5;1"/>
                                    <animate attributeName="y2" values="16.9531;16.1897;16.9531" begin="0s" dur="3s" repeatCount="indefinite" fill="freeze" calcMode="linear" keyTimes="0;0.5;1"/></linearGradient>
<radialGradient id="paint5_radial_87_1177" cx="0" cy="0" r="1" gradientUnits="userSpaceOnUse" gradientTransform="translate(30.1567 15.2032) rotate(30.0394) scale(1.29334 1.38386)">
<stop stop-color="#FFD6B0"/>
<stop offset="0.517762" stop-color="#FFA24C"/>
<stop offset="1" stop-color="#EE780B"/>

                                    </radialGradient>
<linearGradient id="paint6_linear_87_1177" x1="7.57108" y1="21.8367" x2="7.05005" y2="24.7151" gradientUnits="userSpaceOnUse">
<stop stop-color="#7ED63F"/>
<stop offset="1" stop-color="#409801"/>

                                    
                                    <animate attributeName="x1" values="7.57108;7.11894;7.57108" begin="0s" dur="3s" repeatCount="indefinite" fill="freeze" calcMode="linear" keyTimes="0;0.5;1"/>
                                    <animate attributeName="y1" values="21.8367;22.0247;21.8367" begin="0s" dur="3s" repeatCount="indefinite" fill="freeze" calcMode="linear" keyTimes="0;0.5;1"/>
                                    <animate attributeName="x2" values="7.05005;7.88424;7.05005" begin="0s" dur="3s" repeatCount="indefinite" fill="freeze" calcMode="linear" keyTimes="0;0.5;1"/>
                                    <animate attributeName="y2" values="24.7151;24.8479;24.7151" begin="0s" dur="3s" repeatCount="indefinite" fill="freeze" calcMode="linear" keyTimes="0;0.5;1"/></linearGradient>
<radialGradient id="paint7_radial_87_1177" cx="0" cy="0" r="1" gradientUnits="userSpaceOnUse" gradientTransform="translate(6.67779 23.4118) rotate(29.1669) scale(0.998074 1.05036)">
<stop stop-color="#FFD6B0"/>
<stop offset="0.517762" stop-color="#FFA24C"/>
<stop offset="1" stop-color="#EE780B"/>

                                    </radialGradient>
</defs>
</svg>