<svg width="40" height="40" viewBox="0 0 40 40" fill="none" xmlns="http://www.w3.org/2000/svg">
<g id="Group 1171276179">
<rect id="Rectangle 34624669" width="40" height="40" fill="white">
                                    </rect>
<g id="Group 1171276177">
<g id="Group 1171276133">
<path id="Vector 690" d="M34.6432 12.5L15.5 12.5C14.9477 12.5 14.5 12.9477 14.5 13.5L14.5 24.5C14.5 25.0523 14.9477 25.5 15.5 25.5L34.6432 25.5C35.1955 25.5 35.6432 25.0523 35.6432 24.5L35.6432 13.5C35.6432 12.9477 35.1955 12.5 34.6432 12.5Z" fill="url(#paint0_linear_87_1267)" stroke="white" stroke-width="0.25">
                                    <animate attributeName="d" values="M34.6432 12.5L15.5 12.5C14.9477 12.5 14.5 12.9477 14.5 13.5L14.5 24.5C14.5 25.0523 14.9477 25.5 15.5 25.5L34.6432 25.5C35.1955 25.5 35.6432 25.0523 35.6432 24.5L35.6432 13.5C35.6432 12.9477 35.1955 12.5 34.6432 12.5Z;M27.6432 12.5L8.5 12.5C7.94772 12.5 7.5 12.9477 7.5 13.5L7.5 24.5C7.5 25.0523 7.94772 25.5 8.5 25.5L27.6432 25.5C28.1955 25.5 28.6432 25.0523 28.6432 24.5L28.6432 13.5C28.6432 12.9477 28.1955 12.5 27.6432 12.5Z;M34.6432 12.5L15.5 12.5C14.9477 12.5 14.5 12.9477 14.5 13.5L14.5 24.5C14.5 25.0523 14.9477 25.5 15.5 25.5L34.6432 25.5C35.1955 25.5 35.6432 25.0523 35.6432 24.5L35.6432 13.5C35.6432 12.9477 35.1955 12.5 34.6432 12.5Z" begin="0s" dur="3s" repeatCount="indefinite" fill="freeze" calcMode="linear" keyTimes="0;0.5;1"/></path>
<g id="Group 1171276124">
<path id="Vector" d="M24.8543 16.7276C24.3424 16.729 23.8424 16.8895 23.4176 17.1888C22.9927 17.4881 22.6621 17.9127 22.4675 18.4089C22.2729 18.9051 22.223 19.4507 22.3243 19.9767C22.4255 20.5026 22.6733 20.9853 23.0362 21.3636C23.3992 21.742 23.861 21.9991 24.3634 22.1023C24.8657 22.2056 25.386 22.1504 25.8584 21.9438C26.3308 21.7371 26.7341 21.3883 27.0174 20.9414C27.3006 20.4945 27.451 19.9696 27.4496 19.433C27.4471 18.7138 27.1724 18.025 26.6858 17.5178C26.1993 17.0105 25.5406 16.7264 24.8543 16.7276Z" fill="url(#paint1_radial_87_1267)">
                                    <animate attributeName="d" values="M24.8543 16.7276C24.3424 16.729 23.8424 16.8895 23.4176 17.1888C22.9927 17.4881 22.6621 17.9127 22.4675 18.4089C22.2729 18.9051 22.223 19.4507 22.3243 19.9767C22.4255 20.5026 22.6733 20.9853 23.0362 21.3636C23.3992 21.742 23.861 21.9991 24.3634 22.1023C24.8657 22.2056 25.386 22.1504 25.8584 21.9438C26.3308 21.7371 26.7341 21.3883 27.0174 20.9414C27.3006 20.4945 27.451 19.9696 27.4496 19.433C27.4471 18.7138 27.1724 18.025 26.6858 17.5178C26.1993 17.0105 25.5406 16.7264 24.8543 16.7276Z;M17.8543 16.7276C17.3424 16.729 16.8424 16.8895 16.4176 17.1888C15.9927 17.4881 15.6621 17.9127 15.4675 18.4089C15.2729 18.9051 15.223 19.4507 15.3243 19.9767C15.4255 20.5026 15.6733 20.9853 16.0362 21.3636C16.3992 21.742 16.861 21.9991 17.3634 22.1023C17.8657 22.2056 18.386 22.1504 18.8584 21.9438C19.3308 21.7371 19.7341 21.3883 20.0174 20.9414C20.3006 20.4945 20.451 19.9696 20.4496 19.433C20.4471 18.7138 20.1724 18.025 19.6858 17.5178C19.1993 17.0105 18.5406 16.7264 17.8543 16.7276Z;M24.8543 16.7276C24.3424 16.729 23.8424 16.8895 23.4176 17.1888C22.9927 17.4881 22.6621 17.9127 22.4675 18.4089C22.2729 18.9051 22.223 19.4507 22.3243 19.9767C22.4255 20.5026 22.6733 20.9853 23.0362 21.3636C23.3992 21.742 23.861 21.9991 24.3634 22.1023C24.8657 22.2056 25.386 22.1504 25.8584 21.9438C26.3308 21.7371 26.7341 21.3883 27.0174 20.9414C27.3006 20.4945 27.451 19.9696 27.4496 19.433C27.4471 18.7138 27.1724 18.025 26.6858 17.5178C26.1993 17.0105 25.5406 16.7264 24.8543 16.7276Z" begin="0s" dur="3s" repeatCount="indefinite" fill="freeze" calcMode="linear" keyTimes="0;0.5;1"/></path>
<g id="$" filter="url(#filter0_d_87_1267)">
<path d="M24.7487 21.4299L24.7383 17.4286L25.01 17.4278L25.0204 21.4291L24.7487 21.4299ZM25.5915 18.6672C25.5734 18.5193 25.5002 18.4049 25.3719 18.324C25.2435 18.242 25.0822 18.2013 24.8878 18.2018C24.7486 18.2022 24.6283 18.2234 24.5268 18.2654C24.4252 18.3063 24.3464 18.3628 24.2903 18.4349C24.2352 18.5059 24.2078 18.5867 24.2081 18.6774C24.2083 18.7534 24.2272 18.819 24.2649 18.8741C24.3037 18.9293 24.3541 18.9755 24.416 19.0128C24.4791 19.0491 24.5465 19.0797 24.6184 19.1045C24.6903 19.1282 24.7593 19.1478 24.8257 19.1633L25.1572 19.2436C25.2655 19.2683 25.3766 19.3019 25.4905 19.3443C25.6044 19.3867 25.71 19.4427 25.8074 19.5122C25.9048 19.5817 25.9834 19.668 26.0433 19.771C26.1044 19.874 26.1351 19.9974 26.1354 20.1412C26.1359 20.3225 26.0866 20.4836 25.9876 20.6246C25.8896 20.7655 25.7469 20.8769 25.5593 20.9587C25.3729 21.0405 25.1471 21.0818 24.882 21.0825C24.628 21.0832 24.4081 21.0458 24.2223 20.9703C24.0366 20.8947 23.891 20.7873 23.7857 20.6479C23.6804 20.5076 23.622 20.341 23.6105 20.1483L24.1241 20.1468C24.1343 20.2625 24.1743 20.3587 24.2441 20.4356C24.315 20.5115 24.4052 20.5681 24.5146 20.6053C24.6252 20.6414 24.7462 20.6593 24.8776 20.6589C25.0223 20.6585 25.1509 20.6368 25.2635 20.5938C25.3771 20.5497 25.4664 20.489 25.5314 20.4117C25.5964 20.3334 25.6287 20.2421 25.6284 20.1379C25.6282 20.0431 25.5993 19.9655 25.5417 19.9053C25.4852 19.845 25.4083 19.7952 25.311 19.7559C25.2148 19.7165 25.1059 19.6819 24.9843 19.6521L24.5831 19.55C24.3112 19.481 24.0956 19.3789 23.9362 19.2439C23.7779 19.1089 23.6984 18.9299 23.6978 18.7069C23.6974 18.5225 23.75 18.3613 23.8556 18.2235C23.9613 18.0857 24.1046 17.9785 24.2856 17.9019C24.4665 17.8243 24.6708 17.7851 24.8983 17.7845C25.128 17.7838 25.3308 17.8213 25.5066 17.8969C25.6836 17.9725 25.823 18.0768 25.925 18.2099C26.0269 18.3419 26.0803 18.4939 26.0852 18.6658L25.5915 18.6672Z" fill="white">
                                    <animate attributeName="d" values="M24.7487 21.4299L24.7383 17.4286L25.01 17.4278L25.0204 21.4291L24.7487 21.4299ZM25.5915 18.6672C25.5734 18.5193 25.5002 18.4049 25.3719 18.324C25.2435 18.242 25.0822 18.2013 24.8878 18.2018C24.7486 18.2022 24.6283 18.2234 24.5268 18.2654C24.4252 18.3063 24.3464 18.3628 24.2903 18.4349C24.2352 18.5059 24.2078 18.5867 24.2081 18.6774C24.2083 18.7534 24.2272 18.819 24.2649 18.8741C24.3037 18.9293 24.3541 18.9755 24.416 19.0128C24.4791 19.0491 24.5465 19.0797 24.6184 19.1045C24.6903 19.1282 24.7593 19.1478 24.8257 19.1633L25.1572 19.2436C25.2655 19.2683 25.3766 19.3019 25.4905 19.3443C25.6044 19.3867 25.71 19.4427 25.8074 19.5122C25.9048 19.5817 25.9834 19.668 26.0433 19.771C26.1044 19.874 26.1351 19.9974 26.1354 20.1412C26.1359 20.3225 26.0866 20.4836 25.9876 20.6246C25.8896 20.7655 25.7469 20.8769 25.5593 20.9587C25.3729 21.0405 25.1471 21.0818 24.882 21.0825C24.628 21.0832 24.4081 21.0458 24.2223 20.9703C24.0366 20.8947 23.891 20.7873 23.7857 20.6479C23.6804 20.5076 23.622 20.341 23.6105 20.1483L24.1241 20.1468C24.1343 20.2625 24.1743 20.3587 24.2441 20.4356C24.315 20.5115 24.4052 20.5681 24.5146 20.6053C24.6252 20.6414 24.7462 20.6593 24.8776 20.6589C25.0223 20.6585 25.1509 20.6368 25.2635 20.5938C25.3771 20.5497 25.4664 20.489 25.5314 20.4117C25.5964 20.3334 25.6287 20.2421 25.6284 20.1379C25.6282 20.0431 25.5993 19.9655 25.5417 19.9053C25.4852 19.845 25.4083 19.7952 25.311 19.7559C25.2148 19.7165 25.1059 19.6819 24.9843 19.6521L24.5831 19.55C24.3112 19.481 24.0956 19.3789 23.9362 19.2439C23.7779 19.1089 23.6984 18.9299 23.6978 18.7069C23.6974 18.5225 23.75 18.3613 23.8556 18.2235C23.9613 18.0857 24.1046 17.9785 24.2856 17.9019C24.4665 17.8243 24.6708 17.7851 24.8983 17.7845C25.128 17.7838 25.3308 17.8213 25.5066 17.8969C25.6836 17.9725 25.823 18.0768 25.925 18.2099C26.0269 18.3419 26.0803 18.4939 26.0852 18.6658L25.5915 18.6672Z;M17.7487 21.4299L17.7383 17.4286L18.01 17.4278L18.0204 21.4291L17.7487 21.4299ZM18.5915 18.6672C18.5734 18.5193 18.5002 18.4049 18.3719 18.324C18.2435 18.242 18.0822 18.2013 17.8878 18.2018C17.7486 18.2022 17.6283 18.2234 17.5268 18.2654C17.4252 18.3063 17.3464 18.3628 17.2903 18.4349C17.2352 18.5059 17.2078 18.5867 17.2081 18.6774C17.2083 18.7534 17.2272 18.819 17.2649 18.8741C17.3037 18.9293 17.3541 18.9755 17.416 19.0128C17.4791 19.0491 17.5465 19.0797 17.6184 19.1045C17.6903 19.1282 17.7593 19.1478 17.8257 19.1633L18.1572 19.2436C18.2655 19.2683 18.3766 19.3019 18.4905 19.3443C18.6044 19.3867 18.71 19.4427 18.8074 19.5122C18.9048 19.5817 18.9834 19.668 19.0433 19.771C19.1044 19.874 19.1351 19.9974 19.1354 20.1412C19.1359 20.3225 19.0866 20.4836 18.9876 20.6246C18.8896 20.7655 18.7469 20.8769 18.5593 20.9587C18.3729 21.0405 18.1471 21.0818 17.882 21.0825C17.628 21.0832 17.4081 21.0458 17.2223 20.9703C17.0366 20.8947 16.891 20.7873 16.7857 20.6479C16.6804 20.5076 16.622 20.341 16.6105 20.1483L17.1241 20.1468C17.1343 20.2625 17.1743 20.3587 17.2441 20.4356C17.315 20.5115 17.4052 20.5681 17.5146 20.6053C17.6252 20.6414 17.7462 20.6593 17.8776 20.6589C18.0223 20.6585 18.1509 20.6368 18.2635 20.5938C18.3771 20.5497 18.4664 20.489 18.5314 20.4117C18.5964 20.3334 18.6287 20.2421 18.6284 20.1379C18.6282 20.0431 18.5993 19.9655 18.5417 19.9053C18.4852 19.845 18.4083 19.7952 18.311 19.7559C18.2148 19.7165 18.1059 19.6819 17.9843 19.6521L17.5831 19.55C17.3112 19.481 17.0956 19.3789 16.9362 19.2439C16.7779 19.1089 16.6984 18.9299 16.6978 18.7069C16.6974 18.5225 16.75 18.3613 16.8556 18.2235C16.9613 18.0857 17.1046 17.9785 17.2856 17.9019C17.4665 17.8243 17.6708 17.7851 17.8983 17.7845C18.128 17.7838 18.3308 17.8213 18.5066 17.8969C18.6836 17.9725 18.823 18.0768 18.925 18.2099C19.0269 18.3419 19.0803 18.4939 19.0852 18.6658L18.5915 18.6672Z;M24.7487 21.4299L24.7383 17.4286L25.01 17.4278L25.0204 21.4291L24.7487 21.4299ZM25.5915 18.6672C25.5734 18.5193 25.5002 18.4049 25.3719 18.324C25.2435 18.242 25.0822 18.2013 24.8878 18.2018C24.7486 18.2022 24.6283 18.2234 24.5268 18.2654C24.4252 18.3063 24.3464 18.3628 24.2903 18.4349C24.2352 18.5059 24.2078 18.5867 24.2081 18.6774C24.2083 18.7534 24.2272 18.819 24.2649 18.8741C24.3037 18.9293 24.3541 18.9755 24.416 19.0128C24.4791 19.0491 24.5465 19.0797 24.6184 19.1045C24.6903 19.1282 24.7593 19.1478 24.8257 19.1633L25.1572 19.2436C25.2655 19.2683 25.3766 19.3019 25.4905 19.3443C25.6044 19.3867 25.71 19.4427 25.8074 19.5122C25.9048 19.5817 25.9834 19.668 26.0433 19.771C26.1044 19.874 26.1351 19.9974 26.1354 20.1412C26.1359 20.3225 26.0866 20.4836 25.9876 20.6246C25.8896 20.7655 25.7469 20.8769 25.5593 20.9587C25.3729 21.0405 25.1471 21.0818 24.882 21.0825C24.628 21.0832 24.4081 21.0458 24.2223 20.9703C24.0366 20.8947 23.891 20.7873 23.7857 20.6479C23.6804 20.5076 23.622 20.341 23.6105 20.1483L24.1241 20.1468C24.1343 20.2625 24.1743 20.3587 24.2441 20.4356C24.315 20.5115 24.4052 20.5681 24.5146 20.6053C24.6252 20.6414 24.7462 20.6593 24.8776 20.6589C25.0223 20.6585 25.1509 20.6368 25.2635 20.5938C25.3771 20.5497 25.4664 20.489 25.5314 20.4117C25.5964 20.3334 25.6287 20.2421 25.6284 20.1379C25.6282 20.0431 25.5993 19.9655 25.5417 19.9053C25.4852 19.845 25.4083 19.7952 25.311 19.7559C25.2148 19.7165 25.1059 19.6819 24.9843 19.6521L24.5831 19.55C24.3112 19.481 24.0956 19.3789 23.9362 19.2439C23.7779 19.1089 23.6984 18.9299 23.6978 18.7069C23.6974 18.5225 23.75 18.3613 23.8556 18.2235C23.9613 18.0857 24.1046 17.9785 24.2856 17.9019C24.4665 17.8243 24.6708 17.7851 24.8983 17.7845C25.128 17.7838 25.3308 17.8213 25.5066 17.8969C25.6836 17.9725 25.823 18.0768 25.925 18.2099C26.0269 18.3419 26.0803 18.4939 26.0852 18.6658L25.5915 18.6672Z" begin="0s" dur="3s" repeatCount="indefinite" fill="freeze" calcMode="linear" keyTimes="0;0.5;1"/></path>
</g>
</g>
</g>
<g id="Group 1171276175">
<path id="Rectangle 34624671" d="M5.61231 7.53545C5.61232 6.43464 6.50191 5.54078 7.60272 5.53549L15 5.5H22.4097C23.5489 5.5 24.458 6.45014 24.4078 7.58822L24.3675 8.50005H5.6123L5.61231 7.53545Z" fill="url(#paint2_linear_87_1267)"/>
<g id="Group 1171276174">
<g id="Group 1171276173">
<path id="Vector 704" d="M24.5 27.5V30.5C24.5 31.6046 23.6046 32.5 22.5 32.5H7.5C6.39543 32.5 5.5 31.6046 5.5 30.5V7.5C5.5 6.39543 6.39543 5.5 7.5 5.5H22.5C23.6046 5.5 24.5 6.39543 24.5 7.5V9.5" stroke="url(#paint3_linear_87_1267)" stroke-opacity="0.6" stroke-width="0.25"/>
</g>
<g id="Ellipse 1854" filter="url(#filter1_d_87_1267)">
<ellipse cx="15.9932" cy="33.9953" rx="0.613644" ry="0.615639" transform="rotate(-22.8308 15.9932 33.9953)" fill="#3481D2"/>
</g>
<g id="Ellipse 1855" filter="url(#filter2_d_87_1267)">
<ellipse cx="16" cy="34" rx="0.5" ry="0.5" fill="#E97810"/>
</g>
</g>
</g>
<g id="Group 1171276176">
<path id="Vector 705" d="M24.3824 7.5V9.5H26V6C26 4.89543 25.1046 4 24 4H6.12012C5.01555 4 4.12012 4.89543 4.12012 6V34C4.12012 35.1046 5.01555 36 6.12012 36H24.0001C25.1047 36 26.0001 35.1046 26.0001 34V27.5234L24.5 27.5V30L24.5 30.3738C24.5001 31.4727 23.6136 32.3657 22.5148 32.3739L7.51483 32.4851C6.40449 32.4933 5.5 31.5955 5.5 30.4851V7.5C5.5 6.39543 6.39543 5.5 7.5 5.5H22.3824C23.487 5.5 24.3824 6.39543 24.3824 7.5Z" fill="url(#paint4_linear_87_1267)"/>
<path id="Vector 703" d="M26 27.5294V34C26 35.1046 25.1046 36 24 36H6C4.89543 36 4 35.1046 4 34V6C4 4.89543 4.89543 4 6 4H24C25.1046 4 26 4.89543 26 6V9.5" stroke="url(#paint5_linear_87_1267)" stroke-width="0.45"/>
<path id="Rectangle 34624672" d="M14.5 11.269V11.269C14.8048 11.4098 15 11.715 15 12.0508V27.1435C15 27.3741 14.9203 27.5975 14.7745 27.7761L14.5 28.1122V11.269Z" fill="url(#paint6_linear_87_1267)"/>
<path id="Vector 706" d="M5.5 11.5H14.5V27.5H5.5V11.5Z" fill="white"/>
</g>

                                    </g>

                                    </g>
<defs>
<filter id="filter0_d_87_1267" x="19.6105" y="13.4278" width="10.525" height="12.0021" filterUnits="userSpaceOnUse" color-interpolation-filters="sRGB">
<feFlood flood-opacity="0" result="BackgroundImageFix"/>
<feColorMatrix in="SourceAlpha" type="matrix" values="0 0 0 0 0 0 0 0 0 0 0 0 0 0 0 0 0 0 127 0" result="hardAlpha"/>
<feOffset/>
<feGaussianBlur stdDeviation="2"/>
<feComposite in2="hardAlpha" operator="out"/>
<feColorMatrix type="matrix" values="0 0 0 0 0 0 0 0 0 0 0 0 0 0 0 0 0 0 0.25 0"/>
<feBlend mode="normal" in2="BackgroundImageFix" result="effect1_dropShadow_87_1267">
                                    </feBlend>
<feBlend mode="normal" in="SourceGraphic" in2="effect1_dropShadow_87_1267" result="shape">
                                    </feBlend>

                                    
                                    <animate attributeName="x" values="19.6105;12.6105;19.6105" begin="0s" dur="3s" repeatCount="indefinite" fill="freeze" calcMode="linear" keyTimes="0;0.5;1"/></filter>
<filter id="filter1_d_87_1267" x="11.379" y="29.3798" width="9.22827" height="9.23102" filterUnits="userSpaceOnUse" color-interpolation-filters="sRGB">
<feFlood flood-opacity="0" result="BackgroundImageFix"/>
<feColorMatrix in="SourceAlpha" type="matrix" values="0 0 0 0 0 0 0 0 0 0 0 0 0 0 0 0 0 0 127 0" result="hardAlpha"/>
<feOffset/>
<feGaussianBlur stdDeviation="2"/>
<feComposite in2="hardAlpha" operator="out"/>
<feColorMatrix type="matrix" values="0 0 0 0 0 0 0 0 0 0 0 0 0 0 0 0 0 0 0.25 0"/>
<feBlend mode="normal" in2="BackgroundImageFix" result="effect1_dropShadow_87_1267">
                                    </feBlend>
<feBlend mode="normal" in="SourceGraphic" in2="effect1_dropShadow_87_1267" result="shape">
                                    </feBlend>

                                    </filter>
<filter id="filter2_d_87_1267" x="11.5" y="29.5" width="9" height="9" filterUnits="userSpaceOnUse" color-interpolation-filters="sRGB">
<feFlood flood-opacity="0" result="BackgroundImageFix"/>
<feColorMatrix in="SourceAlpha" type="matrix" values="0 0 0 0 0 0 0 0 0 0 0 0 0 0 0 0 0 0 127 0" result="hardAlpha"/>
<feOffset/>
<feGaussianBlur stdDeviation="2"/>
<feComposite in2="hardAlpha" operator="out"/>
<feColorMatrix type="matrix" values="0 0 0 0 0 0 0 0 0 0 0 0 0 0 0 0 0 0 0.25 0"/>
<feBlend mode="normal" in2="BackgroundImageFix" result="effect1_dropShadow_87_1267">
                                    </feBlend>
<feBlend mode="normal" in="SourceGraphic" in2="effect1_dropShadow_87_1267" result="shape">
                                    </feBlend>

                                    </filter>
<linearGradient id="paint0_linear_87_1267" x1="25.0686" y1="12.9483" x2="25.0686" y2="25.5" gradientUnits="userSpaceOnUse">
<stop stop-color="#7ED63F"/>
<stop offset="1" stop-color="#409801"/>

                                    
                                    <animate attributeName="x1" values="25.0686;18.0686;25.0686" begin="0s" dur="3s" repeatCount="indefinite" fill="freeze" calcMode="linear" keyTimes="0;0.5;1"/>
                                    <animate attributeName="x2" values="25.0686;18.0686;25.0686" begin="0s" dur="3s" repeatCount="indefinite" fill="freeze" calcMode="linear" keyTimes="0;0.5;1"/></linearGradient>
<radialGradient id="paint1_radial_87_1267" cx="0" cy="0" r="1" gradientUnits="userSpaceOnUse" gradientTransform="translate(21.8663 19.396) rotate(29.0465) scale(4.44735 4.56256)">
<stop stop-color="#FFD6B0"/>
<stop offset="0.517762" stop-color="#FFA24C"/>
<stop offset="1" stop-color="#EE780B"/>

                                    </radialGradient>
<linearGradient id="paint2_linear_87_1267" x1="16.5" y1="9" x2="16.5" y2="5" gradientUnits="userSpaceOnUse">
<stop stop-color="#3FAAEB"/>
<stop offset="1" stop-color="#246085"/>

                                    </linearGradient>
<linearGradient id="paint3_linear_87_1267" x1="5.07646" y1="19" x2="24.9211" y2="19" gradientUnits="userSpaceOnUse">
<stop stop-color="#3181D5"/>
<stop offset="1" stop-color="#EE780B"/>

                                    </linearGradient>
<linearGradient id="paint4_linear_87_1267" x1="1.01667e-07" y1="16.5" x2="31.5" y2="17" gradientUnits="userSpaceOnUse">
<stop stop-color="#B1D2FF"/>
<stop offset="1" stop-color="#FFC48E" stop-opacity="0.49"/>

                                    </linearGradient>
<linearGradient id="paint5_linear_87_1267" x1="3.50959" y1="20" x2="26.4876" y2="20" gradientUnits="userSpaceOnUse">
<stop stop-color="#3181D5"/>
<stop offset="1" stop-color="#EE780B"/>

                                    </linearGradient>
<linearGradient id="paint6_linear_87_1267" x1="15.5" y1="18" x2="14" y2="18" gradientUnits="userSpaceOnUse">
<stop stop-color="#3581D1"/>
<stop offset="1" stop-color="#EB780F"/>

                                    </linearGradient>
</defs>
</svg>