<svg width="40" height="40" viewBox="0 0 40 40" fill="none" xmlns="http://www.w3.org/2000/svg">
<g id="Group 1171276281">
<rect id="Rectangle 34624223" width="40" height="40" fill="white">
                                    </rect>
<g id="Group 1171276279">
<g id="Group 1171276277">
<g id="Group 1171276276">
<path id="Vector 744" d="M4 11V28H36V11C36 9.89543 35.1046 9 34 9H6C4.89543 9 4 9.89543 4 11Z" stroke="#2253BD" stroke-width="0.25"/>
<path id="Vector 745" d="M4 28V30C4 31.1046 4.89543 32 6 32H34C35.1046 32 36 31.1046 36 30V28H4Z" fill="url(#paint0_linear_152_260)" stroke="#3EA8EA" stroke-width="0.25"/>
</g>
<rect id="Rectangle 34624684" x="15.125" y="32.125" width="9.75" height="1.75" fill="#3EA8EA" stroke="#3EA8EA" stroke-width="0.25"/>
<path id="Rectangle 34624685" d="M15 34.125H25C25.9935 34.125 26.8066 34.8977 26.8709 35.875H13.1291C13.1934 34.8977 14.0065 34.125 15 34.125Z" fill="#3EA8EA" stroke="#3EA8EA" stroke-width="0.25"/>
</g>
<g id="Group 1171276278">
<path id="Vector 746" d="M11 7V28H28.9105L29 5H13C11.8954 5 11 5.89543 11 7Z" fill="#FFECDA" stroke="#2253BD" stroke-width="0.25"/>
<rect id="Rectangle 34624686" x="13" y="9.33334" width="4" height="4.66667" fill="#245AC1">
                                    <animate attributeName="y" values="9.33334;8;9.33334" begin="0s" dur="3s" repeatCount="indefinite" fill="freeze" calcMode="linear" keyTimes="0;0.5;1"/>
                                    <animate attributeName="height" values="4.66667;6;4.66667" begin="0s" dur="3s" repeatCount="indefinite" fill="freeze" calcMode="linear" keyTimes="0;0.5;1"/></rect>
<path id="Vector 747" d="M20 9.33334L26 9.33334M20 10.5L26 10.5M20 11.6667L26 11.6667M20 12.8333L24 12.8333M20 14L24 14" stroke="#3EA8EA" stroke-width="0.25" stroke-linecap="round">
                                    <animate attributeName="d" values="M20 9.33334L26 9.33334M20 10.5L26 10.5M20 11.6667L26 11.6667M20 12.8333L24 12.8333M20 14L24 14;M20 8L23 8M20 9.5L24 9.5M20 11L22 11M20 12.5L26 12.5M20 14L27 14;M20 9.33334L26 9.33334M20 10.5L26 10.5M20 11.6667L26 11.6667M20 12.8333L24 12.8333M20 14L24 14" begin="0s" dur="3s" repeatCount="indefinite" fill="freeze" calcMode="linear" keyTimes="0;0.5;1"/></path>
<g id="Vector" filter="url(#filter0_d_152_260)">
<path d="M13.1523 25.6173C13.0276 26.3629 12.9344 27.2544 13.0586 28L18.5125 28C18.1221 27.6113 17.9182 27.293 17.9182 26.7434C17.9182 26.1937 18.1375 25.6666 18.528 25.2779C18.9184 24.8893 19.4479 24.6709 20 24.6709C20.5521 24.6709 21.0816 24.8893 21.472 25.2779C21.8624 25.6666 22.0818 26.1937 22.0818 26.7434C22.0818 27.293 21.8777 27.6113 21.4873 28L26.9411 28C27.0658 27.254 26.9723 26.3627 26.8476 25.6166C26.0836 25.636 25.396 25.2712 25.1288 24.6288C24.8616 23.9863 25.0885 23.2444 25.6423 22.7193C25.2004 22.1042 24.6595 21.5659 24.0414 21.1263C23.514 21.6776 22.7694 21.9035 22.1241 21.6375C21.4794 21.3715 21.113 20.6876 21.1311 19.9263C20.3819 19.8023 19.6174 19.8023 18.8682 19.9263C18.8869 20.6869 18.5205 21.3715 17.8752 21.6375C17.2305 21.9035 16.4853 21.6776 15.9579 21.1263C15.34 21.5662 14.7993 22.1047 14.3577 22.72C14.9114 23.245 15.1383 23.9863 14.8712 24.6288C14.604 25.2705 13.9163 25.6353 13.1523 25.6173Z" fill="url(#paint1_linear_152_260)">
                                    <animate attributeName="d" values="M13.1523 25.6173C13.0276 26.3629 12.9344 27.2544 13.0586 28L18.5125 28C18.1221 27.6113 17.9182 27.293 17.9182 26.7434C17.9182 26.1937 18.1375 25.6666 18.528 25.2779C18.9184 24.8893 19.4479 24.6709 20 24.6709C20.5521 24.6709 21.0816 24.8893 21.472 25.2779C21.8624 25.6666 22.0818 26.1937 22.0818 26.7434C22.0818 27.293 21.8777 27.6113 21.4873 28L26.9411 28C27.0658 27.254 26.9723 26.3627 26.8476 25.6166C26.0836 25.636 25.396 25.2712 25.1288 24.6288C24.8616 23.9863 25.0885 23.2444 25.6423 22.7193C25.2004 22.1042 24.6595 21.5659 24.0414 21.1263C23.514 21.6776 22.7694 21.9035 22.1241 21.6375C21.4794 21.3715 21.113 20.6876 21.1311 19.9263C20.3819 19.8023 19.6174 19.8023 18.8682 19.9263C18.8869 20.6869 18.5205 21.3715 17.8752 21.6375C17.2305 21.9035 16.4853 21.6776 15.9579 21.1263C15.34 21.5662 14.7993 22.1047 14.3577 22.72C14.9114 23.245 15.1383 23.9863 14.8712 24.6288C14.604 25.2705 13.9163 25.6353 13.1523 25.6173Z;M11.1959 24.7907C11.0355 25.7949 10.9157 26.9957 11.0754 28L18.0875 28C17.5855 27.4765 17.3234 27.0478 17.3234 26.3074C17.3234 25.5671 17.6054 24.857 18.1074 24.3335C18.6093 23.81 19.2901 23.5159 20 23.5159C20.7099 23.5159 21.3907 23.81 21.8926 24.3335C22.3946 24.857 22.6766 25.5671 22.6766 26.3074C22.6766 27.0478 22.4142 27.4765 21.9122 28L28.9243 28C29.0846 26.9951 28.9644 25.7946 28.8041 24.7898C27.8218 24.8158 26.9377 24.3245 26.5942 23.4592C26.2507 22.5938 26.5424 21.5944 27.2544 20.8873C26.6862 20.0587 25.9908 19.3337 25.1961 18.7415C24.518 19.4841 23.5607 19.7883 22.731 19.4301C21.9021 19.0719 21.4311 18.1507 21.4543 17.1253C20.4911 16.9582 19.508 16.9582 18.5448 17.1253C18.5689 18.1497 18.0978 19.0719 17.2681 19.4301C16.4393 19.7883 15.481 19.4841 14.803 18.7415C14.0085 19.3341 13.3134 20.0594 12.7456 20.8882C13.4576 21.5954 13.7493 22.5938 13.4058 23.4592C13.0623 24.3236 12.1782 24.8149 11.1959 24.7907Z;M13.1523 25.6173C13.0276 26.3629 12.9344 27.2544 13.0586 28L18.5125 28C18.1221 27.6113 17.9182 27.293 17.9182 26.7434C17.9182 26.1937 18.1375 25.6666 18.528 25.2779C18.9184 24.8893 19.4479 24.6709 20 24.6709C20.5521 24.6709 21.0816 24.8893 21.472 25.2779C21.8624 25.6666 22.0818 26.1937 22.0818 26.7434C22.0818 27.293 21.8777 27.6113 21.4873 28L26.9411 28C27.0658 27.254 26.9723 26.3627 26.8476 25.6166C26.0836 25.636 25.396 25.2712 25.1288 24.6288C24.8616 23.9863 25.0885 23.2444 25.6423 22.7193C25.2004 22.1042 24.6595 21.5659 24.0414 21.1263C23.514 21.6776 22.7694 21.9035 22.1241 21.6375C21.4794 21.3715 21.113 20.6876 21.1311 19.9263C20.3819 19.8023 19.6174 19.8023 18.8682 19.9263C18.8869 20.6869 18.5205 21.3715 17.8752 21.6375C17.2305 21.9035 16.4853 21.6776 15.9579 21.1263C15.34 21.5662 14.7993 22.1047 14.3577 22.72C14.9114 23.245 15.1383 23.9863 14.8712 24.6288C14.604 25.2705 13.9163 25.6353 13.1523 25.6173Z" begin="0s" dur="3s" repeatCount="indefinite" fill="freeze" calcMode="linear" keyTimes="0;0.5;1"/></path>
</g>
</g>
<path id="Rectangle 34624687" d="M29 5.5C29 4.67157 29.6716 4 30.5 4V4C31.3284 4 32 4.67157 32 5.5V9H29V5.5Z" fill="#2253BD"/>

                                    </g>

                                    </g>
<defs>
<filter id="filter0_d_152_260" x="11" y="17.8333" width="18" height="12.1667" filterUnits="userSpaceOnUse" color-interpolation-filters="sRGB">
<feFlood flood-opacity="0" result="BackgroundImageFix"/>
<feColorMatrix in="SourceAlpha" type="matrix" values="0 0 0 0 0 0 0 0 0 0 0 0 0 0 0 0 0 0 127 0" result="hardAlpha"/>
<feOffset/>
<feGaussianBlur stdDeviation="1"/>
<feComposite in2="hardAlpha" operator="out"/>
<feColorMatrix type="matrix" values="0 0 0 0 0 0 0 0 0 0 0 0 0 0 0 0 0 0 0.25 0"/>
<feBlend mode="normal" in2="BackgroundImageFix" result="effect1_dropShadow_152_260">
                                    </feBlend>
<feBlend mode="normal" in="SourceGraphic" in2="effect1_dropShadow_152_260" result="shape">
                                    </feBlend>

                                    
                                    <animate attributeName="x" values="11;9;11" begin="0s" dur="3s" repeatCount="indefinite" fill="freeze" calcMode="linear" keyTimes="0;0.5;1"/>
                                    <animate attributeName="y" values="17.8333;15;17.8333" begin="0s" dur="3s" repeatCount="indefinite" fill="freeze" calcMode="linear" keyTimes="0;0.5;1"/>
                                    <animate attributeName="width" values="18;22;18" begin="0s" dur="3s" repeatCount="indefinite" fill="freeze" calcMode="linear" keyTimes="0;0.5;1"/>
                                    <animate attributeName="height" values="12.1667;15;12.1667" begin="0s" dur="3s" repeatCount="indefinite" fill="freeze" calcMode="linear" keyTimes="0;0.5;1"/></filter>
<linearGradient id="paint0_linear_152_260" x1="21" y1="28.5" x2="21.5" y2="32.5" gradientUnits="userSpaceOnUse">
<stop stop-color="#2C72CE"/>
<stop offset="1" stop-color="#3EA8EA"/>

                                    </linearGradient>
<linearGradient id="paint1_linear_152_260" x1="20" y1="19.8333" x2="20" y2="29.1667" gradientUnits="userSpaceOnUse">
<stop stop-color="#245AC1"/>
<stop offset="1" stop-color="#3EA8EA"/>

                                    
                                    <animate attributeName="y1" values="19.8333;17;19.8333" begin="0s" dur="3s" repeatCount="indefinite" fill="freeze" calcMode="linear" keyTimes="0;0.5;1"/>
                                    <animate attributeName="y2" values="29.1667;29.5714;29.1667" begin="0s" dur="3s" repeatCount="indefinite" fill="freeze" calcMode="linear" keyTimes="0;0.5;1"/></linearGradient>
</defs>
</svg>