<svg width="40" height="40" viewBox="0 0 40 40" fill="none" xmlns="http://www.w3.org/2000/svg">
<g id="Group 1171276245">
<rect id="Rectangle 34624670" width="40" height="40" fill="white">
                                    </rect>
<g id="Group 1171276243">
<g id="Group 1171276242">
<path id="Vector 730" d="M22 8.5L35.5615 17.7024C35.8358 17.8886 36 18.1985 36 18.5299L36 19.8913C36 20.3635 35.6172 20.7463 35.145 20.7463L35.145 20.7463L28.6522 20.7463L24.2464 20.7463L16.1305 20.7463L11.9566 20.7463L5.23196 20.7463L5.23196 20.7463C5.10389 20.7463 5.00007 20.6425 5.00007 20.5144L5 18M5.00006 36L5.00006 35.6091C5.00007 35.0568 5.44778 34.6091 6.00006 34.6091L35 34.6091C35.5523 34.6091 36 35.0568 36 35.6091L36 36M26.1015 17.4955L32.3623 17.4955" stroke="#3782D7" stroke-width="0.45" stroke-linecap="round">
                                    <animate attributeName="d" values="M22 8.5L35.5615 17.7024C35.8358 17.8886 36 18.1985 36 18.5299L36 19.8913C36 20.3635 35.6172 20.7463 35.145 20.7463L35.145 20.7463L28.6522 20.7463L24.2464 20.7463L16.1305 20.7463L11.9566 20.7463L5.23196 20.7463L5.23196 20.7463C5.10389 20.7463 5.00007 20.6425 5.00007 20.5144L5 18M5.00006 36L5.00006 35.6091C5.00007 35.0568 5.44778 34.6091 6.00006 34.6091L35 34.6091C35.5523 34.6091 36 35.0568 36 35.6091L36 36M26.1015 17.4955L32.3623 17.4955;M22 8.5L35.5615 17.7024C35.8358 17.8886 36 18.1985 36 18.5299L36 19.8913C36 20.3635 35.6172 20.7463 35.145 20.7463L35.145 20.7463L28.6522 20.7463L24.2464 20.7463L16.1305 20.7463L11.9566 20.7463L5.23196 20.7463L5.23196 20.7463C5.10389 20.7463 5.00007 20.6425 5.00007 20.5144L5 18M5.00006 36L5.00006 35.6091C5.00007 35.0568 5.44778 34.6091 6.00006 34.6091L35 34.6091C35.5523 34.6091 36 35.0568 36 35.6091L36 36M21.5 17.4955L30.5 17.4955;M22 8.5L35.5615 17.7024C35.8358 17.8886 36 18.1985 36 18.5299L36 19.8913C36 20.3635 35.6172 20.7463 35.145 20.7463L35.145 20.7463L28.6522 20.7463L24.2464 20.7463L16.1305 20.7463L11.9566 20.7463L5.23196 20.7463L5.23196 20.7463C5.10389 20.7463 5.00007 20.6425 5.00007 20.5144L5 18M5.00006 36L5.00006 35.6091C5.00007 35.0568 5.44778 34.6091 6.00006 34.6091L35 34.6091C35.5523 34.6091 36 35.0568 36 35.6091L36 36M26.1015 17.4955L32.3623 17.4955" begin="0s" dur="3s" repeatCount="indefinite" fill="freeze" calcMode="linear" keyTimes="0;0.5;1"/></path>
<path id="Rectangle 34624679" d="M6.8551 21L12.4203 21L12.4203 34.3459L6.8551 34.3459L6.8551 21Z" fill="url(#paint0_linear_129_599)">
                                    <animate attributeName="d" values="M6.8551 21L12.4203 21L12.4203 34.3459L6.8551 34.3459L6.8551 21Z;M6.8551 21L14 21L12.4203 34.3459L6.8551 34.3459L6.8551 21Z;M6.8551 21L12.4203 21L12.4203 34.3459L6.8551 34.3459L6.8551 21Z" begin="0s" dur="3s" repeatCount="indefinite" fill="freeze" calcMode="linear" keyTimes="0;0.5;1"/></path>
<path id="Rectangle 34624680" d="M17.9855 21L23.5507 21L23.5507 34.365L17.9855 34.365L17.9855 21Z" fill="url(#paint1_linear_129_599)">
                                    <animate attributeName="d" values="M17.9855 21L23.5507 21L23.5507 34.365L17.9855 34.365L17.9855 21Z;M16.5 21L24.5 21L23.5507 34.365L17.9855 34.365L16.5 21Z;M17.9855 21L23.5507 21L23.5507 34.365L17.9855 34.365L17.9855 21Z" begin="0s" dur="3s" repeatCount="indefinite" fill="freeze" calcMode="linear" keyTimes="0;0.5;1"/></path>
<path id="Rectangle 34624681" d="M29.116 21L34.6812 21L34.6812 34.3598L29.116 34.3598L29.116 21Z" fill="url(#paint2_linear_129_599)">
                                    <animate attributeName="d" values="M29.116 21L34.6812 21L34.6812 34.3598L29.116 34.3598L29.116 21Z;M28.116 21L34.6812 21L34.6812 34.3598L29.116 34.3598L28.116 21Z;M29.116 21L34.6812 21L34.6812 34.3598L29.116 34.3598L29.116 21Z" begin="0s" dur="3s" repeatCount="indefinite" fill="freeze" calcMode="linear" keyTimes="0;0.5;1"/></path>
</g>
<g id="Group 1171276241">
<path id="Vector 731" d="M21 6.00001V13.9877C21 15.0923 20.1046 15.9877 19 15.9877H18.0765C17.3916 15.9877 16.6912 16.3185 16.5072 16.9782C16.2554 17.8814 16.612 18.6293 17.45 19.7539C15.6645 19.1311 14.706 18.3949 13.566 16.8593C13.1692 16.3248 12.5541 15.9877 11.8884 15.9877H6C4.89543 15.9877 4 15.0923 4 13.9877V6C4 4.89543 4.89543 4 6 4L19 4.00001C20.1046 4.00001 21 4.89544 21 6.00001Z" fill="url(#paint3_radial_129_599)"/>
<path id="!" d="M12.9532 12.4308L12.4668 7.97324L11.5517 7.97324L11.0599 12.4308L12.9532 12.4308ZM12.0092 6.17288C11.8146 6.17288 11.6477 6.22661 11.5083 6.33406C11.3689 6.44152 11.2992 6.57026 11.2992 6.72029C11.2992 6.87032 11.3689 6.99906 11.5083 7.10651C11.6477 7.21397 11.8146 7.26769 12.0092 7.26769C12.2038 7.26769 12.3708 7.21397 12.5102 7.10651C12.6496 6.99906 12.7192 6.87032 12.7192 6.72029C12.7192 6.62094 12.6864 6.52971 12.6206 6.44658C12.5575 6.36346 12.4721 6.29655 12.3642 6.24587C12.2591 6.19721 12.1407 6.17288 12.0092 6.17288Z" fill="white">
                                    <animate attributeName="d" values="M12.9532 12.4308L12.4668 7.97324L11.5517 7.97324L11.0599 12.4308L12.9532 12.4308ZM12.0092 6.17288C11.8146 6.17288 11.6477 6.22661 11.5083 6.33406C11.3689 6.44152 11.2992 6.57026 11.2992 6.72029C11.2992 6.87032 11.3689 6.99906 11.5083 7.10651C11.6477 7.21397 11.8146 7.26769 12.0092 7.26769C12.2038 7.26769 12.3708 7.21397 12.5102 7.10651C12.6496 6.99906 12.7192 6.87032 12.7192 6.72029C12.7192 6.62094 12.6864 6.52971 12.6206 6.44658C12.5575 6.36346 12.4721 6.29655 12.3642 6.24587C12.2591 6.19721 12.1407 6.17288 12.0092 6.17288Z;M13 7L12.4862 11.9861L11.5195 11.9861L11 7L13 7ZM12.0028 14C11.7973 14 11.6209 13.9399 11.4737 13.8197C11.3264 13.6995 11.2528 13.5555 11.2528 13.3877C11.2528 13.2199 11.3264 13.0759 11.4737 12.9557C11.6209 12.8355 11.7973 12.7754 12.0028 12.7754C12.2084 12.7754 12.3848 12.8355 12.532 12.9557C12.6792 13.0759 12.7528 13.2199 12.7528 13.3877C12.7528 13.4988 12.7181 13.6009 12.6487 13.6938C12.582 13.7868 12.4917 13.8617 12.3778 13.9184C12.2667 13.9728 12.1417 14 12.0028 14Z;M12.9532 12.4308L12.4668 7.97324L11.5517 7.97324L11.0599 12.4308L12.9532 12.4308ZM12.0092 6.17288C11.8146 6.17288 11.6477 6.22661 11.5083 6.33406C11.3689 6.44152 11.2992 6.57026 11.2992 6.72029C11.2992 6.87032 11.3689 6.99906 11.5083 7.10651C11.6477 7.21397 11.8146 7.26769 12.0092 7.26769C12.2038 7.26769 12.3708 7.21397 12.5102 7.10651C12.6496 6.99906 12.7192 6.87032 12.7192 6.72029C12.7192 6.62094 12.6864 6.52971 12.6206 6.44658C12.5575 6.36346 12.4721 6.29655 12.3642 6.24587C12.2591 6.19721 12.1407 6.17288 12.0092 6.17288Z" begin="0s" dur="3s" repeatCount="indefinite" fill="freeze" calcMode="linear" keyTimes="0;0.5;1"/></path>
</g>

                                    </g>

                                    </g>
<defs>
<linearGradient id="paint0_linear_129_599" x1="9.63771" y1="20.7463" x2="9.63771" y2="34.7497" gradientUnits="userSpaceOnUse">
<stop stop-color="#3EA8EA"/>
<stop offset="1" stop-color="#2D51BE"/>

                                    </linearGradient>
<linearGradient id="paint1_linear_129_599" x1="20.7681" y1="20.7463" x2="20.7681" y2="34.7497" gradientUnits="userSpaceOnUse">
<stop stop-color="#3EA8EA"/>
<stop offset="1" stop-color="#2D51BE"/>

                                    </linearGradient>
<linearGradient id="paint2_linear_129_599" x1="31.8986" y1="20.7463" x2="31.8986" y2="34.7497" gradientUnits="userSpaceOnUse">
<stop stop-color="#3EA8EA"/>
<stop offset="1" stop-color="#2D51BE"/>

                                    </linearGradient>
<radialGradient id="paint3_radial_129_599" cx="0" cy="0" r="1" gradientUnits="userSpaceOnUse" gradientTransform="translate(12.0066 4.68924) rotate(86.6516) scale(12.1561 12.7095)">
<stop stop-color="#FBB473"/>
<stop offset="1" stop-color="#ED7E0F"/>

                                    </radialGradient>
</defs>
</svg>