<svg width="32" height="32" viewBox="0 0 32 32" fill="none" xmlns="http://www.w3.org/2000/svg">
<g id="Group 1171276262">
<rect id="Rectangle 34624668" width="32" height="32" fill="white">
                                    </rect>
<g id="Group 1171276260">
<g id="Group 1171276256">
<g id="Group 1171276255">
<path id="Vector 735" opacity="0.8" d="M23.4615 6V26.0483H9C8.44772 26.0483 8 25.6006 8 25.0483V8.66057L12.02 5H22.4615C23.0138 5 23.4615 5.44772 23.4615 6Z" fill="#F9FBFE" stroke="url(#paint0_linear_135_843)" stroke-width="0.45"/>
<path id="Vector 736" d="M8 8.89783L12.0688 5V7.89783C12.0688 8.45012 11.6211 8.89783 11.0688 8.89783H8Z" fill="#64B3EB"/>
</g>
<g id="Group 1171276133">
<g id="Vector 690">
<path d="M18.0977 25.2174L18.0972 25.1646C17.6548 25.1646 17.2965 24.8056 17.2973 24.3633L17.3179 13.4317C17.319 12.8794 17.7675 12.4325 18.3198 12.4335L24.4066 12.444C24.8372 12.4447 25.1855 12.7944 25.1847 13.2249L24.9985 13.2246C25.5508 13.2255 25.9977 13.674 25.9966 14.2263L25.9759 25.2191C25.9749 25.7713 25.5263 26.2183 24.974 26.2173L19.0958 26.2072C18.5482 26.2062 18.1032 25.765 18.0977 25.2174Z" fill="url(#paint1_linear_135_843)">
                                    <animate attributeName="d" values="M18.0977 25.2174L18.0972 25.1646C17.6548 25.1646 17.2965 24.8056 17.2973 24.3633L17.3179 13.4317C17.319 12.8794 17.7675 12.4325 18.3198 12.4335L24.4066 12.444C24.8372 12.4447 25.1855 12.7944 25.1847 13.2249L24.9985 13.2246C25.5508 13.2255 25.9977 13.674 25.9966 14.2263L25.9759 25.2191C25.9749 25.7713 25.5263 26.2183 24.974 26.2173L19.0958 26.2072C18.5482 26.2062 18.1032 25.765 18.0977 25.2174Z;M25.8193 25.9684L25.7665 25.9686C25.7642 26.411 25.4034 26.7674 24.9611 26.7643L14.0298 26.6872C13.4775 26.6833 13.0329 26.2325 13.0367 25.6802L13.0787 19.5935C13.0816 19.163 13.4331 18.8164 13.8636 18.8195L13.8623 19.0057C13.8661 18.4534 14.3169 18.0089 14.8692 18.0128L25.8617 18.0903C26.4139 18.0942 26.8586 18.545 26.8548 19.0973L26.8142 24.9754C26.8104 25.523 26.3669 25.9657 25.8193 25.9684Z;M18.0977 25.2174L18.0972 25.1646C17.6548 25.1646 17.2965 24.8056 17.2973 24.3633L17.3179 13.4317C17.319 12.8794 17.7675 12.4325 18.3198 12.4335L24.4066 12.444C24.8372 12.4447 25.1855 12.7944 25.1847 13.2249L24.9985 13.2246C25.5508 13.2255 25.9977 13.674 25.9966 14.2263L25.9759 25.2191C25.9749 25.7713 25.5263 26.2183 24.974 26.2173L19.0958 26.2072C18.5482 26.2062 18.1032 25.765 18.0977 25.2174Z" begin="0s" dur="3s" repeatCount="indefinite" fill="freeze" calcMode="linear" keyTimes="0;0.5;1"/></path>
<path d="M17.9771 13.2124L18.0977 25.2174C18.1032 25.765 18.5482 26.2062 19.0958 26.2072L24.974 26.2173C25.5263 26.2183 25.9749 25.7713 25.9759 25.2191L25.9966 14.2263C25.9977 13.674 25.5508 13.2255 24.9985 13.2246L17.9771 13.2124ZM17.9771 13.2124L18.0972 25.1646L18.0972 25.1646C17.6548 25.1646 17.2965 24.8056 17.2973 24.3633L17.3179 13.4317C17.319 12.8794 17.7675 12.4325 18.3198 12.4335L24.4066 12.444C24.8372 12.4447 25.1855 12.7944 25.1847 13.2249L25.1847 13.2249L17.9771 13.2124ZM17.2968 24.6449L17.2824 13.4093C17.2817 12.8543 17.7332 12.4047 18.2883 12.4079L24.6437 12.4444M19.4673 24.3888L19.4845 15.2939C20.16 15.273 20.4018 15.0517 20.5714 14.2563L24.0978 14.2624C24.0695 14.9425 24.2328 15.1816 24.9096 15.3033L24.8924 24.3982C24.2522 24.3711 24.1113 24.5806 24.0772 25.1763L20.5509 25.1703C20.3474 24.4751 20.0911 24.3358 19.4673 24.3888ZM20.5538 23.6111L20.5685 15.8155C20.9925 15.717 21.0784 15.5876 21.112 15.2967L23.282 15.3005C23.4771 15.7655 23.6592 15.8795 24.0948 15.8216L24.0801 23.6172C23.7077 23.7529 23.5434 23.876 23.5362 24.3958L21.0949 24.3916C21.0923 23.9994 20.9725 23.8323 20.5538 23.6111Z" stroke="white" stroke-width="0.12">
                                    <animate attributeName="d" values="M17.9771 13.2124L18.0977 25.2174C18.1032 25.765 18.5482 26.2062 19.0958 26.2072L24.974 26.2173C25.5263 26.2183 25.9749 25.7713 25.9759 25.2191L25.9966 14.2263C25.9977 13.674 25.5508 13.2255 24.9985 13.2246L17.9771 13.2124ZM17.9771 13.2124L18.0972 25.1646L18.0972 25.1646C17.6548 25.1646 17.2965 24.8056 17.2973 24.3633L17.3179 13.4317C17.319 12.8794 17.7675 12.4325 18.3198 12.4335L24.4066 12.444C24.8372 12.4447 25.1855 12.7944 25.1847 13.2249L25.1847 13.2249L17.9771 13.2124ZM17.2968 24.6449L17.2824 13.4093C17.2817 12.8543 17.7332 12.4047 18.2883 12.4079L24.6437 12.4444M19.4673 24.3888L19.4845 15.2939C20.16 15.273 20.4018 15.0517 20.5714 14.2563L24.0978 14.2624C24.0695 14.9425 24.2328 15.1816 24.9096 15.3033L24.8924 24.3982C24.2522 24.3711 24.1113 24.5806 24.0772 25.1763L20.5509 25.1703C20.3474 24.4751 20.0911 24.3358 19.4673 24.3888ZM20.5538 23.6111L20.5685 15.8155C20.9925 15.717 21.0784 15.5876 21.112 15.2967L23.282 15.3005C23.4771 15.7655 23.6592 15.8795 24.0948 15.8216L24.0801 23.6172C23.7077 23.7529 23.5434 23.876 23.5362 24.3958L21.0949 24.3916C21.0923 23.9994 20.9725 23.8323 20.5538 23.6111Z;M13.8139 26.0269L25.8193 25.9684C26.3669 25.9657 26.8104 25.523 26.8142 24.9754L26.8548 19.0973C26.8586 18.545 26.4139 18.0942 25.8617 18.0903L14.8692 18.0128C14.3169 18.0089 13.8661 18.4534 13.8623 19.0057L13.8139 26.0269ZM13.8139 26.0269L25.7665 25.9686L25.7665 25.9686C25.7642 26.411 25.4034 26.7674 24.9611 26.7643L14.0298 26.6872C13.4775 26.6833 13.0329 26.2325 13.0367 25.6802L13.0787 19.5935C13.0816 19.163 13.4331 18.8164 13.8636 18.8195L13.8636 18.8195L13.8139 26.0269ZM25.2427 26.7663L14.0072 26.7226C13.4521 26.7205 13.0049 26.2666 13.011 25.7116L13.0803 19.3565M24.9978 24.5945L15.9031 24.5303C15.8857 23.8547 15.6656 23.6117 14.8712 23.438L14.8955 19.9118C15.5754 19.9435 15.8154 19.7815 15.9405 19.1054L25.0352 19.1695C25.0049 19.8095 25.2136 19.9515 25.8092 19.9887L25.7848 23.515C25.0886 23.7149 24.948 23.9705 24.9978 24.5945ZM24.2257 23.504L16.4303 23.449C16.334 23.0246 16.205 22.938 15.9143 22.9028L15.9293 20.7329C16.3953 20.5402 16.5103 20.3587 16.4546 19.9228L24.2501 19.9777C24.3838 20.3509 24.506 20.5159 25.0259 20.5257L25.009 22.967C24.6168 22.9675 24.4491 23.0865 24.2257 23.504Z;M17.9771 13.2124L18.0977 25.2174C18.1032 25.765 18.5482 26.2062 19.0958 26.2072L24.974 26.2173C25.5263 26.2183 25.9749 25.7713 25.9759 25.2191L25.9966 14.2263C25.9977 13.674 25.5508 13.2255 24.9985 13.2246L17.9771 13.2124ZM17.9771 13.2124L18.0972 25.1646L18.0972 25.1646C17.6548 25.1646 17.2965 24.8056 17.2973 24.3633L17.3179 13.4317C17.319 12.8794 17.7675 12.4325 18.3198 12.4335L24.4066 12.444C24.8372 12.4447 25.1855 12.7944 25.1847 13.2249L25.1847 13.2249L17.9771 13.2124ZM17.2968 24.6449L17.2824 13.4093C17.2817 12.8543 17.7332 12.4047 18.2883 12.4079L24.6437 12.4444M19.4673 24.3888L19.4845 15.2939C20.16 15.273 20.4018 15.0517 20.5714 14.2563L24.0978 14.2624C24.0695 14.9425 24.2328 15.1816 24.9096 15.3033L24.8924 24.3982C24.2522 24.3711 24.1113 24.5806 24.0772 25.1763L20.5509 25.1703C20.3474 24.4751 20.0911 24.3358 19.4673 24.3888ZM20.5538 23.6111L20.5685 15.8155C20.9925 15.717 21.0784 15.5876 21.112 15.2967L23.282 15.3005C23.4771 15.7655 23.6592 15.8795 24.0948 15.8216L24.0801 23.6172C23.7077 23.7529 23.5434 23.876 23.5362 24.3958L21.0949 24.3916C21.0923 23.9994 20.9725 23.8323 20.5538 23.6111Z" begin="0s" dur="3s" repeatCount="indefinite" fill="freeze" calcMode="linear" keyTimes="0;0.5;1"/></path>
</g>
<g id="Group 1171276124">
<path id="Vector" d="M22.2971 21.5434C22.6189 21.5476 22.9348 21.4594 23.2049 21.29C23.4749 21.1207 23.6869 20.8778 23.8141 20.5921C23.9413 20.3063 23.978 19.9906 23.9194 19.6848C23.8609 19.379 23.7098 19.0968 23.4853 18.874C23.2608 18.6512 22.9729 18.4977 22.6581 18.433C22.3433 18.3682 22.0156 18.3952 21.7166 18.5104C21.4176 18.6256 21.1606 18.8238 20.9781 19.0801C20.7957 19.3364 20.696 19.6392 20.6917 19.9502C20.6862 20.3671 20.8522 20.769 21.1532 21.0677C21.4542 21.3664 21.8656 21.5375 22.2971 21.5434Z" fill="url(#paint2_radial_135_843)">
                                    <animate attributeName="d" values="M22.2971 21.5434C22.6189 21.5476 22.9348 21.4594 23.2049 21.29C23.4749 21.1207 23.6869 20.8778 23.8141 20.5921C23.9413 20.3063 23.978 19.9906 23.9194 19.6848C23.8609 19.379 23.7098 19.0968 23.4853 18.874C23.2608 18.6512 22.9729 18.4977 22.6581 18.433C22.3433 18.3682 22.0156 18.3952 21.7166 18.5104C21.4176 18.6256 21.1606 18.8238 20.9781 19.0801C20.7957 19.3364 20.696 19.6392 20.6917 19.9502C20.6862 20.3671 20.8522 20.769 21.1532 21.0677C21.4542 21.3664 21.8656 21.5375 22.2971 21.5434Z;M22.1671 21.7501C22.1729 21.4282 22.0863 21.1118 21.9184 20.8409C21.7504 20.57 21.5086 20.3567 21.2236 20.2281C20.9385 20.0994 20.6229 20.0611 20.3168 20.1181C20.0107 20.175 19.7278 20.3246 19.5038 20.548C19.2798 20.7714 19.1249 21.0584 19.0585 21.3729C18.9922 21.6874 19.0174 22.0152 19.1311 22.3148C19.2447 22.6145 19.4416 22.8725 19.697 23.0562C19.9523 23.24 20.2546 23.3412 20.5655 23.3472C20.9824 23.3548 21.3851 23.1908 21.6854 22.8914C21.9857 22.592 22.1589 22.1815 22.1671 21.7501Z;M22.2971 21.5434C22.6189 21.5476 22.9348 21.4594 23.2049 21.29C23.4749 21.1207 23.6869 20.8778 23.8141 20.5921C23.9413 20.3063 23.978 19.9906 23.9194 19.6848C23.8609 19.379 23.7098 19.0968 23.4853 18.874C23.2608 18.6512 22.9729 18.4977 22.6581 18.433C22.3433 18.3682 22.0156 18.3952 21.7166 18.5104C21.4176 18.6256 21.1606 18.8238 20.9781 19.0801C20.7957 19.3364 20.696 19.6392 20.6917 19.9502C20.6862 20.3671 20.8522 20.769 21.1532 21.0677C21.4542 21.3664 21.8656 21.5375 22.2971 21.5434Z" begin="0s" dur="3s" repeatCount="indefinite" fill="freeze" calcMode="linear" keyTimes="0;0.5;1"/></path>
<g id="$" filter="url(#filter0_d_135_843)">
<path d="M22.4094 18.819L22.3769 21.1382L22.2061 21.136L22.2385 18.8168L22.4094 18.819ZM21.8526 20.412C21.8625 20.498 21.9074 20.565 21.9873 20.6131C22.0672 20.6619 22.1682 20.687 22.2905 20.6886C22.378 20.6897 22.4539 20.6786 22.5181 20.6553C22.5823 20.6325 22.6324 20.6006 22.6684 20.5593C22.7037 20.5187 22.7217 20.4721 22.7225 20.4196C22.7231 20.3755 22.7118 20.3373 22.6887 20.305C22.6648 20.2727 22.6336 20.2454 22.595 20.2231C22.5557 20.2015 22.5136 20.1831 22.4686 20.1681C22.4237 20.1536 22.3804 20.1415 22.3389 20.132L22.1312 20.0822C22.0634 20.0668 21.9938 20.0463 21.9226 20.0206C21.8515 19.9949 21.7856 19.9614 21.725 19.9202C21.6645 19.8789 21.6159 19.8282 21.5792 19.7679C21.5419 19.7076 21.5238 19.6358 21.5249 19.5525C21.5264 19.4474 21.559 19.3545 21.6226 19.2737C21.6855 19.193 21.7764 19.1298 21.8951 19.0842C22.0131 19.0386 22.1555 19.0169 22.3222 19.019C22.4819 19.0211 22.6198 19.0449 22.7359 19.0905C22.8519 19.1361 22.9424 19.1997 23.0072 19.2815C23.072 19.3639 23.1072 19.461 23.1125 19.5728L22.7896 19.5687C22.7843 19.5016 22.7601 19.4454 22.7169 19.4001C22.6731 19.3555 22.617 19.3218 22.5485 19.2992C22.4794 19.2772 22.4035 19.2656 22.3208 19.2646C22.2298 19.2634 22.1488 19.2747 22.0776 19.2986C22.0057 19.323 21.9489 19.3573 21.9073 19.4015C21.8657 19.4463 21.8445 19.4989 21.8437 19.5593C21.8429 19.6142 21.8603 19.6595 21.8959 19.695C21.9309 19.7304 21.9787 19.76 22.0395 19.7838C22.0996 19.8075 22.1678 19.8286 22.2439 19.8471L22.4952 19.9101C22.6654 19.9528 22.8 20.014 22.8989 20.0938C22.9972 20.1736 23.0454 20.2781 23.0436 20.4074C23.0421 20.5143 23.0074 20.6072 22.9396 20.6861C22.8718 20.7649 22.7807 20.8257 22.6662 20.8683C22.5517 20.9115 22.4229 20.9322 22.2798 20.9304C22.1353 20.9285 22.0082 20.9049 21.8984 20.8594C21.7879 20.8138 21.7013 20.752 21.6384 20.6739C21.5756 20.5964 21.5435 20.5078 21.5421 20.4081L21.8526 20.412Z" fill="white">
                                    <animate attributeName="d" values="M22.4094 18.819L22.3769 21.1382L22.2061 21.136L22.2385 18.8168L22.4094 18.819ZM21.8526 20.412C21.8625 20.498 21.9074 20.565 21.9873 20.6131C22.0672 20.6619 22.1682 20.687 22.2905 20.6886C22.378 20.6897 22.4539 20.6786 22.5181 20.6553C22.5823 20.6325 22.6324 20.6006 22.6684 20.5593C22.7037 20.5187 22.7217 20.4721 22.7225 20.4196C22.7231 20.3755 22.7118 20.3373 22.6887 20.305C22.6648 20.2727 22.6336 20.2454 22.595 20.2231C22.5557 20.2015 22.5136 20.1831 22.4686 20.1681C22.4237 20.1536 22.3804 20.1415 22.3389 20.132L22.1312 20.0822C22.0634 20.0668 21.9938 20.0463 21.9226 20.0206C21.8515 19.9949 21.7856 19.9614 21.725 19.9202C21.6645 19.8789 21.6159 19.8282 21.5792 19.7679C21.5419 19.7076 21.5238 19.6358 21.5249 19.5525C21.5264 19.4474 21.559 19.3545 21.6226 19.2737C21.6855 19.193 21.7764 19.1298 21.8951 19.0842C22.0131 19.0386 22.1555 19.0169 22.3222 19.019C22.4819 19.0211 22.6198 19.0449 22.7359 19.0905C22.8519 19.1361 22.9424 19.1997 23.0072 19.2815C23.072 19.3639 23.1072 19.461 23.1125 19.5728L22.7896 19.5687C22.7843 19.5016 22.7601 19.4454 22.7169 19.4001C22.6731 19.3555 22.617 19.3218 22.5485 19.2992C22.4794 19.2772 22.4035 19.2656 22.3208 19.2646C22.2298 19.2634 22.1488 19.2747 22.0776 19.2986C22.0057 19.323 21.9489 19.3573 21.9073 19.4015C21.8657 19.4463 21.8445 19.4989 21.8437 19.5593C21.8429 19.6142 21.8603 19.6595 21.8959 19.695C21.9309 19.7304 21.9787 19.76 22.0395 19.7838C22.0996 19.8075 22.1678 19.8286 22.2439 19.8471L22.4952 19.9101C22.6654 19.9528 22.8 20.014 22.8989 20.0938C22.9972 20.1736 23.0454 20.2781 23.0436 20.4074C23.0421 20.5143 23.0074 20.6072 22.9396 20.6861C22.8718 20.7649 22.7807 20.8257 22.6662 20.8683C22.5517 20.9115 22.4229 20.9322 22.2798 20.9304C22.1353 20.9285 22.0082 20.9049 21.8984 20.8594C21.7879 20.8138 21.7013 20.752 21.6384 20.6739C21.5756 20.5964 21.5435 20.5078 21.5421 20.4081L21.8526 20.412Z;M19.4432 21.6237L21.7623 21.6681L21.7592 21.839L19.4402 21.7945L19.4432 21.6237ZM21.0334 22.1887C21.1194 22.1792 21.1866 22.1347 21.2352 22.055C21.2843 21.9754 21.31 21.8745 21.3122 21.7522C21.3138 21.6647 21.3031 21.5888 21.2801 21.5245C21.2577 21.4601 21.2259 21.4099 21.1849 21.3736C21.1445 21.3381 21.098 21.3199 21.0454 21.3189C21.0014 21.318 20.9631 21.3291 20.9307 21.3521C20.8982 21.3758 20.8708 21.4069 20.8483 21.4453C20.8265 21.4845 20.8079 21.5265 20.7926 21.5714C20.7779 21.6163 20.7656 21.6595 20.7558 21.7009L20.705 21.9084C20.6893 21.9762 20.6684 22.0456 20.6423 22.1166C20.6163 22.1877 20.5825 22.2534 20.5409 22.3137C20.4993 22.374 20.4483 22.4224 20.3879 22.4587C20.3274 22.4958 20.2555 22.5135 20.1721 22.5119C20.0671 22.5099 19.9743 22.4769 19.8939 22.4128C19.8135 22.3494 19.7508 22.2583 19.7058 22.1393C19.6608 22.0211 19.6398 21.8786 19.6428 21.7119C19.6457 21.5522 19.6702 21.4144 19.7164 21.2986C19.7626 21.1828 19.8268 21.0927 19.9089 21.0283C19.9916 20.9638 20.0889 20.9292 20.2007 20.9244L20.1949 21.2473C20.1278 21.2523 20.0714 21.2762 20.026 21.3191C19.9811 21.3627 19.9471 21.4187 19.9242 21.487C19.9018 21.5561 19.8898 21.6319 19.8884 21.7145C19.8867 21.8055 19.8976 21.8867 19.9211 21.958C19.9452 22.03 19.9792 22.0869 20.0232 22.1287C20.0677 22.1706 20.1202 22.1921 20.1806 22.1932C20.2355 22.1943 20.2809 22.1771 20.3165 22.1416C20.3522 22.1069 20.3821 22.0592 20.4061 21.9985C20.4302 21.9385 20.4516 21.8705 20.4705 21.7945L20.5348 21.5435C20.5784 21.3735 20.6403 21.2392 20.7206 21.1407C20.8009 21.0429 20.9057 20.9952 21.0349 20.9977C21.1418 20.9998 21.2345 21.0349 21.313 21.1031C21.3915 21.1713 21.4518 21.2627 21.4939 21.3775C21.5365 21.4922 21.5565 21.6211 21.554 21.7642C21.5514 21.9086 21.527 22.0356 21.4809 22.1452C21.4349 22.2555 21.3726 22.3418 21.2941 22.4042C21.2163 22.4666 21.1275 22.4983 21.0278 22.4991L21.0334 22.1887Z;M22.4094 18.819L22.3769 21.1382L22.2061 21.136L22.2385 18.8168L22.4094 18.819ZM21.8526 20.412C21.8625 20.498 21.9074 20.565 21.9873 20.6131C22.0672 20.6619 22.1682 20.687 22.2905 20.6886C22.378 20.6897 22.4539 20.6786 22.5181 20.6553C22.5823 20.6325 22.6324 20.6006 22.6684 20.5593C22.7037 20.5187 22.7217 20.4721 22.7225 20.4196C22.7231 20.3755 22.7118 20.3373 22.6887 20.305C22.6648 20.2727 22.6336 20.2454 22.595 20.2231C22.5557 20.2015 22.5136 20.1831 22.4686 20.1681C22.4237 20.1536 22.3804 20.1415 22.3389 20.132L22.1312 20.0822C22.0634 20.0668 21.9938 20.0463 21.9226 20.0206C21.8515 19.9949 21.7856 19.9614 21.725 19.9202C21.6645 19.8789 21.6159 19.8282 21.5792 19.7679C21.5419 19.7076 21.5238 19.6358 21.5249 19.5525C21.5264 19.4474 21.559 19.3545 21.6226 19.2737C21.6855 19.193 21.7764 19.1298 21.8951 19.0842C22.0131 19.0386 22.1555 19.0169 22.3222 19.019C22.4819 19.0211 22.6198 19.0449 22.7359 19.0905C22.8519 19.1361 22.9424 19.1997 23.0072 19.2815C23.072 19.3639 23.1072 19.461 23.1125 19.5728L22.7896 19.5687C22.7843 19.5016 22.7601 19.4454 22.7169 19.4001C22.6731 19.3555 22.617 19.3218 22.5485 19.2992C22.4794 19.2772 22.4035 19.2656 22.3208 19.2646C22.2298 19.2634 22.1488 19.2747 22.0776 19.2986C22.0057 19.323 21.9489 19.3573 21.9073 19.4015C21.8657 19.4463 21.8445 19.4989 21.8437 19.5593C21.8429 19.6142 21.8603 19.6595 21.8959 19.695C21.9309 19.7304 21.9787 19.76 22.0395 19.7838C22.0996 19.8075 22.1678 19.8286 22.2439 19.8471L22.4952 19.9101C22.6654 19.9528 22.8 20.014 22.8989 20.0938C22.9972 20.1736 23.0454 20.2781 23.0436 20.4074C23.0421 20.5143 23.0074 20.6072 22.9396 20.6861C22.8718 20.7649 22.7807 20.8257 22.6662 20.8683C22.5517 20.9115 22.4229 20.9322 22.2798 20.9304C22.1353 20.9285 22.0082 20.9049 21.8984 20.8594C21.7879 20.8138 21.7013 20.752 21.6384 20.6739C21.5756 20.5964 21.5435 20.5078 21.5421 20.4081L21.8526 20.412Z" begin="0s" dur="3s" repeatCount="indefinite" fill="freeze" calcMode="linear" keyTimes="0;0.5;1"/></path>
</g>
</g>
</g>
<path id="Vector 737" d="M9.6275 10.457L21.0202 10.457M9.6275 12.4059L15.0978 12.4059M9.6275 14.3548L15.0978 14.3548M9.6275 16.3037L15.0978 16.3037M9.6275 18.2526L15.0978 18.2526" stroke="#64B3EB" stroke-width="0.45" stroke-linecap="round">
                                    <animate attributeName="d" values="M9.6275 10.457L21.0202 10.457M9.6275 12.4059L15.0978 12.4059M9.6275 14.3548L15.0978 14.3548M9.6275 16.3037L15.0978 16.3037M9.6275 18.2526L15.0978 18.2526;M9.6275 10.457L18.0202 10.457M9.6275 12.4059L20.0978 12.4059M9.6275 14.3548L17.0978 14.3548M9.6275 16.3037L19.0978 16.3037M9.6275 18.2526L11.0978 18.2526;M9.6275 10.457L21.0202 10.457M9.6275 12.4059L15.0978 12.4059M9.6275 14.3548L15.0978 14.3548M9.6275 16.3037L15.0978 16.3037M9.6275 18.2526L15.0978 18.2526" begin="0s" dur="3s" repeatCount="indefinite" fill="freeze" calcMode="linear" keyTimes="0;0.5;1"/></path>
</g>
<g id="Group 1171276259">
<path id="Ellipse 1865" d="M3.85768 6.17427L28.1745 26.0322C25.2808 29.5398 20.9015 31.775 16 31.775C7.28771 31.775 0.225 24.7123 0.225 16C0.225 7.28771 7.28771 0.225 16 0.225C24.7123 0.225 31.775 7.28771 31.775 16C31.775 19.6492 30.5362 23.0085 28.4559 25.6811L4.14232 5.82573L3.85768 6.17427Z" stroke="url(#paint3_linear_135_843)" stroke-width="0.45"/>
</g>

                                    </g>

                                    </g>
<defs>
<filter id="filter0_d_135_843" x="17.5248" y="14.8168" width="9.58771" height="10.3215" filterUnits="userSpaceOnUse" color-interpolation-filters="sRGB">
<feFlood flood-opacity="0" result="BackgroundImageFix"/>
<feColorMatrix in="SourceAlpha" type="matrix" values="0 0 0 0 0 0 0 0 0 0 0 0 0 0 0 0 0 0 127 0" result="hardAlpha"/>
<feOffset/>
<feGaussianBlur stdDeviation="2"/>
<feComposite in2="hardAlpha" operator="out"/>
<feColorMatrix type="matrix" values="0 0 0 0 0 0 0 0 0 0 0 0 0 0 0 0 0 0 0.25 0"/>
<feBlend mode="normal" in2="BackgroundImageFix" result="effect1_dropShadow_135_843">
                                    </feBlend>
<feBlend mode="normal" in="SourceGraphic" in2="effect1_dropShadow_135_843" result="shape">
                                    </feBlend>

                                    
                                    <animate attributeName="x" values="17.5248;15.4402;17.5248" begin="0s" dur="3s" repeatCount="indefinite" fill="freeze" calcMode="linear" keyTimes="0;0.5;1"/>
                                    <animate attributeName="y" values="14.8168;16.9244;14.8168" begin="0s" dur="3s" repeatCount="indefinite" fill="freeze" calcMode="linear" keyTimes="0;0.5;1"/>
                                    <animate attributeName="width" values="9.58771;10.3221;9.58771" begin="0s" dur="3s" repeatCount="indefinite" fill="freeze" calcMode="linear" keyTimes="0;0.5;1"/>
                                    <animate attributeName="height" values="10.3215;9.58759;10.3215" begin="0s" dur="3s" repeatCount="indefinite" fill="freeze" calcMode="linear" keyTimes="0;0.5;1"/></filter>
<linearGradient id="paint0_linear_135_843" x1="15.7308" y1="5" x2="15.7308" y2="26.0483" gradientUnits="userSpaceOnUse">
<stop stop-color="#3DA1E7"/>
<stop offset="1" stop-color="#2E5BC3"/>

                                    </linearGradient>
<linearGradient id="paint1_linear_135_843" x1="18.3909" y1="19.8395" x2="25.986" y2="19.8538" gradientUnits="userSpaceOnUse">
<stop stop-color="#7ED63F"/>
<stop offset="1" stop-color="#409801"/>

                                    
                                    <animate attributeName="x1" values="18.3909;20.443;18.3909" begin="0s" dur="3s" repeatCount="indefinite" fill="freeze" calcMode="linear" keyTimes="0;0.5;1"/>
                                    <animate attributeName="y1" values="19.8395;25.6474;19.8395" begin="0s" dur="3s" repeatCount="indefinite" fill="freeze" calcMode="linear" keyTimes="0;0.5;1"/>
                                    <animate attributeName="x2" values="25.986;20.4965;25.986" begin="0s" dur="3s" repeatCount="indefinite" fill="freeze" calcMode="linear" keyTimes="0;0.5;1"/>
                                    <animate attributeName="y2" values="19.8538;18.0524;19.8538" begin="0s" dur="3s" repeatCount="indefinite" fill="freeze" calcMode="linear" keyTimes="0;0.5;1"/></linearGradient>
<radialGradient id="paint2_radial_135_843" cx="0" cy="0" r="1" gradientUnits="userSpaceOnUse" gradientTransform="translate(24.2017 20.0258) rotate(-151.988) scale(2.74507 2.69444)">
<stop stop-color="#FFD6B0"/>
<stop offset="0.517762" stop-color="#FFA24C"/>
<stop offset="1" stop-color="#EE780B"/>

                                    </radialGradient>
<linearGradient id="paint3_linear_135_843" x1="16" y1="0" x2="16" y2="32" gradientUnits="userSpaceOnUse">
<stop stop-color="#FA0202"/>
<stop offset="1" stop-color="#C70000"/>

                                    </linearGradient>
</defs>
</svg>