<svg width="40" height="40" viewBox="0 0 40 40" fill="none" xmlns="http://www.w3.org/2000/svg">
<g id="Group 1171276269">
<rect id="Rectangle 34624220" width="40" height="40" fill="white">
                                    </rect>
<g id="Group 1171276267">
<g id="Group 1171276265">
<path id="Vector 738" d="M31 13.9999L5 13.9999C4.44772 13.9999 4 14.4477 4 14.9999L4 34.9998C4 35.552 4.44772 35.9998 5 35.9998L10.5 35.9998L10.5 26.8213C10.5 26.6832 10.6119 26.5713 10.75 26.5713C10.8881 26.5713 11 26.6832 11 26.8213L11 35.9998L31 35.9998C31.5523 35.9998 32 35.552 32 34.9998L32 14.9999C32 14.4477 31.5523 13.9999 31 13.9999Z" fill="url(#paint0_linear_139_931)" stroke="#00005B" stroke-width="0.45" stroke-linecap="round">
                                    <animate attributeName="d" values="M31 13.9999L5 13.9999C4.44772 13.9999 4 14.4477 4 14.9999L4 34.9998C4 35.552 4.44772 35.9998 5 35.9998L10.5 35.9998L10.5 26.8213C10.5 26.6832 10.6119 26.5713 10.75 26.5713C10.8881 26.5713 11 26.6832 11 26.8213L11 35.9998L31 35.9998C31.5523 35.9998 32 35.552 32 34.9998L32 14.9999C32 14.4477 31.5523 13.9999 31 13.9999Z;M31 13.9999L5 13.9999C4.44772 13.9999 4 14.4477 4 14.9999L4 34.9998C4 35.552 4.44772 35.9998 5 35.9998L10.5 35.9998L10.5 22.8213C10.5 22.6832 10.6119 22.5713 10.75 22.5713C10.8881 22.5713 11 22.6832 11 22.8213L11 35.9998L31 35.9998C31.5523 35.9998 32 35.552 32 34.9998L32 14.9999C32 14.4477 31.5523 13.9999 31 13.9999Z;M31 13.9999L5 13.9999C4.44772 13.9999 4 14.4477 4 14.9999L4 34.9998C4 35.552 4.44772 35.9998 5 35.9998L10.5 35.9998L10.5 26.8213C10.5 26.6832 10.6119 26.5713 10.75 26.5713C10.8881 26.5713 11 26.6832 11 26.8213L11 35.9998L31 35.9998C31.5523 35.9998 32 35.552 32 34.9998L32 14.9999C32 14.4477 31.5523 13.9999 31 13.9999Z" begin="0s" dur="3s" repeatCount="indefinite" fill="freeze" calcMode="linear" keyTimes="0;0.5;1"/></path>
<g id="Group 1171276264">
<path id="Vector 739" d="M27 23H32C32.5523 23 33 23.4477 33 24V26C33 26.5523 32.5523 27 32 27H27C25.8954 27 25 26.1046 25 25C25 23.8955 25.8954 23 27 23Z" fill="#00005B"/>
<ellipse id="Ellipse 1866" cx="0.869864" cy="0.818081" rx="0.869864" ry="0.818081" transform="matrix(0.957264 -0.289217 0.388789 0.921327 25.6589 24.4215)" fill="#357BD3">
                                    <animateTransform attributeName="transform" type="matrix" values="0.957264 -0.289217 0.388789 0.921327 25.6589 24.4215;0.957264 -0.289217 0.388789 0.921327 26 24.5032;0.957264 -0.289217 0.388789 0.921327 25.6589 24.4215" begin="0s" dur="3s" repeatCount="indefinite" fill="freeze" calcMode="linear" keyTimes="0;0.5;1"/></ellipse>
</g>
</g>
<g id="Group 1171276124">
<g id="Vector" filter="url(#filter0_d_139_931)">
<path d="M16.5903 6.73465C15.5301 6.58935 14.4576 6.76597 13.5085 7.24219C12.5594 7.7184 11.7763 8.47282 11.2582 9.41004C10.7401 10.3473 10.5103 11.4252 10.5979 12.5075C10.6855 13.5898 11.0865 14.628 11.7502 15.4906C12.4138 16.3532 13.3104 17.0016 14.3266 17.3538C15.3427 17.7059 16.4327 17.746 17.4587 17.469C18.4848 17.192 19.4008 16.6104 20.0909 15.7976C20.7811 14.9848 21.2143 13.9774 21.336 12.9027C21.4976 11.4619 21.0887 10.0033 20.199 8.84689C19.3092 7.6905 18.0114 6.93084 16.5903 6.73465Z" fill="url(#paint1_radial_139_931)">
                                    <animate attributeName="d" values="M16.5903 6.73465C15.5301 6.58935 14.4576 6.76597 13.5085 7.24219C12.5594 7.7184 11.7763 8.47282 11.2582 9.41004C10.7401 10.3473 10.5103 11.4252 10.5979 12.5075C10.6855 13.5898 11.0865 14.628 11.7502 15.4906C12.4138 16.3532 13.3104 17.0016 14.3266 17.3538C15.3427 17.7059 16.4327 17.746 17.4587 17.469C18.4848 17.192 19.4008 16.6104 20.0909 15.7976C20.7811 14.9848 21.2143 13.9774 21.336 12.9027C21.4976 11.4619 21.0887 10.0033 20.199 8.84689C19.3092 7.6905 18.0114 6.93084 16.5903 6.73465Z;M15.5252 10.7185C14.4569 10.7815 13.439 11.1627 12.6003 11.8139C11.7615 12.4651 11.1395 13.357 10.813 14.3769C10.4864 15.3968 10.47 16.4988 10.7657 17.5436C11.0615 18.5885 11.6561 19.5291 12.4745 20.2467C13.2928 20.9643 14.2981 21.4265 15.3632 21.575C16.4283 21.7235 17.5054 21.5515 18.4583 21.0809C19.4112 20.6102 20.197 19.862 20.7165 18.9308C21.236 17.9996 21.4657 16.9273 21.3767 15.8495C21.2559 14.4047 20.5719 13.053 19.4749 12.091C18.3779 11.1291 16.9574 10.6355 15.5252 10.7185Z;M16.5903 6.73465C15.5301 6.58935 14.4576 6.76597 13.5085 7.24219C12.5594 7.7184 11.7763 8.47282 11.2582 9.41004C10.7401 10.3473 10.5103 11.4252 10.5979 12.5075C10.6855 13.5898 11.0865 14.628 11.7502 15.4906C12.4138 16.3532 13.3104 17.0016 14.3266 17.3538C15.3427 17.7059 16.4327 17.746 17.4587 17.469C18.4848 17.192 19.4008 16.6104 20.0909 15.7976C20.7811 14.9848 21.2143 13.9774 21.336 12.9027C21.4976 11.4619 21.0887 10.0033 20.199 8.84689C19.3092 7.6905 18.0114 6.93084 16.5903 6.73465Z" begin="0s" dur="3s" repeatCount="indefinite" fill="freeze" calcMode="linear" keyTimes="0;0.5;1"/></path>
</g>
<g id="$" filter="url(#filter1_d_139_931)">
<path d="M15.5411 15.5412L16.3396 8.48485L16.7856 8.54598L15.9871 15.6024L15.5411 15.5412ZM17.487 10.8646C17.4875 10.5997 17.3908 10.3812 17.1967 10.209C17.0028 10.035 16.7463 9.92617 16.4272 9.88244C16.1988 9.85114 15.997 9.86081 15.8219 9.91145C15.647 9.96026 15.5062 10.0417 15.3994 10.1558C15.2946 10.2684 15.2331 10.4046 15.215 10.5645C15.1999 10.6986 15.2176 10.8186 15.2682 10.9244C15.3206 11.0305 15.3939 11.1236 15.4879 11.2037C15.584 11.2821 15.6884 11.3515 15.8013 11.4118C15.9143 11.4702 16.0237 11.5206 16.1293 11.5631L16.657 11.781C16.8297 11.8494 17.0051 11.9341 17.1833 12.035C17.3616 12.136 17.5235 12.2589 17.6691 12.4039C17.8147 12.5489 17.9261 12.7191 18.0034 12.9144C18.0826 13.11 18.1078 13.3346 18.0791 13.5882C18.0429 13.9079 17.9292 14.1806 17.738 14.4064C17.5485 14.6323 17.2916 14.7959 16.9672 14.8969C16.6446 14.9983 16.2657 15.0191 15.8306 14.9595C15.4136 14.9024 15.0604 14.7858 14.771 14.61C14.4816 14.4341 14.2648 14.2112 14.1204 13.9414C13.9762 13.6697 13.9143 13.3626 13.9347 13.0202L14.7777 13.1357C14.7709 13.3419 14.817 13.5208 14.9158 13.6725C15.0166 13.8225 15.1531 13.9429 15.3251 14.0337C15.4991 14.1228 15.694 14.1822 15.9097 14.2118C16.1472 14.2443 16.3627 14.2356 16.5561 14.1856C16.7516 14.134 16.9105 14.0476 17.0328 13.9262C17.1554 13.8031 17.2271 13.6496 17.2479 13.4659C17.2668 13.2986 17.2352 13.1553 17.1529 13.0358C17.0725 12.9165 16.9565 12.8111 16.8049 12.7194C16.6551 12.6279 16.4835 12.5419 16.2901 12.4613L15.6525 12.1891C15.2205 12.0049 14.8874 11.7754 14.6534 11.5008C14.4212 11.2264 14.3273 10.8925 14.3718 10.4993C14.4086 10.174 14.5278 9.90204 14.7293 9.68333C14.9308 9.46462 15.1878 9.30856 15.5003 9.21517C15.813 9.11993 16.1561 9.09791 16.5296 9.14909C16.9067 9.20077 17.2317 9.31344 17.5048 9.48709C17.7797 9.66099 17.9872 9.87698 18.1274 10.135C18.2678 10.3913 18.3245 10.6715 18.2974 10.9757L17.487 10.8646Z" fill="white">
                                    <animate attributeName="d" values="M15.5411 15.5412L16.3396 8.48485L16.7856 8.54598L15.9871 15.6024L15.5411 15.5412ZM17.487 10.8646C17.4875 10.5997 17.3908 10.3812 17.1967 10.209C17.0028 10.035 16.7463 9.92617 16.4272 9.88244C16.1988 9.85114 15.997 9.86081 15.8219 9.91145C15.647 9.96026 15.5062 10.0417 15.3994 10.1558C15.2946 10.2684 15.2331 10.4046 15.215 10.5645C15.1999 10.6986 15.2176 10.8186 15.2682 10.9244C15.3206 11.0305 15.3939 11.1236 15.4879 11.2037C15.584 11.2821 15.6884 11.3515 15.8013 11.4118C15.9143 11.4702 16.0237 11.5206 16.1293 11.5631L16.657 11.781C16.8297 11.8494 17.0051 11.9341 17.1833 12.035C17.3616 12.136 17.5235 12.2589 17.6691 12.4039C17.8147 12.5489 17.9261 12.7191 18.0034 12.9144C18.0826 13.11 18.1078 13.3346 18.0791 13.5882C18.0429 13.9079 17.9292 14.1806 17.738 14.4064C17.5485 14.6323 17.2916 14.7959 16.9672 14.8969C16.6446 14.9983 16.2657 15.0191 15.8306 14.9595C15.4136 14.9024 15.0604 14.7858 14.771 14.61C14.4816 14.4341 14.2648 14.2112 14.1204 13.9414C13.9762 13.6697 13.9143 13.3626 13.9347 13.0202L14.7777 13.1357C14.7709 13.3419 14.817 13.5208 14.9158 13.6725C15.0166 13.8225 15.1531 13.9429 15.3251 14.0337C15.4991 14.1228 15.694 14.1822 15.9097 14.2118C16.1472 14.2443 16.3627 14.2356 16.5561 14.1856C16.7516 14.134 16.9105 14.0476 17.0328 13.9262C17.1554 13.8031 17.2271 13.6496 17.2479 13.4659C17.2668 13.2986 17.2352 13.1553 17.1529 13.0358C17.0725 12.9165 16.9565 12.8111 16.8049 12.7194C16.6551 12.6279 16.4835 12.5419 16.2901 12.4613L15.6525 12.1891C15.2205 12.0049 14.8874 11.7754 14.6534 11.5008C14.4212 11.2264 14.3273 10.8925 14.3718 10.4993C14.4086 10.174 14.5278 9.90204 14.7293 9.68333C14.9308 9.46462 15.1878 9.30856 15.5003 9.21517C15.813 9.11993 16.1561 9.09791 16.5296 9.14909C16.9067 9.20077 17.2317 9.31344 17.5048 9.48709C17.7797 9.66099 17.9872 9.87698 18.1274 10.135C18.2678 10.3913 18.3245 10.6715 18.2974 10.9757L17.487 10.8646Z;M16.2033 19.5614L15.6186 12.4841L16.068 12.4576L16.6527 19.5349L16.2033 19.5614ZM17.2056 14.5963C17.1548 14.3363 17.0175 14.1407 16.7937 14.0094C16.5697 13.8763 16.297 13.8192 15.9755 13.8382C15.7454 13.8518 15.5493 13.9004 15.3873 13.984C15.2252 14.0658 15.1028 14.173 15.0202 14.3057C14.9392 14.4364 14.9053 14.5819 14.9186 14.7423C14.9297 14.8768 14.9703 14.9911 15.0405 15.0851C15.1125 15.179 15.2024 15.2562 15.3102 15.3165C15.4196 15.3748 15.5355 15.4226 15.6579 15.4599C15.7802 15.4952 15.8972 15.5235 16.0091 15.5447L16.569 15.6562C16.7517 15.6898 16.9402 15.7389 17.1346 15.8034C17.329 15.8678 17.5117 15.9571 17.6826 16.0711C17.8536 16.1851 17.9959 16.3304 18.1097 16.507C18.2252 16.6836 18.2935 16.899 18.3145 17.1534C18.341 17.474 18.2823 17.7636 18.1385 18.0222C17.9964 18.2806 17.7761 18.4908 17.4774 18.6529C17.1806 18.8148 16.813 18.9087 16.3745 18.9346C15.9544 18.9594 15.5853 18.9136 15.2673 18.7971C14.9493 18.6807 14.6933 18.5041 14.4994 18.2673C14.3053 18.0288 14.185 17.7395 14.1386 17.3997L14.988 17.3496C15.0214 17.5532 15.1012 17.7198 15.2276 17.8494C15.3556 17.977 15.5128 18.0687 15.6991 18.1244C15.8871 18.1781 16.0898 18.1985 16.3072 18.1857C16.5465 18.1716 16.7562 18.1213 16.9362 18.0347C17.118 17.9462 17.2571 17.8306 17.3536 17.6879C17.45 17.5433 17.4906 17.3788 17.4753 17.1945C17.4615 17.0268 17.4026 16.8923 17.2988 16.791C17.1968 16.6896 17.0626 16.6086 16.896 16.5481C16.7313 16.4874 16.5463 16.4363 16.3409 16.3947L15.6627 16.2513C15.2032 16.1543 14.832 15.9938 14.5491 15.7697C14.2681 15.5455 14.1113 15.2362 14.0787 14.8418C14.0518 14.5156 14.1159 14.2257 14.2712 13.9721C14.4265 13.7184 14.6483 13.5155 14.9368 13.3633C15.2251 13.2092 15.5574 13.1211 15.9337 13.0989C16.3137 13.0765 16.6544 13.124 16.956 13.2414C17.2594 13.3587 17.5049 13.5304 17.6924 13.7564C17.8798 13.9805 17.9897 14.2445 18.0222 14.5481L17.2056 14.5963Z;M15.5411 15.5412L16.3396 8.48485L16.7856 8.54598L15.9871 15.6024L15.5411 15.5412ZM17.487 10.8646C17.4875 10.5997 17.3908 10.3812 17.1967 10.209C17.0028 10.035 16.7463 9.92617 16.4272 9.88244C16.1988 9.85114 15.997 9.86081 15.8219 9.91145C15.647 9.96026 15.5062 10.0417 15.3994 10.1558C15.2946 10.2684 15.2331 10.4046 15.215 10.5645C15.1999 10.6986 15.2176 10.8186 15.2682 10.9244C15.3206 11.0305 15.3939 11.1236 15.4879 11.2037C15.584 11.2821 15.6884 11.3515 15.8013 11.4118C15.9143 11.4702 16.0237 11.5206 16.1293 11.5631L16.657 11.781C16.8297 11.8494 17.0051 11.9341 17.1833 12.035C17.3616 12.136 17.5235 12.2589 17.6691 12.4039C17.8147 12.5489 17.9261 12.7191 18.0034 12.9144C18.0826 13.11 18.1078 13.3346 18.0791 13.5882C18.0429 13.9079 17.9292 14.1806 17.738 14.4064C17.5485 14.6323 17.2916 14.7959 16.9672 14.8969C16.6446 14.9983 16.2657 15.0191 15.8306 14.9595C15.4136 14.9024 15.0604 14.7858 14.771 14.61C14.4816 14.4341 14.2648 14.2112 14.1204 13.9414C13.9762 13.6697 13.9143 13.3626 13.9347 13.0202L14.7777 13.1357C14.7709 13.3419 14.817 13.5208 14.9158 13.6725C15.0166 13.8225 15.1531 13.9429 15.3251 14.0337C15.4991 14.1228 15.694 14.1822 15.9097 14.2118C16.1472 14.2443 16.3627 14.2356 16.5561 14.1856C16.7516 14.134 16.9105 14.0476 17.0328 13.9262C17.1554 13.8031 17.2271 13.6496 17.2479 13.4659C17.2668 13.2986 17.2352 13.1553 17.1529 13.0358C17.0725 12.9165 16.9565 12.8111 16.8049 12.7194C16.6551 12.6279 16.4835 12.5419 16.2901 12.4613L15.6525 12.1891C15.2205 12.0049 14.8874 11.7754 14.6534 11.5008C14.4212 11.2264 14.3273 10.8925 14.3718 10.4993C14.4086 10.174 14.5278 9.90204 14.7293 9.68333C14.9308 9.46462 15.1878 9.30856 15.5003 9.21517C15.813 9.11993 16.1561 9.09791 16.5296 9.14909C16.9067 9.20077 17.2317 9.31344 17.5048 9.48709C17.7797 9.66099 17.9872 9.87698 18.1274 10.135C18.2678 10.3913 18.3245 10.6715 18.2974 10.9757L17.487 10.8646Z" begin="0s" dur="3s" repeatCount="indefinite" fill="freeze" calcMode="linear" keyTimes="0;0.5;1"/></path>
</g>
</g>
<g id="Group 1171276266">
<ellipse id="Ellipse 1867" cx="30" cy="10" rx="6" ry="6" fill="url(#paint2_radial_139_931)"/>
<g id="$_2" filter="url(#filter2_d_139_931)">
<path d="M29.844 14.0884L29.6537 6L30.2834 6L30.4737 14.0884L29.844 14.0884ZM31.6825 8.50867C31.6345 8.20957 31.4601 7.97787 31.1593 7.81357C30.8585 7.64717 30.4828 7.56397 30.0322 7.56397C29.7097 7.56397 29.4317 7.60609 29.1981 7.69035C28.9646 7.7725 28.7842 7.88624 28.6571 8.03158C28.5325 8.17481 28.4723 8.33805 28.4766 8.52131C28.4802 8.67507 28.5269 8.80777 28.6165 8.91941C28.7088 9.03104 28.8274 9.12478 28.9726 9.2006C29.1202 9.27433 29.2778 9.33646 29.4454 9.38702C29.6129 9.43546 29.7739 9.47548 29.9282 9.50708L30.7 9.67137C30.9521 9.72193 31.2109 9.79038 31.4766 9.87674C31.7423 9.9631 31.9895 10.0768 32.218 10.218C32.4466 10.3591 32.6325 10.5339 32.7756 10.7425C32.9213 10.951 32.9976 11.2006 33.0044 11.4913C33.013 11.8578 32.9055 12.1832 32.6818 12.4676C32.4607 12.7519 32.1344 12.9762 31.7031 13.1405C31.2744 13.3048 30.7528 13.387 30.1385 13.387C29.5497 13.387 29.0385 13.3101 28.6048 13.1563C28.1712 13.0026 27.8294 12.7846 27.5796 12.5023C27.3297 12.218 27.1874 11.8809 27.1527 11.4913L28.343 11.4913C28.3715 11.7251 28.4683 11.9199 28.6332 12.0758C28.8006 12.2295 29.012 12.3443 29.2672 12.4202C29.5249 12.4939 29.806 12.5307 30.1107 12.5307C30.446 12.5307 30.7432 12.4876 31.0023 12.4012C31.2639 12.3127 31.4683 12.1906 31.6157 12.0347C31.763 11.8767 31.8342 11.6924 31.8292 11.4818C31.8247 11.2901 31.7545 11.1332 31.6185 11.011C31.4851 10.8888 31.3048 10.7877 31.0776 10.7077C30.853 10.6277 30.5992 10.5571 30.3162 10.496L29.3821 10.2875C28.7491 10.1464 28.245 9.93888 27.87 9.66506C27.4975 9.39123 27.3059 9.02894 27.2953 8.57818C27.2866 8.20535 27.4018 7.87992 27.641 7.60188C27.8802 7.32384 28.2079 7.10794 28.6241 6.95418C29.0402 6.79831 29.512 6.72037 30.0393 6.72037C30.5717 6.72037 31.0433 6.79725 31.4539 6.95102C31.8671 7.10478 32.1946 7.31647 32.4364 7.58608C32.6782 7.85359 32.8083 8.16112 32.8267 8.50867L31.6825 8.50867Z" fill="white">
                                    <animate attributeName="d" values="M29.844 14.0884L29.6537 6L30.2834 6L30.4737 14.0884L29.844 14.0884ZM31.6825 8.50867C31.6345 8.20957 31.4601 7.97787 31.1593 7.81357C30.8585 7.64717 30.4828 7.56397 30.0322 7.56397C29.7097 7.56397 29.4317 7.60609 29.1981 7.69035C28.9646 7.7725 28.7842 7.88624 28.6571 8.03158C28.5325 8.17481 28.4723 8.33805 28.4766 8.52131C28.4802 8.67507 28.5269 8.80777 28.6165 8.91941C28.7088 9.03104 28.8274 9.12478 28.9726 9.2006C29.1202 9.27433 29.2778 9.33646 29.4454 9.38702C29.6129 9.43546 29.7739 9.47548 29.9282 9.50708L30.7 9.67137C30.9521 9.72193 31.2109 9.79038 31.4766 9.87674C31.7423 9.9631 31.9895 10.0768 32.218 10.218C32.4466 10.3591 32.6325 10.5339 32.7756 10.7425C32.9213 10.951 32.9976 11.2006 33.0044 11.4913C33.013 11.8578 32.9055 12.1832 32.6818 12.4676C32.4607 12.7519 32.1344 12.9762 31.7031 13.1405C31.2744 13.3048 30.7528 13.387 30.1385 13.387C29.5497 13.387 29.0385 13.3101 28.6048 13.1563C28.1712 13.0026 27.8294 12.7846 27.5796 12.5023C27.3297 12.218 27.1874 11.8809 27.1527 11.4913L28.343 11.4913C28.3715 11.7251 28.4683 11.9199 28.6332 12.0758C28.8006 12.2295 29.012 12.3443 29.2672 12.4202C29.5249 12.4939 29.806 12.5307 30.1107 12.5307C30.446 12.5307 30.7432 12.4876 31.0023 12.4012C31.2639 12.3127 31.4683 12.1906 31.6157 12.0347C31.763 11.8767 31.8342 11.6924 31.8292 11.4818C31.8247 11.2901 31.7545 11.1332 31.6185 11.011C31.4851 10.8888 31.3048 10.7877 31.0776 10.7077C30.853 10.6277 30.5992 10.5571 30.3162 10.496L29.3821 10.2875C28.7491 10.1464 28.245 9.93888 27.87 9.66506C27.4975 9.39123 27.3059 9.02894 27.2953 8.57818C27.2866 8.20535 27.4018 7.87992 27.641 7.60188C27.8802 7.32384 28.2079 7.10794 28.6241 6.95418C29.0402 6.79831 29.512 6.72037 30.0393 6.72037C30.5717 6.72037 31.0433 6.79725 31.4539 6.95102C31.8671 7.10478 32.1946 7.31647 32.4364 7.58608C32.6782 7.85359 32.8083 8.16112 32.8267 8.50867L31.6825 8.50867Z;M28.0504 12.2611L31.3605 7.28039L31.7436 7.54824L28.4336 12.5289L28.0504 12.2611ZM31.5324 9.66301C31.6299 9.46141 31.6219 9.24687 31.5085 9.0194C31.3959 8.79064 31.2025 8.58044 30.9284 8.38881C30.7321 8.25162 30.5451 8.15888 30.3673 8.11059C30.1904 8.06101 30.0325 8.0532 29.8936 8.08717C29.7571 8.12093 29.6514 8.19423 29.5764 8.30707C29.5134 8.40176 29.4856 8.50198 29.4929 8.60774C29.5017 8.71459 29.5342 8.82185 29.5904 8.92952C29.649 9.03698 29.7186 9.14166 29.7992 9.24356C29.8806 9.34416 29.9615 9.43686 30.0421 9.52164L30.4421 9.94945C30.5741 10.0873 30.7026 10.2389 30.8277 10.4042C30.9528 10.5695 31.055 10.7435 31.1343 10.9263C31.2136 11.109 31.2526 11.2939 31.2514 11.4811C31.2517 11.6694 31.1924 11.8531 31.0735 12.0321C30.9235 12.2577 30.7202 12.4091 30.4636 12.4863C30.2087 12.5644 29.9151 12.5616 29.5831 12.4777C29.2527 12.3948 28.9005 12.2227 28.5267 11.9614C28.1684 11.711 27.89 11.447 27.6912 11.1694C27.4925 10.8918 27.3769 10.6144 27.3444 10.3371C27.3128 10.0586 27.3689 9.7939 27.5128 9.54306L28.2371 10.0494C28.1554 10.2031 28.1318 10.3623 28.1661 10.5269C28.2029 10.6912 28.2828 10.8507 28.406 11.0052C28.5316 11.1594 28.6871 11.3014 28.8724 11.4309C29.0765 11.5736 29.2756 11.6738 29.4698 11.7317C29.6664 11.7894 29.8426 11.8023 29.9983 11.7706C30.1548 11.7375 30.2762 11.6562 30.3624 11.5265C30.4409 11.4084 30.4646 11.2835 30.4336 11.1516C30.4041 11.0209 30.3373 10.883 30.2329 10.7379C30.1302 10.5938 30.0057 10.4431 29.8593 10.2858L29.3793 9.76212C29.0538 9.40737 28.835 9.06729 28.7228 8.74189C28.6121 8.41758 28.649 8.11663 28.8335 7.83907C28.9861 7.60949 29.194 7.46136 29.4573 7.39467C29.7206 7.32799 30.0115 7.33658 30.3298 7.42046C30.6491 7.50304 30.9691 7.65648 31.29 7.88077C31.6139 8.10724 31.8683 8.35438 32.053 8.62218C32.2393 8.89108 32.3489 9.15862 32.3819 9.42481C32.4157 9.68971 32.3646 9.93134 32.2286 10.1497L31.5324 9.66301Z;M29.844 14.0884L29.6537 6L30.2834 6L30.4737 14.0884L29.844 14.0884ZM31.6825 8.50867C31.6345 8.20957 31.4601 7.97787 31.1593 7.81357C30.8585 7.64717 30.4828 7.56397 30.0322 7.56397C29.7097 7.56397 29.4317 7.60609 29.1981 7.69035C28.9646 7.7725 28.7842 7.88624 28.6571 8.03158C28.5325 8.17481 28.4723 8.33805 28.4766 8.52131C28.4802 8.67507 28.5269 8.80777 28.6165 8.91941C28.7088 9.03104 28.8274 9.12478 28.9726 9.2006C29.1202 9.27433 29.2778 9.33646 29.4454 9.38702C29.6129 9.43546 29.7739 9.47548 29.9282 9.50708L30.7 9.67137C30.9521 9.72193 31.2109 9.79038 31.4766 9.87674C31.7423 9.9631 31.9895 10.0768 32.218 10.218C32.4466 10.3591 32.6325 10.5339 32.7756 10.7425C32.9213 10.951 32.9976 11.2006 33.0044 11.4913C33.013 11.8578 32.9055 12.1832 32.6818 12.4676C32.4607 12.7519 32.1344 12.9762 31.7031 13.1405C31.2744 13.3048 30.7528 13.387 30.1385 13.387C29.5497 13.387 29.0385 13.3101 28.6048 13.1563C28.1712 13.0026 27.8294 12.7846 27.5796 12.5023C27.3297 12.218 27.1874 11.8809 27.1527 11.4913L28.343 11.4913C28.3715 11.7251 28.4683 11.9199 28.6332 12.0758C28.8006 12.2295 29.012 12.3443 29.2672 12.4202C29.5249 12.4939 29.806 12.5307 30.1107 12.5307C30.446 12.5307 30.7432 12.4876 31.0023 12.4012C31.2639 12.3127 31.4683 12.1906 31.6157 12.0347C31.763 11.8767 31.8342 11.6924 31.8292 11.4818C31.8247 11.2901 31.7545 11.1332 31.6185 11.011C31.4851 10.8888 31.3048 10.7877 31.0776 10.7077C30.853 10.6277 30.5992 10.5571 30.3162 10.496L29.3821 10.2875C28.7491 10.1464 28.245 9.93888 27.87 9.66506C27.4975 9.39123 27.3059 9.02894 27.2953 8.57818C27.2866 8.20535 27.4018 7.87992 27.641 7.60188C27.8802 7.32384 28.2079 7.10794 28.6241 6.95418C29.0402 6.79831 29.512 6.72037 30.0393 6.72037C30.5717 6.72037 31.0433 6.79725 31.4539 6.95102C31.8671 7.10478 32.1946 7.31647 32.4364 7.58608C32.6782 7.85359 32.8083 8.16112 32.8267 8.50867L31.6825 8.50867Z" begin="0s" dur="3s" repeatCount="indefinite" fill="freeze" calcMode="linear" keyTimes="0;0.5;1"/></path>
</g>
</g>

                                    </g>

                                    </g>
<defs>
<filter id="filter0_d_139_931" x="8.57971" y="4.68521" width="14.7908" height="14.9657" filterUnits="userSpaceOnUse" color-interpolation-filters="sRGB">
<feFlood flood-opacity="0" result="BackgroundImageFix"/>
<feColorMatrix in="SourceAlpha" type="matrix" values="0 0 0 0 0 0 0 0 0 0 0 0 0 0 0 0 0 0 127 0" result="hardAlpha"/>
<feOffset/>
<feGaussianBlur stdDeviation="1"/>
<feComposite in2="hardAlpha" operator="out"/>
<feColorMatrix type="matrix" values="0 0 0 0 0 0 0 0 0 0 0 0 0 0 0 0 0 0 0.25 0"/>
<feBlend mode="normal" in2="BackgroundImageFix" result="effect1_dropShadow_139_931">
                                    </feBlend>
<feBlend mode="normal" in="SourceGraphic" in2="effect1_dropShadow_139_931" result="shape">
                                    </feBlend>

                                    
                                    <animate attributeName="x" values="8.57971;8.55536;8.57971" begin="0s" dur="3s" repeatCount="indefinite" fill="freeze" calcMode="linear" keyTimes="0;0.5;1"/>
                                    <animate attributeName="y" values="4.68521;8.7095;4.68521" begin="0s" dur="3s" repeatCount="indefinite" fill="freeze" calcMode="linear" keyTimes="0;0.5;1"/>
                                    <animate attributeName="width" values="14.7908;14.84;14.7908" begin="0s" dur="3s" repeatCount="indefinite" fill="freeze" calcMode="linear" keyTimes="0;0.5;1"/>
                                    <animate attributeName="height" values="14.9657;14.9174;14.9657" begin="0s" dur="3s" repeatCount="indefinite" fill="freeze" calcMode="linear" keyTimes="0;0.5;1"/></filter>
<filter id="filter1_d_139_931" x="9.93091" y="4.48486" width="12.373" height="15.1175" filterUnits="userSpaceOnUse" color-interpolation-filters="sRGB">
<feFlood flood-opacity="0" result="BackgroundImageFix"/>
<feColorMatrix in="SourceAlpha" type="matrix" values="0 0 0 0 0 0 0 0 0 0 0 0 0 0 0 0 0 0 127 0" result="hardAlpha"/>
<feOffset/>
<feGaussianBlur stdDeviation="2"/>
<feComposite in2="hardAlpha" operator="out"/>
<feColorMatrix type="matrix" values="0 0 0 0 0 0 0 0 0 0 0 0 0 0 0 0 0 0 0.25 0"/>
<feBlend mode="normal" in2="BackgroundImageFix" result="effect1_dropShadow_139_931">
                                    </feBlend>
<feBlend mode="normal" in="SourceGraphic" in2="effect1_dropShadow_139_931" result="shape">
                                    </feBlend>

                                    
                                    <animate attributeName="x" values="9.93091;10.0728;9.93091" begin="0s" dur="3s" repeatCount="indefinite" fill="freeze" calcMode="linear" keyTimes="0;0.5;1"/>
                                    <animate attributeName="y" values="4.48486;8.45761;4.48486" begin="0s" dur="3s" repeatCount="indefinite" fill="freeze" calcMode="linear" keyTimes="0;0.5;1"/>
                                    <animate attributeName="width" values="12.373;12.2479;12.373" begin="0s" dur="3s" repeatCount="indefinite" fill="freeze" calcMode="linear" keyTimes="0;0.5;1"/>
                                    <animate attributeName="height" values="15.1175;15.1038;15.1175" begin="0s" dur="3s" repeatCount="indefinite" fill="freeze" calcMode="linear" keyTimes="0;0.5;1"/></filter>
<filter id="filter2_d_139_931" x="23.1526" y="2" width="13.8522" height="16.0884" filterUnits="userSpaceOnUse" color-interpolation-filters="sRGB">
<feFlood flood-opacity="0" result="BackgroundImageFix"/>
<feColorMatrix in="SourceAlpha" type="matrix" values="0 0 0 0 0 0 0 0 0 0 0 0 0 0 0 0 0 0 127 0" result="hardAlpha"/>
<feOffset/>
<feGaussianBlur stdDeviation="2"/>
<feComposite in2="hardAlpha" operator="out"/>
<feColorMatrix type="matrix" values="0 0 0 0 0 0 0 0 0 0 0 0 0 0 0 0 0 0 0.25 0"/>
<feBlend mode="normal" in2="BackgroundImageFix" result="effect1_dropShadow_139_931">
                                    </feBlend>
<feBlend mode="normal" in="SourceGraphic" in2="effect1_dropShadow_139_931" result="shape">
                                    </feBlend>

                                    
                                    <animate attributeName="x" values="23.1526;23.3359;23.1526" begin="0s" dur="3s" repeatCount="indefinite" fill="freeze" calcMode="linear" keyTimes="0;0.5;1"/>
                                    <animate attributeName="y" values="2;3.2804;2" begin="0s" dur="3s" repeatCount="indefinite" fill="freeze" calcMode="linear" keyTimes="0;0.5;1"/>
                                    <animate attributeName="width" values="13.8522;13.0562;13.8522" begin="0s" dur="3s" repeatCount="indefinite" fill="freeze" calcMode="linear" keyTimes="0;0.5;1"/>
                                    <animate attributeName="height" values="16.0884;13.2624;16.0884" begin="0s" dur="3s" repeatCount="indefinite" fill="freeze" calcMode="linear" keyTimes="0;0.5;1"/></filter>
<linearGradient id="paint0_linear_139_931" x1="18" y1="13.9999" x2="18" y2="35.9998" gradientUnits="userSpaceOnUse">
<stop stop-color="#2F59C2"/>
<stop offset="1" stop-color="#3DA3E7"/>

                                    </linearGradient>
<radialGradient id="paint1_radial_139_931" cx="0" cy="0" r="1" gradientUnits="userSpaceOnUse" gradientTransform="translate(9.78446 11.2122) rotate(35.8214) scale(9.30994 9.18157)">
<stop stop-color="#FFD6B0"/>
<stop offset="0.517762" stop-color="#FFA24C"/>
<stop offset="1" stop-color="#EE780B"/>

                                    </radialGradient>
<radialGradient id="paint2_radial_139_931" cx="0" cy="0" r="1" gradientUnits="userSpaceOnUse" gradientTransform="translate(31.5 7) rotate(115.017) scale(8.27647)">
<stop offset="0.230687" stop-color="#ED780C"/>
<stop offset="1" stop-color="#F4AE24"/>

                                    </radialGradient>
</defs>
</svg>