<svg width="40" height="40" viewBox="0 0 40 40" fill="none" xmlns="http://www.w3.org/2000/svg">
<g id="Group 1171276274">
<rect id="Rectangle 34624671" width="40" height="40" fill="white">
                                    </rect>
<g id="Group 1171276272">
<g id="Group 1171276271">
<path id="Vector 711" d="M35.1944 34.3888H4.80557C4.36067 34.3888 4.00001 34.7495 4.00001 35.1944C4.00002 35.6393 4.36068 35.9999 4.80557 35.9999H35.1944C35.6393 35.9999 36 35.6392 36 35.1943C36 34.7495 35.6393 34.3888 35.1944 34.3888Z" fill="url(#paint0_linear_149_194)"/>
<path id="Vector 742" d="M36 16.4722V16.4413C36 16.0825 35.8078 15.7512 35.4963 15.5732L20.9812 7.27507C20.6818 7.10395 20.3155 7.0991 20.0117 7.26222L4.52688 15.5782C4.20243 15.7524 4 16.0958 4.00001 16.4641C4.00002 17.0163 4.44773 17.4722 5.00001 17.4722H35C35.5523 17.4722 36 17.0245 36 16.4722Z" fill="url(#paint1_linear_149_194)"/>
<path id="Rectangle 34624674" d="M16 27.7222C16 25.513 17.7909 23.7222 20 23.7222L20 23.7222C22.2091 23.7222 24 25.513 24 27.7222L24 34.3888L16 34.3888L16 27.7222Z" fill="url(#paint2_linear_149_194)">
                                    <animate attributeName="d" values="M16 27.7222C16 25.513 17.7909 23.7222 20 23.7222L20 23.7222C22.2091 23.7222 24 25.513 24 27.7222L24 34.3888L16 34.3888L16 27.7222Z;M16 29.7222C16 27.513 17.7909 25.7222 20 25.7222L20 25.7222C22.2091 25.7222 24 27.513 24 29.7222L24 34.3888L16 34.3888L16 29.7222Z;M16 27.7222C16 25.513 17.7909 23.7222 20 23.7222L20 23.7222C22.2091 23.7222 24 25.513 24 27.7222L24 34.3888L16 34.3888L16 27.7222Z" begin="0s" dur="3s" repeatCount="indefinite" fill="freeze" calcMode="linear" keyTimes="0;0.5;1"/></path>
<path id="Vector 740" d="M6.46991 34.3888H10.5301C10.7896 34.3888 11 34.1784 11 33.9189C11 33.6594 10.7896 33.449 10.5301 33.449H10.375C10.0298 33.449 9.75 33.1692 9.75 32.824V19.037C9.75 18.6918 10.0298 18.412 10.375 18.412H10.5301C10.7896 18.412 11 18.2016 11 17.9421C11 17.6826 10.7896 17.4722 10.5301 17.4722H6.46991C6.21038 17.4722 6 17.6826 6 17.9421C6 18.2016 6.21038 18.412 6.46991 18.412H6.625C6.97018 18.412 7.25 18.6918 7.25 19.037V32.824C7.25 33.1692 6.97018 33.449 6.625 33.449H6.46991C6.21038 33.449 6 33.6594 6 33.9189C6 34.1784 6.21038 34.3888 6.46991 34.3888Z" fill="url(#paint3_linear_149_194)"/>
<path id="Vector 741" d="M29.4699 34.3888H33.5301C33.7896 34.3888 34 34.1784 34 33.9189C34 33.6594 33.7896 33.449 33.5301 33.449H33.375C33.0298 33.449 32.75 33.1692 32.75 32.824V19.037C32.75 18.6918 33.0298 18.412 33.375 18.412H33.5301C33.7896 18.412 34 18.2016 34 17.9421C34 17.6826 33.7896 17.4722 33.5301 17.4722H29.4699C29.2104 17.4722 29 17.6826 29 17.9421C29 18.2016 29.2104 18.412 29.4699 18.412H29.625C29.9702 18.412 30.25 18.6918 30.25 19.037V32.824C30.25 33.1692 29.9702 33.449 29.625 33.449H29.4699C29.2104 33.449 29 33.6594 29 33.9189C29 34.1784 29.2104 34.3888 29.4699 34.3888Z" fill="url(#paint4_linear_149_194)"/>
</g>
<path id="Vector 743" d="M28.3237 7.97826L11.1151 7.97826L11.1151 6L7 9.5L11.1151 13L11.1151 10.7174L28.3237 10.7174L28.3237 13L33 9.5L28.3237 6L28.3237 7.97826Z" fill="#F0A722">
                                    <animate attributeName="d" values="M28.3237 7.97826L11.1151 7.97826L11.1151 6L7 9.5L11.1151 13L11.1151 10.7174L28.3237 10.7174L28.3237 13L33 9.5L28.3237 6L28.3237 7.97826Z;M27.0432 7.97826L12.482 7.97826L12.482 6L9 9.5L12.482 13L12.482 10.7174L27.0432 10.7174L27.0432 13L31 9.5L27.0432 6L27.0432 7.97826Z;M28.3237 7.97826L11.1151 7.97826L11.1151 6L7 9.5L11.1151 13L11.1151 10.7174L28.3237 10.7174L28.3237 13L33 9.5L28.3237 6L28.3237 7.97826Z" begin="0s" dur="3s" repeatCount="indefinite" fill="freeze" calcMode="linear" keyTimes="0;0.5;1"/></path>
<g id="Group 1171276266">
<ellipse id="Ellipse 1867" cx="20" cy="9" rx="5" ry="5" fill="url(#paint5_radial_149_194)"/>
<g id="$" filter="url(#filter0_d_149_194)">
<path d="M19.7802 11.4048L19.663 6.42264L20.0526 6.42264L20.1698 11.4048L19.7802 11.4048ZM20.918 7.96789C20.8883 7.78366 20.7804 7.64094 20.5943 7.53974C20.4082 7.43724 20.1758 7.38599 19.8971 7.38599C19.6975 7.38599 19.5255 7.41194 19.381 7.46384C19.2365 7.51444 19.1249 7.5845 19.0463 7.67402C18.9692 7.76225 18.9319 7.8628 18.9346 7.97568C18.9368 8.07039 18.9657 8.15213 19.0211 8.2209C19.0782 8.28966 19.1516 8.3474 19.2414 8.3941C19.3327 8.43951 19.4302 8.47779 19.5339 8.50893C19.6375 8.53877 19.7371 8.56342 19.8326 8.58288L20.3101 8.68408C20.466 8.71522 20.6261 8.75739 20.7905 8.81058C20.9549 8.86378 21.1078 8.93384 21.2492 9.02077C21.3906 9.1077 21.5056 9.21539 21.5941 9.34383C21.6842 9.47228 21.7314 9.62603 21.7356 9.80507C21.7409 10.0308 21.6744 10.2313 21.5359 10.4064C21.3991 10.5816 21.1973 10.7198 20.9304 10.821C20.6652 10.9222 20.3425 10.9728 19.9624 10.9728C19.5982 10.9728 19.2819 10.9254 19.0136 10.8307C18.7454 10.736 18.5339 10.6017 18.3794 10.4278C18.2248 10.2527 18.1368 10.0451 18.1153 9.80507L18.8517 9.80507C18.8694 9.94909 18.9292 10.0691 19.0312 10.1651C19.1348 10.2598 19.2656 10.3305 19.4234 10.3772C19.5829 10.4227 19.7568 10.4454 19.9453 10.4454C20.1527 10.4454 20.3366 10.4188 20.4969 10.3656C20.6587 10.3111 20.7852 10.2358 20.8764 10.1398C20.9676 10.0425 21.0116 9.92898 21.0086 9.79924C21.0058 9.68117 20.9623 9.58451 20.8782 9.50926C20.7957 9.43401 20.6841 9.37173 20.5436 9.32243C20.4047 9.27312 20.2477 9.22966 20.0726 9.19203L19.4947 9.06358C19.1031 8.97666 18.7912 8.84886 18.5592 8.68019C18.3288 8.51152 18.2103 8.28836 18.2038 8.01071C18.1984 7.78106 18.2697 7.58061 18.4177 7.40934C18.5657 7.23808 18.7684 7.10509 19.0259 7.01038C19.2834 6.91437 19.5752 6.86636 19.9015 6.86636C20.2309 6.86636 20.5226 6.91372 20.7766 7.00843C21.0322 7.10315 21.2348 7.23354 21.3845 7.39961C21.534 7.56439 21.6145 7.75382 21.6259 7.96789L20.918 7.96789Z" fill="white">
                                    <animate attributeName="d" values="M19.7802 11.4048L19.663 6.42264L20.0526 6.42264L20.1698 11.4048L19.7802 11.4048ZM20.918 7.96789C20.8883 7.78366 20.7804 7.64094 20.5943 7.53974C20.4082 7.43724 20.1758 7.38599 19.8971 7.38599C19.6975 7.38599 19.5255 7.41194 19.381 7.46384C19.2365 7.51444 19.1249 7.5845 19.0463 7.67402C18.9692 7.76225 18.9319 7.8628 18.9346 7.97568C18.9368 8.07039 18.9657 8.15213 19.0211 8.2209C19.0782 8.28966 19.1516 8.3474 19.2414 8.3941C19.3327 8.43951 19.4302 8.47779 19.5339 8.50893C19.6375 8.53877 19.7371 8.56342 19.8326 8.58288L20.3101 8.68408C20.466 8.71522 20.6261 8.75739 20.7905 8.81058C20.9549 8.86378 21.1078 8.93384 21.2492 9.02077C21.3906 9.1077 21.5056 9.21539 21.5941 9.34383C21.6842 9.47228 21.7314 9.62603 21.7356 9.80507C21.7409 10.0308 21.6744 10.2313 21.5359 10.4064C21.3991 10.5816 21.1973 10.7198 20.9304 10.821C20.6652 10.9222 20.3425 10.9728 19.9624 10.9728C19.5982 10.9728 19.2819 10.9254 19.0136 10.8307C18.7454 10.736 18.5339 10.6017 18.3794 10.4278C18.2248 10.2527 18.1368 10.0451 18.1153 9.80507L18.8517 9.80507C18.8694 9.94909 18.9292 10.0691 19.0312 10.1651C19.1348 10.2598 19.2656 10.3305 19.4234 10.3772C19.5829 10.4227 19.7568 10.4454 19.9453 10.4454C20.1527 10.4454 20.3366 10.4188 20.4969 10.3656C20.6587 10.3111 20.7852 10.2358 20.8764 10.1398C20.9676 10.0425 21.0116 9.92898 21.0086 9.79924C21.0058 9.68117 20.9623 9.58451 20.8782 9.50926C20.7957 9.43401 20.6841 9.37173 20.5436 9.32243C20.4047 9.27312 20.2477 9.22966 20.0726 9.19203L19.4947 9.06358C19.1031 8.97666 18.7912 8.84886 18.5592 8.68019C18.3288 8.51152 18.2103 8.28836 18.2038 8.01071C18.1984 7.78106 18.2697 7.58061 18.4177 7.40934C18.5657 7.23808 18.7684 7.10509 19.0259 7.01038C19.2834 6.91437 19.5752 6.86636 19.9015 6.86636C20.2309 6.86636 20.5226 6.91372 20.7766 7.00843C21.0322 7.10315 21.2348 7.23354 21.3845 7.39961C21.534 7.56439 21.6145 7.75382 21.6259 7.96789L20.918 7.96789Z;M21.5288 12.1987L18.5699 6.61496L19.0433 6.37818L22.0022 11.9619L21.5288 12.1987ZM20.9685 7.60613C20.8283 7.41505 20.6165 7.31862 20.3332 7.31685C20.0491 7.31363 19.7377 7.39672 19.399 7.56613C19.1565 7.6874 18.9621 7.8214 18.8159 7.96812C18.6689 8.11338 18.5729 8.26072 18.528 8.41014C18.4841 8.55714 18.4957 8.6939 18.5628 8.8204C18.619 8.92655 18.7003 9.0018 18.8066 9.04614C18.9148 9.08952 19.0366 9.11043 19.1721 9.10888C19.3088 9.10491 19.4489 9.08909 19.5925 9.06142C19.7353 9.03231 19.8702 8.99978 19.9972 8.96384L20.6346 8.7885C20.8417 8.72907 21.0602 8.6796 21.29 8.64008C21.5198 8.60055 21.7452 8.58716 21.9662 8.59988C22.1871 8.6126 22.3877 8.66495 22.5679 8.75693C22.7501 8.84795 22.8943 8.99379 23.0006 9.19445C23.1347 9.44747 23.1671 9.71544 23.098 9.99837C23.0307 10.2803 22.8636 10.5598 22.5965 10.8369C22.3314 11.113 21.9679 11.3665 21.5061 11.5975C21.0634 11.8189 20.6524 11.9574 20.2728 12.0129C19.8933 12.0685 19.5604 12.0445 19.2744 11.9411C18.9875 11.8363 18.7632 11.6541 18.6014 11.3948L19.4963 10.9472C19.5991 11.0999 19.7397 11.1998 19.9179 11.2468C20.0973 11.2913 20.2962 11.2921 20.5144 11.2492C20.7338 11.2038 20.9581 11.1239 21.1871 11.0093C21.4392 10.8832 21.6476 10.7413 21.8122 10.5835C21.9781 10.4233 22.0893 10.261 22.1458 10.0966C22.2016 9.93074 22.1909 9.77512 22.1138 9.62971C22.0437 9.49738 21.9363 9.41408 21.7915 9.37979C21.6487 9.34454 21.478 9.34164 21.2793 9.37109C21.0826 9.39957 20.8673 9.44567 20.6332 9.50937L19.8584 9.71481C19.3333 9.85417 18.8822 9.89863 18.5049 9.8482C18.1295 9.79681 17.8594 9.61552 17.6945 9.30435C17.5581 9.04697 17.5314 8.77611 17.6145 8.49177C17.6975 8.20743 17.8687 7.93326 18.128 7.66926C18.3866 7.4038 18.7141 7.17193 19.1106 6.97366C19.5108 6.77345 19.8921 6.6499 20.2543 6.60301C20.6185 6.55516 20.9384 6.58002 21.2141 6.67759C21.489 6.77371 21.6939 6.93981 21.8287 7.17588L20.9685 7.60613Z;M19.7802 11.4048L19.663 6.42264L20.0526 6.42264L20.1698 11.4048L19.7802 11.4048ZM20.918 7.96789C20.8883 7.78366 20.7804 7.64094 20.5943 7.53974C20.4082 7.43724 20.1758 7.38599 19.8971 7.38599C19.6975 7.38599 19.5255 7.41194 19.381 7.46384C19.2365 7.51444 19.1249 7.5845 19.0463 7.67402C18.9692 7.76225 18.9319 7.8628 18.9346 7.97568C18.9368 8.07039 18.9657 8.15213 19.0211 8.2209C19.0782 8.28966 19.1516 8.3474 19.2414 8.3941C19.3327 8.43951 19.4302 8.47779 19.5339 8.50893C19.6375 8.53877 19.7371 8.56342 19.8326 8.58288L20.3101 8.68408C20.466 8.71522 20.6261 8.75739 20.7905 8.81058C20.9549 8.86378 21.1078 8.93384 21.2492 9.02077C21.3906 9.1077 21.5056 9.21539 21.5941 9.34383C21.6842 9.47228 21.7314 9.62603 21.7356 9.80507C21.7409 10.0308 21.6744 10.2313 21.5359 10.4064C21.3991 10.5816 21.1973 10.7198 20.9304 10.821C20.6652 10.9222 20.3425 10.9728 19.9624 10.9728C19.5982 10.9728 19.2819 10.9254 19.0136 10.8307C18.7454 10.736 18.5339 10.6017 18.3794 10.4278C18.2248 10.2527 18.1368 10.0451 18.1153 9.80507L18.8517 9.80507C18.8694 9.94909 18.9292 10.0691 19.0312 10.1651C19.1348 10.2598 19.2656 10.3305 19.4234 10.3772C19.5829 10.4227 19.7568 10.4454 19.9453 10.4454C20.1527 10.4454 20.3366 10.4188 20.4969 10.3656C20.6587 10.3111 20.7852 10.2358 20.8764 10.1398C20.9676 10.0425 21.0116 9.92898 21.0086 9.79924C21.0058 9.68117 20.9623 9.58451 20.8782 9.50926C20.7957 9.43401 20.6841 9.37173 20.5436 9.32243C20.4047 9.27312 20.2477 9.22966 20.0726 9.19203L19.4947 9.06358C19.1031 8.97666 18.7912 8.84886 18.5592 8.68019C18.3288 8.51152 18.2103 8.28836 18.2038 8.01071C18.1984 7.78106 18.2697 7.58061 18.4177 7.40934C18.5657 7.23808 18.7684 7.10509 19.0259 7.01038C19.2834 6.91437 19.5752 6.86636 19.9015 6.86636C20.2309 6.86636 20.5226 6.91372 20.7766 7.00843C21.0322 7.10315 21.2348 7.23354 21.3845 7.39961C21.534 7.56439 21.6145 7.75382 21.6259 7.96789L20.918 7.96789Z" begin="0s" dur="3s" repeatCount="indefinite" fill="freeze" calcMode="linear" keyTimes="0;0.5;1"/></path>
</g>
</g>

                                    </g>

                                    </g>
<defs>
<filter id="filter0_d_149_194" x="14.1154" y="2.42264" width="11.6205" height="12.9822" filterUnits="userSpaceOnUse" color-interpolation-filters="sRGB">
<feFlood flood-opacity="0" result="BackgroundImageFix"/>
<feColorMatrix in="SourceAlpha" type="matrix" values="0 0 0 0 0 0 0 0 0 0 0 0 0 0 0 0 0 0 127 0" result="hardAlpha"/>
<feOffset/>
<feGaussianBlur stdDeviation="2"/>
<feComposite in2="hardAlpha" operator="out"/>
<feColorMatrix type="matrix" values="0 0 0 0 0 0 0 0 0 0 0 0 0 0 0 0 0 0 0.25 0"/>
<feBlend mode="normal" in2="BackgroundImageFix" result="effect1_dropShadow_149_194">
                                    </feBlend>
<feBlend mode="normal" in="SourceGraphic" in2="effect1_dropShadow_149_194" result="shape">
                                    </feBlend>

                                    
                                    <animate attributeName="x" values="14.1154;13.5673;14.1154" begin="0s" dur="3s" repeatCount="indefinite" fill="freeze" calcMode="linear" keyTimes="0;0.5;1"/>
                                    <animate attributeName="y" values="2.42264;2.37817;2.42264" begin="0s" dur="3s" repeatCount="indefinite" fill="freeze" calcMode="linear" keyTimes="0;0.5;1"/>
                                    <animate attributeName="width" values="11.6205;13.566;11.6205" begin="0s" dur="3s" repeatCount="indefinite" fill="freeze" calcMode="linear" keyTimes="0;0.5;1"/>
                                    <animate attributeName="height" values="12.9822;13.8205;12.9822" begin="0s" dur="3s" repeatCount="indefinite" fill="freeze" calcMode="linear" keyTimes="0;0.5;1"/></filter>
<linearGradient id="paint0_linear_149_194" x1="4" y1="35.1943" x2="36" y2="35.1943" gradientUnits="userSpaceOnUse">
<stop stop-color="#2253BD"/>
<stop offset="1" stop-color="#3EA8EA"/>

                                    </linearGradient>
<linearGradient id="paint1_linear_149_194" x1="4" y1="16.6667" x2="36" y2="16.6667" gradientUnits="userSpaceOnUse">
<stop stop-color="#2253BD">
                                    <animate attributeName="stop-color" values="#2253BD;#3EA8EA;#2253BD" begin="0s" dur="3s" repeatCount="indefinite" fill="freeze" calcMode="linear" keyTimes="0;0.5;1"/></stop>
<stop offset="1" stop-color="#3EA8EA">
                                    <animate attributeName="stop-color" values="#3EA8EA;#2253BD;#3EA8EA" begin="0s" dur="3s" repeatCount="indefinite" fill="freeze" calcMode="linear" keyTimes="0;0.5;1"/></stop>

                                    </linearGradient>
<linearGradient id="paint2_linear_149_194" x1="15.5" y1="30.8333" x2="25.485" y2="31.4651" gradientUnits="userSpaceOnUse">
<stop stop-color="#2C71CD"/>
<stop offset="1" stop-color="#3181D5"/>

                                    
                                    <animate attributeName="y1" values="30.8333;31.4999;30.8333" begin="0s" dur="3s" repeatCount="indefinite" fill="freeze" calcMode="linear" keyTimes="0;0.5;1"/>
                                    <animate attributeName="x2" values="25.485;25.4646;25.485" begin="0s" dur="3s" repeatCount="indefinite" fill="freeze" calcMode="linear" keyTimes="0;0.5;1"/>
                                    <animate attributeName="y2" values="31.4651;32.276;31.4651" begin="0s" dur="3s" repeatCount="indefinite" fill="freeze" calcMode="linear" keyTimes="0;0.5;1"/></linearGradient>
<linearGradient id="paint3_linear_149_194" x1="8.5" y1="17.4722" x2="8.5" y2="34.3888" gradientUnits="userSpaceOnUse">
<stop stop-color="#3181D5"/>
<stop offset="1" stop-color="#368FDD"/>

                                    </linearGradient>
<linearGradient id="paint4_linear_149_194" x1="31.5" y1="17.4722" x2="31.5" y2="34.3888" gradientUnits="userSpaceOnUse">
<stop stop-color="#3181D5">
                                    <animate attributeName="stop-color" values="#3181D5;#368FDD;#3181D5" begin="0s" dur="3s" repeatCount="indefinite" fill="freeze" calcMode="linear" keyTimes="0;0.5;1"/></stop>
<stop offset="1" stop-color="#368FDD">
                                    <animate attributeName="stop-color" values="#368FDD;#3181D5;#368FDD" begin="0s" dur="3s" repeatCount="indefinite" fill="freeze" calcMode="linear" keyTimes="0;0.5;1"/></stop>

                                    </linearGradient>
<radialGradient id="paint5_radial_149_194" cx="0" cy="0" r="1" gradientUnits="userSpaceOnUse" gradientTransform="translate(21.25 6.5) rotate(115.017) scale(6.89706)">
<stop offset="0.230687" stop-color="#ED780C"/>
<stop offset="1" stop-color="#F4AE24"/>

                                    </radialGradient>
</defs>
</svg>