<svg version="1.1" id="Layer_1" xmlns="http://www.w3.org/2000/svg" xmlns:xlink="http://www.w3.org/1999/xlink" x="0px" y="0px"
	 width="2rem" height="2.5rem" viewBox="0 0 512 512" enable-background="new 0 0 512 512" xml:space="preserve">
<path fill="#000000" opacity="1.000000" stroke="none" 
	d="
M1.000000,199.000000 
	C1.000000,132.666672 1.000000,66.833336 1.000000,1.000000 
	C171.666672,1.000000 342.333344,1.000000 513.000000,1.000000 
	C513.000000,171.666672 513.000000,342.333344 513.000000,513.000000 
	C342.333344,513.000000 171.666672,513.000000 1.000000,513.000000 
	C1.000000,408.500000 1.000000,304.000000 1.000000,199.000000 
M155.125397,281.746704 
	C158.839005,290.944733 162.282043,300.264648 166.353760,309.301331 
	C169.484528,316.249695 169.515091,319.334473 164.596237,325.170502 
	C158.950867,331.868561 153.269043,338.535980 147.975739,344.777313 
	C155.271881,351.967255 162.188690,358.783417 169.869461,366.352417 
	C170.368164,365.647675 171.218521,364.445984 172.708649,362.989990 
	C178.182739,358.373779 183.748657,353.861084 189.103378,349.110321 
	C193.820755,344.925018 198.560913,344.606079 204.233627,347.308624 
	C212.317886,351.160126 220.765732,354.242523 228.908951,357.978882 
	C232.418839,359.589355 235.554840,362.014648 238.928543,364.900574 
	C240.047104,375.508759 241.165649,386.116913 242.295639,396.833618 
	C245.808655,396.833618 248.922440,396.833618 252.958252,396.982391 
	C259.226440,396.982391 265.494598,396.982391 271.973389,396.982391 
	C272.695587,387.833710 273.021973,379.181152 274.224213,370.652039 
	C274.718048,367.148376 276.223358,362.179382 278.788879,360.880951 
	C286.106842,357.177307 294.205597,355.016449 301.997162,352.248627 
	C307.284973,356.169525 313.121796,355.163086 319.234924,354.747223 
	C322.278076,357.745300 324.592865,362.126740 330.237793,358.171570 
	C331.583954,357.228363 335.276367,358.750854 337.385773,359.994141 
	C340.295227,361.708954 342.726288,364.235504 345.579193,366.593689 
	C346.945618,365.108154 347.932922,364.034821 349.495941,362.624084 
	C355.117493,356.976532 360.739044,351.329010 366.602295,345.438629 
	C360.793549,338.592041 355.193390,332.015259 349.620300,325.415588 
	C344.396057,319.228973 344.385193,316.286835 347.729065,309.126709 
	C351.515442,301.019073 354.945007,292.714233 357.988800,284.299500 
	C360.635132,276.983429 363.437256,274.524780 371.375397,273.998749 
	C379.803070,273.440277 388.218262,272.693420 397.048706,271.996521 
	C397.048706,262.933685 397.059875,254.303040 397.035187,245.672501 
	C397.031921,244.542252 396.844788,243.412537 396.713074,241.952835 
	C387.927765,241.276306 379.322327,240.573730 370.710419,239.962753 
	C363.500641,239.451263 360.556519,236.804626 358.067841,230.026535 
	C354.926117,221.469788 351.478973,212.999283 347.653381,204.727539 
	C344.449677,197.800461 344.444153,194.702042 349.400116,188.830383 
	C355.065369,182.118378 360.768524,175.438385 366.152374,169.100906 
	C360.163177,162.818832 354.546082,156.927063 348.628021,150.421234 
	C347.009888,148.716843 345.677429,146.892212 342.984222,149.354599 
	C337.122345,154.714096 331.013000,159.802979 324.375671,165.306961 
	C319.586456,169.491180 314.777252,169.074982 309.229340,166.360764 
	C301.366211,162.513885 293.246338,159.085617 284.989288,156.180283 
	C276.917206,153.340027 274.553589,150.842041 273.979462,142.395676 
	C273.409515,134.010712 272.629211,125.640060 271.933167,117.165924 
	C264.934570,117.165924 258.485199,117.165924 251.128265,117.010849 
	C248.210190,117.010849 245.292130,117.010849 242.292542,117.010849 
	C241.107208,128.351349 239.979706,139.138550 238.329224,150.340607 
	C235.788177,152.106415 233.446625,154.321365 230.669220,155.554993 
	C221.877655,159.459824 212.812820,162.757202 204.071808,166.765259 
	C198.578491,169.284073 193.959198,169.084198 189.340988,165.089371 
	C183.682373,160.194534 177.831940,155.521439 171.743637,150.162094 
	C170.117584,149.770660 167.666199,148.495880 166.993271,149.124603 
	C160.354782,155.327042 154.011444,161.845367 147.365112,168.493546 
	C153.266052,175.460297 158.845032,182.021225 164.394836,188.606720 
	C169.388046,194.531738 169.361496,197.942093 166.251038,204.933624 
	C162.158752,214.132111 158.769104,223.643204 154.669357,233.567886 
	C152.162216,238.028030 148.177185,239.708221 143.242203,239.997498 
	C137.845718,240.313858 132.467941,240.948975 126.250732,241.296814 
	C123.326599,241.593506 120.402466,241.890198 117.352341,242.199692 
	C117.352341,252.227051 117.352341,262.006622 117.352341,271.951355 
	C120.847015,272.177948 123.963516,272.380005 127.941826,272.835846 
	C132.893539,273.231445 137.839172,273.805603 142.798599,273.974518 
	C148.214417,274.158997 152.397522,276.167206 155.125397,281.746704 
M226.159912,474.649170 
	C227.129074,465.299805 223.312561,460.152954 213.767700,457.936279 
	C152.632034,443.738342 106.777016,409.200409 76.126312,354.463806 
	C72.093796,347.262451 74.192734,342.782684 82.222656,341.018433 
	C85.795204,340.233459 89.400452,339.582336 92.945152,338.689117 
	C97.708855,337.488739 98.708809,334.751404 95.484261,331.209503 
	C79.109962,313.223816 62.674660,295.293304 46.182674,277.415466 
	C42.781681,273.728699 40.206364,274.310303 38.663082,279.128021 
	C31.212320,302.387146 23.842672,325.672546 16.539480,348.978455 
	C15.208797,353.224915 17.235447,355.202667 21.772520,354.303986 
	C26.338137,353.399628 30.864550,352.299133 35.416527,351.323700 
	C41.073387,350.111481 43.552490,351.335449 46.290951,356.593872 
	C48.824329,361.458466 51.139610,366.456207 53.974346,371.139008 
	C57.077023,376.264435 58.106197,380.947662 52.762924,385.166077 
	C55.990509,390.086700 58.928745,394.733765 62.088535,399.224945 
	C62.640209,400.009064 64.398880,400.779144 65.133949,400.464996 
	C70.321373,398.247955 73.400360,400.852997 76.761574,404.424561 
	C86.336800,414.599060 95.624229,425.170746 106.125633,434.323181 
	C135.536240,459.955841 169.741348,476.411926 207.799500,484.840698 
	C217.136017,486.908478 222.582367,483.944519 226.159912,474.649170 
M451.112793,218.387054 
	C456.513977,224.286011 461.881653,230.216110 467.327484,236.073547 
	C471.333038,240.381851 473.828735,239.806152 475.679504,234.111725 
	C478.454681,225.573029 480.928497,216.930481 483.944611,208.479904 
	C484.752075,206.217606 487.034668,202.840851 488.689056,202.812271 
	C495.077271,202.701889 495.557648,198.034485 496.958008,193.876343 
	C497.984741,190.827499 498.911163,187.744873 499.873840,184.703918 
	C493.579834,180.203842 493.149536,178.838043 495.545990,171.239853 
	C496.146332,169.336502 496.755920,167.434830 497.296600,165.514191 
	C498.631714,160.771576 496.931793,158.785751 492.208496,159.693359 
	C487.961761,160.509354 483.741638,161.467392 479.519012,162.404465 
	C472.514557,163.958862 470.340729,162.972458 467.236115,156.481903 
	C457.687408,136.519043 445.551117,118.266220 430.769836,101.821198 
	C397.115967,64.379303 355.596954,40.301033 306.527130,29.219900 
	C296.878510,27.041014 289.531647,31.104538 287.853241,39.266899 
	C286.130920,47.642815 290.994843,53.889168 300.648071,56.131771 
	C306.797485,57.560387 312.947357,59.100594 318.941986,61.064072 
	C371.491394,78.276062 411.096252,111.187798 437.879089,159.538757 
	C441.874268,166.751205 439.785461,171.204224 431.737823,172.988098 
	C428.652252,173.672073 425.564484,174.346054 422.476776,175.020416 
	C415.732605,176.493317 414.941284,178.880508 419.573822,183.949081 
	C429.915802,195.264496 440.279358,206.560211 451.112793,218.387054 
M211.597046,69.094177 
	C219.952484,61.450077 228.359436,53.861191 236.638855,46.135609 
	C240.110886,42.895840 239.643173,40.226658 235.238968,38.810993 
	C211.826538,31.285400 188.378693,23.869070 164.911865,16.514572 
	C160.911026,15.260712 158.823608,17.271925 159.600891,21.423122 
	C160.426712,25.833502 161.466751,30.204283 162.439606,34.586494 
	C163.969437,41.477619 162.855164,43.697048 156.404404,46.845165 
	C107.892601,70.519974 71.542877,106.492989 47.553432,154.849945 
	C38.872883,172.347824 32.467579,190.688293 28.872940,209.920715 
	C27.420540,217.691513 31.716921,224.334213 38.742645,226.045349 
	C47.076633,228.075104 53.866329,223.253693 56.031693,213.894287 
	C70.088158,153.137482 104.255913,107.389275 158.547775,76.701294 
	C167.022308,71.911148 171.064529,73.738365 173.117264,83.084518 
	C173.794861,86.169533 174.436981,89.262894 175.159241,92.337418 
	C176.483002,97.972511 179.103592,98.809532 183.440002,94.872528 
	C192.687378,86.476868 201.871490,78.011513 211.597046,69.094177 
M424.484039,418.983368 
	C443.911499,398.910950 459.753387,376.282288 470.240417,350.414642 
	C476.332703,335.387268 480.750671,319.617462 485.000793,303.932098 
	C487.344421,295.282745 480.740021,287.760162 472.174591,287.472076 
	C465.040436,287.232117 459.881592,291.908264 457.944885,300.228912 
	C443.799133,361.003326 409.592621,406.780670 355.228455,437.439667 
	C346.885620,442.144653 342.960327,440.212067 340.836731,430.637482 
	C340.116150,427.388794 339.489777,424.115204 338.645050,420.899048 
	C337.414764,416.214966 334.774231,415.420715 331.077301,418.647736 
	C327.688843,421.605438 324.440155,424.723053 321.122345,427.761932 
	C306.743988,440.931305 292.342682,454.075684 277.994965,467.278290 
	C273.611969,471.311432 274.169739,473.766571 279.807953,475.643860 
	C283.752289,476.957123 287.750488,478.107697 291.715820,479.358917 
	C310.585022,485.313049 329.441528,491.307648 348.324860,497.216614 
	C353.334534,498.784210 355.223755,497.019379 354.226013,491.885040 
	C353.464325,487.965546 352.616180,484.062164 351.760773,480.161652 
	C350.018677,472.217926 350.740723,470.550659 357.823639,467.118469 
	C382.650757,455.088043 404.706299,439.216797 424.484039,418.983368 
z"/>
<path fill="#908190" opacity="1.000000" stroke="none" 
	d="
M318.960602,354.138733 
	C313.121796,355.163086 307.284973,356.169525 301.997162,352.248627 
	C294.205597,355.016449 286.106842,357.177307 278.788879,360.880951 
	C276.223358,362.179382 274.718048,367.148376 274.224213,370.652039 
	C273.021973,379.181152 272.695587,387.833710 271.973389,396.982391 
	C265.494598,396.982391 259.226440,396.982391 252.494415,396.454773 
	C251.684509,389.335785 251.195358,382.748108 251.026825,376.152222 
	C250.790741,366.913452 248.517868,364.545288 238.860687,364.069794 
	C235.554840,362.014648 232.418839,359.589355 228.908951,357.978882 
	C220.765732,354.242523 212.317886,351.160126 204.233627,347.308624 
	C198.560913,344.606079 193.820755,344.925018 189.103378,349.110321 
	C183.748657,353.861084 178.182739,358.373779 172.237732,362.802795 
	C168.184677,358.921631 164.634048,355.196381 161.011276,351.542664 
	C157.582764,348.084930 156.842606,344.352905 160.051987,340.463470 
	C165.531555,333.822754 171.044449,327.200714 176.794052,320.795898 
	C179.197250,318.118866 179.267929,315.773041 177.833527,312.690063 
	C174.413422,305.338989 170.915359,297.995087 168.059586,290.418091 
	C164.722305,281.563538 165.003769,281.457458 155.079315,280.979614 
	C152.397522,276.167206 148.214417,274.158997 142.798599,273.974518 
	C137.839172,273.805603 132.893539,273.231445 127.505905,272.268402 
	C127.073997,261.615692 127.078003,251.530441 127.082008,241.445175 
	C132.467941,240.948975 137.845718,240.313858 143.242203,239.997498 
	C148.177185,239.708221 152.162216,238.028030 155.289276,233.282867 
	C165.114883,232.245224 164.835709,232.139725 168.001724,223.761414 
	C170.860947,216.194962 174.281693,208.827621 177.735550,201.504868 
	C179.285797,198.218063 179.160446,195.814621 176.613510,193.006332 
	C170.950684,186.762451 165.445435,180.351883 160.249573,173.716690 
	C156.785095,169.292496 157.298065,166.434875 161.175400,162.311020 
	C164.801285,158.454605 168.434479,154.605042 172.064453,150.752457 
	C177.831940,155.521439 183.682373,160.194534 189.340988,165.089371 
	C193.959198,169.084198 198.578491,169.284073 204.071808,166.765259 
	C212.812820,162.757202 221.877655,159.459824 230.669220,155.554993 
	C233.446625,154.321365 235.788177,152.106415 239.001617,150.158966 
	C248.470490,148.819183 250.465561,147.254288 250.912109,140.468399 
	C251.422668,132.709854 251.672638,124.934166 252.035828,117.165924 
	C258.485199,117.165924 264.934570,117.165924 271.933167,117.165924 
	C272.629211,125.640060 273.409515,134.010712 273.979462,142.395676 
	C274.553589,150.842041 276.917206,153.340027 284.989288,156.180283 
	C293.246338,159.085617 301.366211,162.513885 309.229340,166.360764 
	C314.777252,169.074982 319.586456,169.491180 325.114075,165.156494 
	C328.829834,163.946198 332.137451,163.394089 334.713928,161.718048 
	C339.671021,158.493362 344.214172,154.632385 348.928986,151.035294 
	C354.546082,156.927063 360.163177,162.818832 366.152374,169.100906 
	C360.768524,175.438385 355.065369,182.118378 349.400116,188.830383 
	C344.444153,194.702042 344.449677,197.800461 347.653381,204.727539 
	C351.478973,212.999283 354.926117,221.469788 358.067841,230.026535 
	C360.556519,236.804626 363.500641,239.451263 370.710419,239.962753 
	C379.322327,240.573730 387.927765,241.276306 396.713074,241.952835 
	C396.844788,243.412537 397.031921,244.542252 397.035187,245.672501 
	C397.059875,254.303040 397.048706,262.933685 397.048706,271.996521 
	C388.218262,272.693420 379.803070,273.440277 371.375397,273.998749 
	C363.437256,274.524780 360.635132,276.983429 357.988800,284.299500 
	C354.945007,292.714233 351.515442,301.019073 347.729065,309.126709 
	C344.385193,316.286835 344.396057,319.228973 349.620300,325.415588 
	C355.193390,332.015259 360.793549,338.592041 366.602295,345.438629 
	C360.739044,351.329010 355.117493,356.976532 348.872681,362.736755 
	C343.265869,358.838959 338.433472,354.613770 333.213470,350.939209 
	C331.480499,349.719269 328.522675,349.100220 326.533813,349.659912 
	C323.805359,350.427734 321.466431,352.579834 318.960602,354.138733 
M302.275757,187.193588 
	C284.540253,175.953033 265.285858,171.717178 244.497269,174.818512 
	C197.762207,181.790665 165.840714,227.205154 175.333298,273.149628 
	C185.143799,320.632874 232.436844,350.260864 278.628723,337.160095 
	C311.544556,327.824677 332.380127,305.714600 338.535858,272.208466 
	C345.011841,236.958969 332.067932,208.515106 302.275757,187.193588 
z"/>
<path fill="#FDDF76" opacity="1.000000" stroke="none" 
	d="
M226.092209,475.026886 
	C222.582367,483.944519 217.136017,486.908478 207.799500,484.840698 
	C169.741348,476.411926 135.536240,459.955841 106.125633,434.323181 
	C95.624229,425.170746 86.336800,414.599060 76.761574,404.424561 
	C73.400360,400.852997 70.321373,398.247955 65.133949,400.464996 
	C64.398880,400.779144 62.640209,400.009064 62.088535,399.224945 
	C58.928745,394.733765 55.990509,390.086700 52.762924,385.166077 
	C58.106197,380.947662 57.077023,376.264435 53.974346,371.139008 
	C51.139610,366.456207 48.824329,361.458466 46.290951,356.593872 
	C43.552490,351.335449 41.073387,350.111481 35.416527,351.323700 
	C30.864550,352.299133 26.338137,353.399628 21.772520,354.303986 
	C17.235447,355.202667 15.208797,353.224915 16.539480,348.978455 
	C23.842672,325.672546 31.212320,302.387146 38.663082,279.128021 
	C40.206364,274.310303 42.781681,273.728699 46.182674,277.415466 
	C62.674660,295.293304 79.109962,313.223816 95.484261,331.209503 
	C98.708809,334.751404 97.708855,337.488739 92.945152,338.689117 
	C89.400452,339.582336 85.795204,340.233459 82.222656,341.018433 
	C74.192734,342.782684 72.093796,347.262451 76.126312,354.463806 
	C106.777016,409.200409 152.632034,443.738342 213.767700,457.936279 
	C223.312561,460.152954 227.129074,465.299805 226.092209,475.026886 
z"/>
<path fill="#96D87A" opacity="1.000000" stroke="none" 
	d="
M450.873474,218.125488 
	C440.279358,206.560211 429.915802,195.264496 419.573822,183.949081 
	C414.941284,178.880508 415.732605,176.493317 422.476776,175.020416 
	C425.564484,174.346054 428.652252,173.672073 431.737823,172.988098 
	C439.785461,171.204224 441.874268,166.751205 437.879089,159.538757 
	C411.096252,111.187798 371.491394,78.276062 318.941986,61.064072 
	C312.947357,59.100594 306.797485,57.560387 300.648071,56.131771 
	C290.994843,53.889168 286.130920,47.642815 287.853241,39.266899 
	C289.531647,31.104538 296.878510,27.041014 306.527130,29.219900 
	C355.596954,40.301033 397.115967,64.379303 430.769836,101.821198 
	C445.551117,118.266220 457.687408,136.519043 467.236115,156.481903 
	C470.340729,162.972458 472.514557,163.958862 479.519012,162.404465 
	C483.741638,161.467392 487.961761,160.509354 492.208496,159.693359 
	C496.931793,158.785751 498.631714,160.771576 497.296600,165.514191 
	C496.755920,167.434830 496.146332,169.336502 495.545990,171.239853 
	C493.149536,178.838043 493.579834,180.203842 499.873840,184.703918 
	C498.911163,187.744873 497.984741,190.827499 496.958008,193.876343 
	C495.557648,198.034485 495.077271,202.701889 488.689056,202.812271 
	C487.034668,202.840851 484.752075,206.217606 483.944611,208.479904 
	C480.928497,216.930481 478.454681,225.573029 475.679504,234.111725 
	C473.828735,239.806152 471.333038,240.381851 467.327484,236.073547 
	C461.881653,230.216110 456.513977,224.286011 450.873474,218.125488 
z"/>
<path fill="#8694DC" opacity="1.000000" stroke="none" 
	d="
M211.339294,69.334442 
	C201.871490,78.011513 192.687378,86.476868 183.440002,94.872528 
	C179.103592,98.809532 176.483002,97.972511 175.159241,92.337418 
	C174.436981,89.262894 173.794861,86.169533 173.117264,83.084518 
	C171.064529,73.738365 167.022308,71.911148 158.547775,76.701294 
	C104.255913,107.389275 70.088158,153.137482 56.031693,213.894287 
	C53.866329,223.253693 47.076633,228.075104 38.742645,226.045349 
	C31.716921,224.334213 27.420540,217.691513 28.872940,209.920715 
	C32.467579,190.688293 38.872883,172.347824 47.553432,154.849945 
	C71.542877,106.492989 107.892601,70.519974 156.404404,46.845165 
	C162.855164,43.697048 163.969437,41.477619 162.439606,34.586494 
	C161.466751,30.204283 160.426712,25.833502 159.600891,21.423122 
	C158.823608,17.271925 160.911026,15.260712 164.911865,16.514572 
	C188.378693,23.869070 211.826538,31.285400 235.238968,38.810993 
	C239.643173,40.226658 240.110886,42.895840 236.638855,46.135609 
	C228.359436,53.861191 219.952484,61.450077 211.339294,69.334442 
z"/>
<path fill="#FC636E" opacity="1.000000" stroke="none" 
	d="
M424.236908,419.236603 
	C404.706299,439.216797 382.650757,455.088043 357.823639,467.118469 
	C350.740723,470.550659 350.018677,472.217926 351.760773,480.161652 
	C352.616180,484.062164 353.464325,487.965546 354.226013,491.885040 
	C355.223755,497.019379 353.334534,498.784210 348.324860,497.216614 
	C329.441528,491.307648 310.585022,485.313049 291.715820,479.358917 
	C287.750488,478.107697 283.752289,476.957123 279.807953,475.643860 
	C274.169739,473.766571 273.611969,471.311432 277.994965,467.278290 
	C292.342682,454.075684 306.743988,440.931305 321.122345,427.761932 
	C324.440155,424.723053 327.688843,421.605438 331.077301,418.647736 
	C334.774231,415.420715 337.414764,416.214966 338.645050,420.899048 
	C339.489777,424.115204 340.116150,427.388794 340.836731,430.637482 
	C342.960327,440.212067 346.885620,442.144653 355.228455,437.439667 
	C409.592621,406.780670 443.799133,361.003326 457.944885,300.228912 
	C459.881592,291.908264 465.040436,287.232117 472.174591,287.472076 
	C480.740021,287.760162 487.344421,295.282745 485.000793,303.932098 
	C480.750671,319.617462 476.332703,335.387268 470.240417,350.414642 
	C459.753387,376.282288 443.911499,398.910950 424.236908,419.236603 
z"/>
<path fill="#786B77" opacity="1.000000" stroke="none" 
	d="
M171.904053,150.457275 
	C168.434479,154.605042 164.801285,158.454605 161.175400,162.311020 
	C157.298065,166.434875 156.785095,169.292496 160.249573,173.716690 
	C165.445435,180.351883 170.950684,186.762451 176.613510,193.006332 
	C179.160446,195.814621 179.285797,198.218063 177.735550,201.504868 
	C174.281693,208.827621 170.860947,216.194962 168.001724,223.761414 
	C164.835709,232.139725 165.114883,232.245224 155.493256,233.008850 
	C158.769104,223.643204 162.158752,214.132111 166.251038,204.933624 
	C169.361496,197.942093 169.388046,194.531738 164.394836,188.606720 
	C158.845032,182.021225 153.266052,175.460297 147.365112,168.493546 
	C154.011444,161.845367 160.354782,155.327042 166.993271,149.124603 
	C167.666199,148.495880 170.117584,149.770660 171.904053,150.457275 
z"/>
<path fill="#776B76" opacity="1.000000" stroke="none" 
	d="
M155.102356,281.363159 
	C165.003769,281.457458 164.722305,281.563538 168.059586,290.418091 
	C170.915359,297.995087 174.413422,305.338989 177.833527,312.690063 
	C179.267929,315.773041 179.197250,318.118866 176.794052,320.795898 
	C171.044449,327.200714 165.531555,333.822754 160.051987,340.463470 
	C156.842606,344.352905 157.582764,348.084930 161.011276,351.542664 
	C164.634048,355.196381 168.184677,358.921631 171.917847,362.929962 
	C171.218521,364.445984 170.368164,365.647675 169.869461,366.352417 
	C162.188690,358.783417 155.271881,351.967255 147.975739,344.777313 
	C153.269043,338.535980 158.950867,331.868561 164.596237,325.170502 
	C169.515091,319.334473 169.484528,316.249695 166.353760,309.301331 
	C162.282043,300.264648 158.839005,290.944733 155.102356,281.363159 
z"/>
<path fill="#796C78" opacity="1.000000" stroke="none" 
	d="
M251.582062,117.088387 
	C251.672638,124.934166 251.422668,132.709854 250.912109,140.468399 
	C250.465561,147.254288 248.470490,148.819183 239.263107,149.951538 
	C239.979706,139.138550 241.107208,128.351349 242.292542,117.010849 
	C245.292130,117.010849 248.210190,117.010849 251.582062,117.088387 
z"/>
<path fill="#796C78" opacity="1.000000" stroke="none" 
	d="
M238.894623,364.485168 
	C248.517868,364.545288 250.790741,366.913452 251.026825,376.152222 
	C251.195358,382.748108 251.684509,389.335785 252.033417,396.380371 
	C248.922440,396.833618 245.808655,396.833618 242.295639,396.833618 
	C241.165649,386.116913 240.047104,375.508759 238.894623,364.485168 
z"/>
<path fill="#796C78" opacity="1.000000" stroke="none" 
	d="
M126.666367,241.371002 
	C127.078003,251.530441 127.073997,261.615692 127.074997,272.141541 
	C123.963516,272.380005 120.847015,272.177948 117.352341,271.951355 
	C117.352341,262.006622 117.352341,252.227051 117.352341,242.199692 
	C120.402466,241.890198 123.326599,241.593506 126.666367,241.371002 
z"/>
<path fill="#786B77" opacity="1.000000" stroke="none" 
	d="
M319.097778,354.442993 
	C321.466431,352.579834 323.805359,350.427734 326.533813,349.659912 
	C328.522675,349.100220 331.480499,349.719269 333.213470,350.939209 
	C338.433472,354.613770 343.265869,358.838959 348.584808,362.905457 
	C347.932922,364.034821 346.945618,365.108154 345.579193,366.593689 
	C342.726288,364.235504 340.295227,361.708954 337.385773,359.994141 
	C335.276367,358.750854 331.583954,357.228363 330.237793,358.171570 
	C324.592865,362.126740 322.278076,357.745300 319.097778,354.442993 
z"/>
<path fill="#766975" opacity="1.000000" stroke="none" 
	d="
M348.778503,150.728271 
	C344.214172,154.632385 339.671021,158.493362 334.713928,161.718048 
	C332.137451,163.394089 328.829834,163.946198 325.428650,165.004257 
	C331.013000,159.802979 337.122345,154.714096 342.984222,149.354599 
	C345.677429,146.892212 347.009888,148.716843 348.778503,150.728271 
z"/>
<path fill="#020202" opacity="1.000000" stroke="none" 
	d="
M302.571594,187.401825 
	C332.067932,208.515106 345.011841,236.958969 338.535858,272.208466 
	C332.380127,305.714600 311.544556,327.824677 278.628723,337.160095 
	C232.436844,350.260864 185.143799,320.632874 175.333298,273.149628 
	C165.840714,227.205154 197.762207,181.790665 244.497269,174.818512 
	C265.285858,171.717178 284.540253,175.953033 302.571594,187.401825 
M320.165619,231.444855 
	C308.609741,205.546661 288.828094,190.441711 260.440521,189.143402 
	C218.383270,187.219910 186.782822,220.214005 189.015549,262.344055 
	C191.011841,300.012787 228.388046,330.414856 265.632874,324.665161 
	C310.507233,317.737640 335.947815,274.823761 320.165619,231.444855 
z"/>
<path fill="#796C78" opacity="1.000000" stroke="none" 
	d="
M320.322021,231.797516 
	C335.947815,274.823761 310.507233,317.737640 265.632874,324.665161 
	C228.388046,330.414856 191.011841,300.012787 189.015549,262.344055 
	C186.782822,220.214005 218.383270,187.219910 260.440521,189.143402 
	C288.828094,190.441711 308.609741,205.546661 320.322021,231.797516 
M271.534973,226.826477 
	C257.128693,220.395584 241.452942,223.673752 231.528244,235.192810 
	C222.076584,246.162827 220.862473,262.485474 228.584595,274.768646 
	C236.099686,286.722504 250.084274,292.665344 264.020966,289.827484 
	C276.965912,287.191589 287.889923,275.937714 289.967621,263.097321 
	C292.415192,247.970917 286.017487,234.993118 271.534973,226.826477 
z"/>
<path fill="#010101" opacity="1.000000" stroke="none" 
	d="
M271.883453,226.973480 
	C286.017487,234.993118 292.415192,247.970917 289.967621,263.097321 
	C287.889923,275.937714 276.965912,287.191589 264.020966,289.827484 
	C250.084274,292.665344 236.099686,286.722504 228.584595,274.768646 
	C220.862473,262.485474 222.076584,246.162827 231.528244,235.192810 
	C241.452942,223.673752 257.128693,220.395584 271.883453,226.973480 
z"/>
</svg>